<?xml version="1.0" encoding="UTF-8" standalone="no"?>
<!-- Created with Inkscape (http://www.inkscape.org/) -->

<svg
   xmlns:dc="http://purl.org/dc/elements/1.1/"
   xmlns:cc="http://creativecommons.org/ns#"
   xmlns:rdf="http://www.w3.org/1999/02/22-rdf-syntax-ns#"
   xmlns:svg="http://www.w3.org/2000/svg"
   xmlns="http://www.w3.org/2000/svg"
   xmlns:sodipodi="http://sodipodi.sourceforge.net/DTD/sodipodi-0.dtd"
   xmlns:inkscape="http://www.inkscape.org/namespaces/inkscape"
   version="1.1"
   id="svg5426"
   xml:space="preserve"
   width="816"
   height="1056"
   viewBox="0 0 816 1056"
   sodipodi:docname="countdown2.svg"
   inkscape:version="0.92.4 (5da689c313, 2019-01-14)"><metadata
     id="metadata5432"><rdf:RDF><cc:Work
         rdf:about=""><dc:format>image/svg+xml</dc:format><dc:type
           rdf:resource="http://purl.org/dc/dcmitype/StillImage" /><dc:title /></cc:Work></rdf:RDF></metadata><defs
     id="defs5430"><clipPath
       clipPathUnits="userSpaceOnUse"
       id="clipPath5442"><path
         d="M 0,792 H 612 V 0 H 0 Z"
         id="path5440"
         inkscape:connector-curvature="0" /></clipPath><clipPath
       clipPathUnits="userSpaceOnUse"
       id="clipPath5450"><path
         d="M 311.155,262.975 H 445.177 V 175.357 H 311.155 Z"
         id="path5448"
         inkscape:connector-curvature="0" /></clipPath><clipPath
       clipPathUnits="userSpaceOnUse"
       id="clipPath5496"><path
         d="M 209.129,474.504 H 222.37 V 445.77 h -13.241 z"
         id="path5494"
         inkscape:connector-curvature="0" /></clipPath></defs><sodipodi:namedview
     pagecolor="#ffffff"
     bordercolor="#666666"
     borderopacity="1"
     objecttolerance="10"
     gridtolerance="10"
     guidetolerance="10"
     inkscape:pageopacity="0"
     inkscape:pageshadow="2"
     inkscape:window-width="2490"
     inkscape:window-height="1376"
     id="namedview5428"
     showgrid="false"
     inkscape:zoom="0.63211061"
     inkscape:cx="250.42229"
     inkscape:cy="655.02337"
     inkscape:window-x="70"
     inkscape:window-y="27"
     inkscape:window-maximized="1"
     inkscape:current-layer="g5434" /><g
     id="g5434"
     inkscape:groupmode="layer"
     inkscape:label="1-countdown"
     transform="matrix(1.3333333,0,0,-1.3333333,0,1056)"><path
       inkscape:connector-curvature="0"
       id="path5516"
       style="fill:#000000;fill-opacity:1;fill-rule:nonzero;stroke:none"
       d="m 213.874,473.8618 c -0.003,0 -0.007,0 -0.011,0 -1.33,0.113 -2.67,0.253 -3.982,0.418 -0.069,0.009 -0.117,0.072 -0.109,0.14 0.008,0.068 0.071,0.117 0.14,0.109 1.309,-0.165 2.646,-0.305 3.973,-0.417 0.068,-0.006 0.12,-0.067 0.114,-0.136 -0.006,-0.065 -0.061,-0.114 -0.125,-0.114 m 2.494,-0.18 h -0.007 c -0.168,0.01 -0.334,0.021 -0.502,0.032 -0.068,0.004 -0.12,0.064 -0.116,0.133 0.005,0.069 0.076,0.119 0.134,0.116 0.166,-0.011 0.332,-0.021 0.498,-0.031 0.069,-0.004 0.122,-0.063 0.118,-0.132 -0.004,-0.066 -0.059,-0.118 -0.125,-0.118 m 5.996,-0.178 c -1.335,0 -2.682,0.027 -4.004,0.079 -0.069,0.003 -0.123,0.061 -0.12,0.13 0.003,0.067 0.059,0.12 0.125,0.12 h 0.005 c 1.318,-0.053 2.662,-0.079 3.994,-0.079 0.07,0 0.125,-0.056 0.125,-0.125 0,-0.069 -0.055,-0.125 -0.125,-0.125" /><path
       style="fill:none;fill-opacity:1;fill-rule:nonzero;stroke:#000000;stroke-width:0.14173229;stroke-miterlimit:4;stroke-dasharray:none;stroke-opacity:1"
       d="m 389.6357,293.5783 c -0.432,0 -0.863,0.003 -1.294,0.02 l -2.551,0.065 c -0.85,0.02 -1.711,0.064 -2.555,0.13 l -2.518,0.191 c -0.828,0.062 -1.677,0.148 -2.52,0.255 l -2.484,0.316 c -0.815,0.103 -1.651,0.23 -2.481,0.379 l -2.443,0.437 c -0.815,0.144 -1.636,0.312 -2.44,0.499 l -2.399,0.554 c -17.655,4.302 -33.814,13.405 -46.734,26.325 -12.92,12.92 -22.023,29.079 -26.324,46.729 l -0.556,2.405 c -0.186,0.802 -0.354,1.624 -0.499,2.441 l -0.436,2.441 c -0.15,0.833 -0.277,1.668 -0.379,2.483 l -0.316,2.481 c -0.107,0.84 -0.193,1.688 -0.256,2.521 l -0.191,2.519 c -0.065,0.844 -0.109,1.703 -0.13,2.556 l -0.063,2.553 c -0.019,0.424 -0.021,0.857 -0.021,1.291 0,0.434 0.002,0.866 0.021,1.298 l 0.063,2.546 c 0.021,0.85 0.065,1.71 0.13,2.556 l 0.191,2.519 c 0.063,0.834 0.149,1.681 0.256,2.52 l 0.317,2.482 c 0.1,0.809 0.227,1.645 0.378,2.481 l 0.436,2.443 c 0.145,0.819 0.313,1.64 0.5,2.441 l 0.554,2.399 c 4.302,17.655 13.405,33.813 26.325,46.733 12.92,12.92 29.078,22.023 46.729,26.324 l 2.405,0.555 c 0.807,0.188 1.629,0.356 2.44,0.5 l 2.442,0.436 c 0.82,0.148 1.656,0.275 2.482,0.379 l 2.482,0.316 c 0.842,0.107 1.691,0.193 2.52,0.255 l 2.52,0.192 c 0.855,0.066 1.715,0.11 2.555,0.13 l 2.552,0.064 c 0.426,0.018 0.858,0.02 1.292,0.02 54.915,0 99.591,-44.676 99.591,-99.589 0,-54.915 -44.676,-99.591 -99.591,-99.591"
       id="path5472" /><path
       style="fill:none;fill-opacity:1;fill-rule:nonzero;stroke:#000000;stroke-width:0.14173229;stroke-miterlimit:4;stroke-dasharray:none;stroke-opacity:1"
       d="m 389.6357,293.5791 c -0.207,0 -0.375,0.168 -0.375,0.375 v 86.056 c 0,0.207 0.168,0.375 0.375,0.375 0.207,0 0.375,-0.168 0.375,-0.375 v -86.056 c 0,-0.207 -0.168,-0.375 -0.375,-0.375"
       id="path5476" /><path
       style="fill:none;fill-opacity:1;fill-rule:nonzero;stroke:#000000;stroke-width:0.14173229;stroke-miterlimit:4;stroke-dasharray:none;stroke-opacity:1"
       d="m 222.4004,207.157 -2.186,0.195 -2.235,0.636 -2.153,1.106 -1.925,1.554 -1.565,1.915 -1.122,2.148 -0.65,2.234 -0.207,2.187 c -0.003,0.022 -0.003,0.046 0,0.068 l 0.194,2.117 0.636,2.236 1.107,2.153 1.552,1.925 1.915,1.565 2.149,1.123 2.235,0.65 2.187,0.207 2.185,-0.195 2.235,-0.634 2.153,-1.109 1.924,-1.552 1.568,-1.916 1.121,-2.148 0.65,-2.235 0.207,-2.187 -0.195,-2.185 -0.635,-2.235 -1.106,-2.153 -1.556,-1.925 -1.915,-1.566 -2.148,-1.12 -2.234,-0.652 z"
       id="path5480" /><path
       style="fill:none;fill-opacity:1;fill-rule:nonzero;stroke:#000000;stroke-width:0.14173229;stroke-miterlimit:4;stroke-dasharray:none;stroke-opacity:1"
       d="m 221.2387,119.5666 -4.225,0.139 -4.238,0.321 -4.245,0.504 -4.251,0.69 -4.249,0.879 -4.201,1.06 -4.12,1.229 -4.037,1.398 -3.947,1.559 -3.857,1.717 -3.762,1.871 -3.665,2.021 -3.564,2.166 -3.457,2.305 -3.349,2.441 -3.238,2.573 -3.122,2.702 -3.004,2.823 -2.881,2.943 -2.754,3.055 -2.627,3.167 -2.495,3.271 -2.358,3.374 -2.219,3.469 -2.076,3.562 -1.929,3.649 -1.78,3.734 -1.627,3.811 -1.471,3.889 -1.311,3.958 -1.147,4.025 -0.98,4.084 -0.81,4.144 -0.636,4.196 -0.459,4.245 -0.279,4.288 -0.094,4.33 0.091,4.331 0.278,4.291 0.457,4.246 0.635,4.198 0.808,4.146 0.981,4.087 1.146,4.025 1.31,3.959 1.471,3.889 1.627,3.815 1.782,3.733 1.931,3.651 2.076,3.561 2.221,3.471 2.359,3.373 2.497,3.272 2.628,3.166 2.756,3.057 2.884,2.942 3.004,2.825 3.124,2.7 3.239,2.574 3.352,2.441 3.46,2.306 3.564,2.164 3.665,2.02 3.764,1.871 3.858,1.718 3.951,1.558 4.036,1.399 4.122,1.229 4.202,1.06 4.247,0.878 4.25,0.689 4.244,0.504 4.237,0.32 4.221,0.139 4.205,-0.041 4.181,-0.217 4.152,-0.391 4.118,-0.564 4.082,-0.732 4.035,-0.899 3.99,-1.065 3.934,-1.226 3.876,-1.386 3.816,-1.545 3.745,-1.7 3.672,-1.851 3.595,-2.004 3.511,-2.15 3.423,-2.296 3.329,-2.439 3.234,-2.582 3.128,-2.719 3.022,-2.855 2.907,-2.989 2.791,-3.121 2.667,-3.249 2.541,-3.376 2.407,-3.5 2.269,-3.624 2.128,-3.742 1.874,-3.654 h 132.792 c 0.207,0 0.375,-0.168 0.375,-0.375 v -86.617 c 0,-0.207 -0.168,-0.375 -0.375,-0.375 h -132.792 l -1.868,-3.643 -2.127,-3.744 -2.271,-3.624 -2.408,-3.502 -2.539,-3.378 -2.669,-3.252 -2.792,-3.12 -2.909,-2.991 -3.021,-2.856 -3.13,-2.72 -3.233,-2.581 -3.331,-2.441 -3.424,-2.297 -3.511,-2.15 -3.595,-2.002 -3.674,-1.853 -3.745,-1.7 -0.015,-0.006 -3.801,-1.538 -3.878,-1.386 -3.937,-1.227 -3.988,-1.063 -4.038,-0.901 -4.081,-0.731 -4.121,-0.563 -4.153,-0.39 -4.182,-0.217 z"
       id="path5484" /><path
       style="fill:none;fill-opacity:1;fill-rule:nonzero;stroke:#000000;stroke-width:0.14173229;stroke-miterlimit:4;stroke-dasharray:none;stroke-opacity:1"
       d="m 389.6362,390.9936 c -0.024,0 -0.047,0.002 -0.071,0.006 l -0.662,0.127 c -0.049,0.009 -0.095,0.029 -0.136,0.055 l -0.609,0.401 c -0.043,0.029 -0.079,0.065 -0.107,0.108 l -0.402,0.609 c -0.026,0.041 -0.046,0.087 -0.054,0.136 l -0.127,0.662 c -0.009,0.046 -0.009,0.094 0,0.141 l 0.127,0.663 c 0.008,0.049 0.027,0.094 0.054,0.136 l 0.402,0.61 c 0.028,0.043 0.064,0.079 0.107,0.107 l 0.609,0.401 c 0.041,0.027 0.088,0.046 0.136,0.054 l 0.662,0.126 c 0.047,0.01 0.094,0.01 0.141,0 l 0.663,-0.126 c 0.048,-0.008 0.095,-0.027 0.136,-0.054 l 0.609,-0.401 c 0.043,-0.028 0.079,-0.064 0.107,-0.107 l 0.402,-0.61 c 0.027,-0.042 0.046,-0.088 0.055,-0.136 l 0.126,-0.663 c 0.008,-0.047 0.008,-0.094 0,-0.141 l -0.126,-0.662 c -0.009,-0.049 -0.028,-0.095 -0.055,-0.136 l -0.402,-0.609 c -0.028,-0.043 -0.064,-0.079 -0.107,-0.108 l -0.609,-0.401 c -0.041,-0.026 -0.087,-0.046 -0.136,-0.055 l -0.663,-0.127 c -0.024,-0.004 -0.047,-0.006 -0.07,-0.006"
       id="path5488" /><path
       style="fill:none;fill-opacity:1;fill-rule:nonzero;stroke:#000000;stroke-width:0.14173229;stroke-miterlimit:4;stroke-dasharray:none;stroke-opacity:1"
       d="m 222.3699,445.395 h -13.241 c -0.207,0 -0.375,0.168 -0.375,0.375 v 28.406 c -49.041,6.701 -85.98,49.061 -85.98,98.668 0,54.914 44.675,99.59 99.59,99.59 19.049,0 37.563,-5.395 53.54,-15.602 15.49,-9.895 27.928,-23.829 35.983,-40.304 l 132.79,-10e-4 c 0.207,0 0.375,-0.168 0.375,-0.375 v -86.618 c 0,-0.207 -0.168,-0.375 -0.375,-0.375 h -132.79 c -8.054,-16.474 -20.491,-30.408 -35.98,-40.302 -15.872,-10.139 -34.247,-15.53 -53.162,-15.603 V 445.77 c 0,-0.207 -0.168,-0.375 -0.375,-0.375"
       id="path5508" /><path
       style="fill:none;fill-opacity:1;fill-rule:nonzero;stroke:#000000;stroke-width:0.14173229;stroke-miterlimit:4;stroke-dasharray:none;stroke-opacity:1"
       d="m 222.3643,473.2539 c -0.207,0 -0.375,0.168 -0.375,0.375 v 84.359 c 0,0.207 0.168,0.375 0.375,0.375 0.207,0 0.375,-0.168 0.375,-0.375 v -84.359 c 0,-0.207 -0.168,-0.375 -0.375,-0.375"
       id="path5512" /><path
       style="fill:none;fill-opacity:1;fill-rule:nonzero;stroke:#000000;stroke-width:0.14173229;stroke-miterlimit:4;stroke-dasharray:none;stroke-opacity:1"
       d="m 222.3643,557.6117 c -8.399,0 -15.232,6.833 -15.232,15.232 0,8.399 6.833,15.232 15.232,15.232 8.398,0 15.231,-6.833 15.231,-15.232 0,-8.399 -6.833,-15.232 -15.231,-15.232"
       id="path5520" /><g
       id="g6946"
       style="fill:#111fdd;fill-opacity:1"><path
         inkscape:connector-curvature="0"
         id="path5464"
         style="fill:#111fdd;fill-opacity:1;fill-rule:nonzero;stroke:none"
         d="m 331.875,175.857 h -0.75 v 86.617 h 0.75 z" /><path
         d="m 339.4355,189.0928 c -0.237,0.243 -0.57,0.365 -1,0.365 -0.431,0 -0.765,-0.121 -1.003,-0.362 -0.238,-0.242 -0.357,-0.595 -0.357,-1.058 v -0.63 h 2.714 v 0.63 c 0,0.46 -0.118,0.812 -0.354,1.055 m -0.068,0.615 c 0.265,-0.143 0.47,-0.354 0.615,-0.633 0.144,-0.278 0.218,-0.612 0.218,-1.003 v -1.119 h -3.526 v 1.119 c 0,0.391 0.072,0.725 0.213,1.003 0.142,0.279 0.345,0.49 0.611,0.633 0.264,0.144 0.577,0.215 0.937,0.215 0.356,0 0.667,-0.071 0.932,-0.215"
         style="fill:#111fdd;fill-opacity:1;fill-rule:nonzero;stroke:none"
         id="path5524"
         inkscape:connector-curvature="0" /><path
         d="m 337.9297,191.3301 c 0.074,-0.139 0.186,-0.25 0.338,-0.335 0.151,-0.085 0.339,-0.128 0.562,-0.128 0.22,0 0.407,0.043 0.558,0.128 0.151,0.085 0.264,0.196 0.337,0.335 0.074,0.139 0.11,0.289 0.11,0.453 0,0.163 -0.036,0.315 -0.11,0.452 -0.073,0.138 -0.186,0.25 -0.337,0.335 -0.151,0.085 -0.338,0.127 -0.558,0.127 -0.223,0 -0.411,-0.042 -0.562,-0.127 -0.152,-0.085 -0.264,-0.197 -0.338,-0.335 -0.073,-0.137 -0.109,-0.289 -0.109,-0.452 0,-0.164 0.036,-0.314 0.109,-0.453 m -0.34,1.16 c 0.113,0.209 0.278,0.371 0.49,0.49 0.213,0.119 0.463,0.178 0.75,0.178 0.287,0 0.536,-0.059 0.747,-0.178 0.212,-0.119 0.374,-0.281 0.488,-0.49 0.113,-0.208 0.17,-0.444 0.17,-0.707 0,-0.264 -0.057,-0.5 -0.17,-0.708 -0.114,-0.208 -0.276,-0.372 -0.488,-0.492 -0.211,-0.12 -0.46,-0.181 -0.747,-0.181 -0.287,0 -0.537,0.061 -0.75,0.181 -0.212,0.12 -0.377,0.284 -0.49,0.492 -0.113,0.208 -0.17,0.444 -0.17,0.708 0,0.263 0.057,0.499 0.17,0.707"
         style="fill:#111fdd;fill-opacity:1;fill-rule:nonzero;stroke:none"
         id="path5528"
         inkscape:connector-curvature="0" /><path
         d="m 337.7178,197.207 c 0.204,0.197 0.501,0.295 0.888,0.295 h 1.594 v -0.455 h -1.555 c -0.274,0 -0.483,-0.069 -0.63,-0.209 -0.147,-0.141 -0.22,-0.33 -0.22,-0.57 0,-0.25 0.081,-0.451 0.242,-0.6 0.162,-0.15 0.399,-0.226 0.708,-0.226 h 1.455 v -0.454 h -2.745 v 0.454 h 0.651 c -0.224,0.071 -0.396,0.195 -0.516,0.372 -0.12,0.179 -0.18,0.385 -0.18,0.619 0,0.319 0.103,0.578 0.308,0.774"
         style="fill:#111fdd;fill-opacity:1;fill-rule:nonzero;stroke:none"
         id="path5532"
         inkscape:connector-curvature="0" /><path
         d="m 337.9297,198.9951 c 0.074,-0.139 0.186,-0.25 0.338,-0.335 0.151,-0.086 0.339,-0.128 0.562,-0.128 0.22,0 0.407,0.042 0.558,0.128 0.151,0.085 0.264,0.196 0.337,0.335 0.074,0.138 0.11,0.289 0.11,0.452 0,0.164 -0.036,0.315 -0.11,0.453 -0.073,0.138 -0.186,0.25 -0.337,0.334 -0.151,0.086 -0.338,0.128 -0.558,0.128 -0.223,0 -0.411,-0.042 -0.562,-0.128 -0.152,-0.084 -0.264,-0.196 -0.338,-0.334 -0.073,-0.138 -0.109,-0.289 -0.109,-0.453 0,-0.163 0.036,-0.314 0.109,-0.452 m -0.34,1.159 c 0.113,0.209 0.278,0.372 0.49,0.49 0.213,0.12 0.463,0.178 0.75,0.178 0.287,0 0.536,-0.058 0.747,-0.178 0.212,-0.118 0.374,-0.281 0.488,-0.49 0.113,-0.207 0.17,-0.443 0.17,-0.707 0,-0.264 -0.057,-0.499 -0.17,-0.707 -0.114,-0.209 -0.276,-0.373 -0.488,-0.492 -0.211,-0.121 -0.46,-0.181 -0.747,-0.181 -0.287,0 -0.537,0.06 -0.75,0.181 -0.212,0.119 -0.377,0.283 -0.49,0.492 -0.113,0.208 -0.17,0.443 -0.17,0.707 0,0.264 0.057,0.5 0.17,0.707"
         style="fill:#111fdd;fill-opacity:1;fill-rule:nonzero;stroke:none"
         id="path5536"
         inkscape:connector-curvature="0" /><path
         d="m 339.7998,202.7266 h 0.4 v -0.34 c 0,-0.279 -0.067,-0.488 -0.2,-0.627 -0.133,-0.138 -0.356,-0.207 -0.67,-0.207 h -1.48 v -0.41 h -0.395 v 0.41 h -0.685 v 0.459 h 0.685 v 0.711 h 0.395 v -0.711 h 1.49 c 0.177,0 0.298,0.033 0.362,0.098 0.066,0.065 0.098,0.178 0.098,0.338 z"
         style="fill:#111fdd;fill-opacity:1;fill-rule:nonzero;stroke:none"
         id="path5540"
         inkscape:connector-curvature="0" /><path
         d="m 338.0928,205.0996 c 0.178,-0.168 0.424,-0.253 0.737,-0.253 0.314,0 0.559,0.085 0.738,0.253 0.178,0.168 0.267,0.393 0.267,0.672 0,0.18 -0.042,0.342 -0.125,0.482 -0.083,0.143 -0.2,0.253 -0.352,0.333 -0.152,0.08 -0.328,0.12 -0.528,0.12 -0.2,0 -0.377,-0.04 -0.53,-0.12 -0.153,-0.08 -0.27,-0.19 -0.353,-0.333 -0.082,-0.14 -0.122,-0.302 -0.122,-0.482 0,-0.279 0.089,-0.504 0.268,-0.672 m -0.473,1.22 c 0.134,0.184 0.312,0.313 0.535,0.387 h -0.7 v 0.456 h 2.79 c 0.253,0 0.478,-0.054 0.675,-0.161 0.197,-0.107 0.35,-0.256 0.46,-0.45 0.11,-0.193 0.165,-0.419 0.165,-0.675 0,-0.37 -0.089,-0.672 -0.267,-0.905 -0.178,-0.233 -0.419,-0.382 -0.723,-0.444 v 0.449 c 0.184,0.054 0.328,0.154 0.433,0.303 0.105,0.148 0.157,0.34 0.157,0.572 0,0.247 -0.079,0.451 -0.238,0.613 -0.158,0.161 -0.378,0.242 -0.662,0.242 h -0.745 c 0.224,-0.074 0.402,-0.203 0.535,-0.387 0.133,-0.185 0.2,-0.411 0.2,-0.677 0,-0.244 -0.057,-0.461 -0.17,-0.65 -0.114,-0.191 -0.276,-0.34 -0.488,-0.448 -0.212,-0.109 -0.46,-0.163 -0.747,-0.163 -0.287,0 -0.537,0.054 -0.75,0.163 -0.213,0.108 -0.377,0.257 -0.49,0.448 -0.113,0.189 -0.17,0.406 -0.17,0.65 0,0.266 0.067,0.492 0.2,0.677"
         style="fill:#111fdd;fill-opacity:1;fill-rule:nonzero;stroke:none"
         id="path5544"
         inkscape:connector-curvature="0" /><path
         inkscape:connector-curvature="0"
         id="path5546"
         style="fill:#111fdd;fill-opacity:1;fill-rule:nonzero;stroke:none"
         d="m 336.5,208.342 h 3.7 v -0.455 h -3.7 z" /><path
         d="m 337.4551,211.5117 h 2.745 v -0.455 h -0.645 c 0.223,-0.07 0.394,-0.193 0.512,-0.372 0.118,-0.179 0.178,-0.386 0.178,-0.622 0,-0.318 -0.102,-0.574 -0.308,-0.771 -0.205,-0.196 -0.499,-0.295 -0.882,-0.295 h -1.6 v 0.455 h 1.555 c 0.273,0 0.484,0.07 0.633,0.21 0.148,0.141 0.222,0.33 0.222,0.571 0,0.25 -0.081,0.449 -0.242,0.599 -0.162,0.151 -0.398,0.225 -0.708,0.225 h -1.46 z"
         style="fill:#111fdd;fill-opacity:1;fill-rule:nonzero;stroke:none"
         id="path5550"
         inkscape:connector-curvature="0" /><path
         d="m 338.1953,214.207 c -0.137,-0.076 -0.238,-0.182 -0.306,-0.314 -0.066,-0.134 -0.099,-0.28 -0.099,-0.436 0,-0.25 0.077,-0.46 0.232,-0.63 0.155,-0.171 0.383,-0.262 0.683,-0.275 v 1.755 c -0.203,0.009 -0.373,-0.024 -0.51,-0.1 m 0.729,0.54 v -2.195 c 0.314,0.01 0.549,0.098 0.706,0.267 0.157,0.169 0.235,0.374 0.235,0.618 0,0.219 -0.057,0.405 -0.168,0.552 -0.111,0.149 -0.261,0.239 -0.447,0.273 v 0.485 c 0.189,-0.034 0.359,-0.107 0.509,-0.223 0.151,-0.114 0.267,-0.264 0.35,-0.447 0.084,-0.183 0.125,-0.39 0.125,-0.62 0,-0.264 -0.057,-0.496 -0.17,-0.7 -0.113,-0.203 -0.275,-0.362 -0.487,-0.478 -0.212,-0.115 -0.46,-0.172 -0.747,-0.172 -0.287,0 -0.537,0.057 -0.75,0.172 -0.213,0.116 -0.377,0.275 -0.49,0.478 -0.114,0.204 -0.17,0.436 -0.17,0.7 0,0.267 0.056,0.499 0.17,0.697 0.113,0.199 0.265,0.35 0.455,0.455 0.189,0.106 0.4,0.159 0.629,0.159 0.097,0 0.181,-0.008 0.25,-0.021"
         style="fill:#111fdd;fill-opacity:1;fill-rule:nonzero;stroke:none"
         id="path5554"
         inkscape:connector-curvature="0" /><path
         d="m 338.0928,217.1797 c 0.178,-0.168 0.424,-0.253 0.737,-0.253 0.314,0 0.559,0.085 0.738,0.253 0.178,0.168 0.267,0.393 0.267,0.672 0,0.18 -0.042,0.342 -0.125,0.482 -0.083,0.143 -0.2,0.253 -0.352,0.333 -0.152,0.08 -0.328,0.12 -0.528,0.12 -0.2,0 -0.377,-0.04 -0.53,-0.12 -0.153,-0.08 -0.27,-0.19 -0.353,-0.333 -0.082,-0.14 -0.122,-0.302 -0.122,-0.482 0,-0.279 0.089,-0.504 0.268,-0.672 m -0.473,1.22 c 0.134,0.184 0.312,0.313 0.535,0.387 h -0.7 v 0.456 h 2.745 v -0.456 h -0.7 c 0.224,-0.074 0.402,-0.203 0.535,-0.387 0.133,-0.185 0.2,-0.411 0.2,-0.677 0,-0.244 -0.057,-0.461 -0.17,-0.65 -0.114,-0.191 -0.276,-0.34 -0.488,-0.448 -0.212,-0.109 -0.46,-0.163 -0.747,-0.163 -0.287,0 -0.537,0.054 -0.75,0.163 -0.213,0.108 -0.377,0.257 -0.49,0.448 -0.113,0.189 -0.17,0.406 -0.17,0.65 0,0.266 0.067,0.492 0.2,0.677"
         style="fill:#111fdd;fill-opacity:1;fill-rule:nonzero;stroke:none"
         id="path5558"
         inkscape:connector-curvature="0" /><path
         d="m 337.9473,220.8721 c 0.082,-0.144 0.199,-0.255 0.353,-0.335 0.153,-0.08 0.33,-0.12 0.53,-0.12 0.2,0 0.376,0.04 0.527,0.12 0.152,0.08 0.27,0.191 0.353,0.335 0.083,0.144 0.125,0.304 0.125,0.479 0,0.284 -0.089,0.51 -0.268,0.678 -0.179,0.168 -0.424,0.253 -0.737,0.253 -0.314,0 -0.56,-0.085 -0.737,-0.253 -0.179,-0.168 -0.268,-0.394 -0.268,-0.678 0,-0.175 0.04,-0.335 0.122,-0.479 m -0.357,1.26 c 0.113,0.19 0.277,0.339 0.49,0.448 0.213,0.107 0.463,0.162 0.75,0.162 0.287,0 0.535,-0.055 0.747,-0.162 0.212,-0.109 0.374,-0.258 0.487,-0.448 0.113,-0.191 0.17,-0.407 0.17,-0.65 0,-0.267 -0.066,-0.492 -0.202,-0.677 -0.135,-0.186 -0.313,-0.313 -0.532,-0.383 h 0.7 v -0.455 h -3.7 v 0.455 h 1.655 c -0.22,0.07 -0.397,0.197 -0.532,0.383 -0.136,0.185 -0.203,0.41 -0.203,0.677 0,0.243 0.056,0.459 0.17,0.65"
         style="fill:#111fdd;fill-opacity:1;fill-rule:nonzero;stroke:none"
         id="path5562"
         inkscape:connector-curvature="0" /><path
         d="m 337.9297,224.1299 c 0.074,-0.139 0.186,-0.25 0.338,-0.335 0.151,-0.086 0.339,-0.128 0.562,-0.128 0.22,0 0.407,0.042 0.558,0.128 0.151,0.085 0.264,0.196 0.337,0.335 0.074,0.138 0.11,0.289 0.11,0.452 0,0.164 -0.036,0.315 -0.11,0.453 -0.073,0.138 -0.186,0.25 -0.337,0.334 -0.151,0.086 -0.338,0.128 -0.558,0.128 -0.223,0 -0.411,-0.042 -0.562,-0.128 -0.152,-0.084 -0.264,-0.196 -0.338,-0.334 -0.073,-0.138 -0.109,-0.289 -0.109,-0.453 0,-0.163 0.036,-0.314 0.109,-0.452 m -0.34,1.159 c 0.113,0.209 0.278,0.372 0.49,0.49 0.213,0.12 0.463,0.178 0.75,0.178 0.287,0 0.536,-0.058 0.747,-0.178 0.212,-0.118 0.374,-0.281 0.488,-0.49 0.113,-0.207 0.17,-0.443 0.17,-0.707 0,-0.264 -0.057,-0.499 -0.17,-0.707 -0.114,-0.209 -0.276,-0.373 -0.488,-0.492 -0.211,-0.121 -0.46,-0.181 -0.747,-0.181 -0.287,0 -0.537,0.06 -0.75,0.181 -0.212,0.119 -0.377,0.283 -0.49,0.492 -0.113,0.208 -0.17,0.443 -0.17,0.707 0,0.264 0.057,0.5 0.17,0.707"
         style="fill:#111fdd;fill-opacity:1;fill-rule:nonzero;stroke:none"
         id="path5566"
         inkscape:connector-curvature="0" /><path
         d="m 339.7148,227.6172 -2.26,0.85 v 0.49 l 2.745,-1.075 v -0.54 l -2.745,-1.075 v 0.49 z"
         style="fill:#111fdd;fill-opacity:1;fill-rule:nonzero;stroke:none"
         id="path5570"
         inkscape:connector-curvature="0" /><path
         d="m 338.1953,231.3672 c -0.137,-0.076 -0.238,-0.182 -0.306,-0.314 -0.066,-0.134 -0.099,-0.28 -0.099,-0.436 0,-0.25 0.077,-0.46 0.232,-0.63 0.155,-0.171 0.383,-0.262 0.683,-0.275 v 1.755 c -0.203,0.009 -0.373,-0.024 -0.51,-0.1 m 0.729,0.54 v -2.195 c 0.314,0.01 0.549,0.098 0.706,0.267 0.157,0.169 0.235,0.374 0.235,0.618 0,0.219 -0.057,0.405 -0.168,0.552 -0.111,0.149 -0.261,0.239 -0.447,0.273 v 0.485 c 0.189,-0.034 0.359,-0.107 0.509,-0.223 0.151,-0.114 0.267,-0.264 0.35,-0.447 0.084,-0.183 0.125,-0.39 0.125,-0.62 0,-0.264 -0.057,-0.496 -0.17,-0.7 -0.113,-0.203 -0.275,-0.362 -0.487,-0.478 -0.212,-0.115 -0.46,-0.172 -0.747,-0.172 -0.287,0 -0.537,0.057 -0.75,0.172 -0.213,0.116 -0.377,0.275 -0.49,0.478 -0.114,0.204 -0.17,0.436 -0.17,0.7 0,0.267 0.056,0.499 0.17,0.697 0.113,0.199 0.265,0.35 0.455,0.455 0.189,0.106 0.4,0.159 0.629,0.159 0.097,0 0.181,-0.008 0.25,-0.021"
         style="fill:#111fdd;fill-opacity:1;fill-rule:nonzero;stroke:none"
         id="path5574"
         inkscape:connector-curvature="0" /><path
         d="m 337.5674,234.6074 c -0.104,0.173 -0.157,0.38 -0.157,0.619 h 0.495 v -0.14 c 0,-0.256 0.065,-0.465 0.197,-0.629 0.132,-0.163 0.349,-0.246 0.652,-0.246 h 1.446 v -0.454 h -2.745 v 0.454 h 0.554 c -0.189,0.091 -0.338,0.222 -0.442,0.396"
         style="fill:#111fdd;fill-opacity:1;fill-rule:nonzero;stroke:none"
         id="path5578"
         inkscape:connector-curvature="0" /><path
         d="m 338.1953,237.6426 c -0.137,-0.077 -0.238,-0.182 -0.306,-0.315 -0.066,-0.134 -0.099,-0.279 -0.099,-0.435 0,-0.25 0.077,-0.461 0.232,-0.631 0.155,-0.17 0.383,-0.262 0.683,-0.275 v 1.756 c -0.203,0.009 -0.373,-0.024 -0.51,-0.1 m 0.729,0.539 v -2.195 c 0.314,0.01 0.549,0.099 0.706,0.267 0.157,0.169 0.235,0.375 0.235,0.618 0,0.22 -0.057,0.405 -0.168,0.552 -0.111,0.149 -0.261,0.24 -0.447,0.274 v 0.484 c 0.189,-0.033 0.359,-0.107 0.509,-0.223 0.151,-0.114 0.267,-0.263 0.35,-0.447 0.084,-0.183 0.125,-0.39 0.125,-0.619 0,-0.264 -0.057,-0.497 -0.17,-0.701 -0.113,-0.203 -0.275,-0.361 -0.487,-0.477 -0.212,-0.115 -0.46,-0.173 -0.747,-0.173 -0.287,0 -0.537,0.058 -0.75,0.173 -0.213,0.116 -0.377,0.274 -0.49,0.477 -0.114,0.204 -0.17,0.437 -0.17,0.701 0,0.266 0.056,0.498 0.17,0.697 0.113,0.198 0.265,0.35 0.455,0.455 0.189,0.105 0.4,0.158 0.629,0.158 0.097,0 0.181,-0.007 0.25,-0.021"
         style="fill:#111fdd;fill-opacity:1;fill-rule:nonzero;stroke:none"
         id="path5582"
         inkscape:connector-curvature="0" /><path
         d="m 338.0928,239.3789 c 0.178,-0.168 0.424,-0.252 0.737,-0.252 0.314,0 0.559,0.084 0.738,0.252 0.178,0.169 0.267,0.393 0.267,0.674 0,0.18 -0.042,0.34 -0.125,0.482 -0.083,0.141 -0.2,0.252 -0.352,0.332 -0.152,0.08 -0.328,0.12 -0.528,0.12 -0.2,0 -0.377,-0.04 -0.53,-0.12 -0.153,-0.08 -0.27,-0.191 -0.353,-0.332 -0.082,-0.142 -0.122,-0.302 -0.122,-0.482 0,-0.281 0.089,-0.505 0.268,-0.674 m -0.473,1.221 c 0.134,0.185 0.312,0.314 0.535,0.387 h -1.655 v 0.455 h 3.7 v -0.455 h -0.7 c 0.224,-0.073 0.402,-0.202 0.535,-0.387 0.133,-0.186 0.2,-0.41 0.2,-0.678 0,-0.243 -0.057,-0.46 -0.17,-0.65 -0.114,-0.19 -0.276,-0.338 -0.488,-0.448 -0.212,-0.107 -0.46,-0.162 -0.747,-0.162 -0.287,0 -0.537,0.055 -0.75,0.162 -0.213,0.11 -0.377,0.258 -0.49,0.448 -0.113,0.19 -0.17,0.407 -0.17,0.65 0,0.268 0.067,0.492 0.2,0.678"
         style="fill:#111fdd;fill-opacity:1;fill-rule:nonzero;stroke:none"
         id="path5586"
         inkscape:connector-curvature="0" /><path
         inkscape:connector-curvature="0"
         id="path5588"
         style="fill:#111fdd;fill-opacity:1;fill-rule:nonzero;stroke:none"
         d="m 336.5,243.857 h 3.7 v -0.455 h -3.7 z" /><path
         inkscape:connector-curvature="0"
         id="path5590"
         style="fill:#111fdd;fill-opacity:1;fill-rule:nonzero;stroke:none"
         d="m 337.455,245.042 h 2.745 v -0.454 h -2.745 z m -1.008,-0.45 c -0.051,0.056 -0.077,0.132 -0.077,0.225 0,0.093 0.026,0.168 0.077,0.225 0.052,0.057 0.119,0.085 0.203,0.085 0.083,0 0.151,-0.028 0.203,-0.085 0.051,-0.057 0.077,-0.132 0.077,-0.225 0,-0.093 -0.026,-0.169 -0.077,-0.225 -0.052,-0.057 -0.12,-0.084 -0.203,-0.084 -0.084,0 -0.151,0.027 -0.203,0.084" /><path
         d="m 337.7178,247.9922 c 0.204,0.197 0.501,0.295 0.888,0.295 h 1.594 v -0.455 h -1.555 c -0.274,0 -0.483,-0.07 -0.63,-0.21 -0.147,-0.14 -0.22,-0.33 -0.22,-0.569 0,-0.25 0.081,-0.452 0.242,-0.601 0.162,-0.149 0.399,-0.226 0.708,-0.226 h 1.455 v -0.454 h -2.745 v 0.454 h 0.651 c -0.224,0.071 -0.396,0.196 -0.516,0.373 -0.12,0.178 -0.18,0.385 -0.18,0.618 0,0.32 0.103,0.578 0.308,0.775"
         style="fill:#111fdd;fill-opacity:1;fill-rule:nonzero;stroke:none"
         id="path5594"
         inkscape:connector-curvature="0" /><path
         d="m 338.1953,250.9521 c -0.137,-0.077 -0.238,-0.182 -0.306,-0.315 -0.066,-0.133 -0.099,-0.278 -0.099,-0.435 0,-0.25 0.077,-0.46 0.232,-0.63 0.155,-0.17 0.383,-0.262 0.683,-0.275 v 1.756 c -0.203,0.009 -0.373,-0.024 -0.51,-0.101 m 0.729,0.54 v -2.195 c 0.314,0.009 0.549,0.099 0.706,0.267 0.157,0.168 0.235,0.374 0.235,0.617 0,0.221 -0.057,0.405 -0.168,0.553 -0.111,0.149 -0.261,0.239 -0.447,0.273 v 0.485 c 0.189,-0.033 0.359,-0.107 0.509,-0.223 0.151,-0.115 0.267,-0.263 0.35,-0.447 0.084,-0.183 0.125,-0.391 0.125,-0.62 0,-0.264 -0.057,-0.497 -0.17,-0.7 -0.113,-0.203 -0.275,-0.362 -0.487,-0.478 -0.212,-0.114 -0.46,-0.173 -0.747,-0.173 -0.287,0 -0.537,0.059 -0.75,0.173 -0.213,0.116 -0.377,0.275 -0.49,0.478 -0.114,0.203 -0.17,0.436 -0.17,0.7 0,0.267 0.056,0.499 0.17,0.697 0.113,0.199 0.265,0.351 0.455,0.455 0.189,0.105 0.4,0.158 0.629,0.158 0.097,0 0.181,-0.006 0.25,-0.02"
         style="fill:#111fdd;fill-opacity:1;fill-rule:nonzero;stroke:none"
         id="path5598"
         inkscape:connector-curvature="0" /></g></g></svg>