<?xml version="1.0" encoding="UTF-8" standalone="no"?>
<svg
   xmlns:dc="http://purl.org/dc/elements/1.1/"
   xmlns:cc="http://creativecommons.org/ns#"
   xmlns:rdf="http://www.w3.org/1999/02/22-rdf-syntax-ns#"
   xmlns:svg="http://www.w3.org/2000/svg"
   xmlns="http://www.w3.org/2000/svg"
   xmlns:sodipodi="http://sodipodi.sourceforge.net/DTD/sodipodi-0.dtd"
   xmlns:inkscape="http://www.inkscape.org/namespaces/inkscape"
   width="750.00pt"
   height="750.00pt"
   version="1.1"
   viewBox="0 0 750.00 750.00"
   xml:space="preserve"
   style="fill-rule:evenodd;clip-rule:evenodd;stroke-linecap:round;stroke-linejoin:round;stroke-miterlimit:1.5;"
   id="svg269"
   sodipodi:docname="gooodbox.svg"
   inkscape:version="0.92.2 5c3e80d, 2017-08-06"><metadata
     id="metadata275"><rdf:RDF><cc:Work
         rdf:about=""><dc:format>image/svg+xml</dc:format><dc:type
           rdf:resource="http://purl.org/dc/dcmitype/StillImage" /></cc:Work></rdf:RDF></metadata><defs
     id="defs273" /><sodipodi:namedview
     pagecolor="#ffffff"
     bordercolor="#666666"
     borderopacity="1"
     objecttolerance="10"
     gridtolerance="10"
     guidetolerance="10"
     inkscape:pageopacity="0"
     inkscape:pageshadow="2"
     inkscape:window-width="1440"
     inkscape:window-height="810"
     id="namedview271"
     showgrid="false"
     inkscape:zoom="1.194"
     inkscape:cx="500.9577"
     inkscape:cy="801.00362"
     inkscape:window-x="0"
     inkscape:window-y="1"
     inkscape:window-maximized="1"
     inkscape:current-layer="layer5" /><path
     style="fill:#ffcfd9 ;stroke:#ff0000;stroke-width:0.75px;stroke-linecap:butt;stroke-linejoin:miter;stroke-opacity:1"
     d="M 35.075403,35.500069         h 51.419828         h 17.01        v 15.827727         l 5.079998,-5.08         h 5.667727         l 10.160004,10.16         V 80.84043700000001        L 114.25295600000001,91.000434        h -5.667727         l -5.079998,-5.079997         v 39.080373 v 11.34         l -5.079998,5.08         h -41.25983         h -17.01        l -5.08,-5.08         V 85.920437         l -5.079999,5.079997         h -5.667728         l -10.16,-10.159997         V 56.407796         l 10.16,-10.16         h 5.667728         l 5.079999,5.08 z"
     id="path3702" /><path
     id="path126"
     d="M 20.317748,52.384656 h 81.419828 h 17.01 V 80.84043700000001 v 5 h -68.429828 h -30 L 20.317748,52.384656"
     style="fill:none;stroke:#000000;stroke-width:0.26458332px;stroke-linecap:butt;stroke-linejoin:miter;stroke-dasharray:2, 1;stroke-opacity:1" /><path
     id="path265"
     d="M 35.317748,101.668164 h 51.419828 h 17.01"
     style="fill:none;stroke:#000000;stroke-width:0.26458332px;stroke-linecap:butt;stroke-linejoin:miter;stroke-dasharray:2, 1;stroke-opacity:1" /><path
     id="path267"
     d="M 35.317748,135.68 h 51.419828 h 17.01"
     style="fill:none;stroke:#000000;stroke-width:0.26458332px;stroke-linecap:butt;stroke-linejoin:miter;stroke-dasharray:2, 1;stroke-opacity:1" /><g
     inkscape:groupmode="layer"
     id="layer1"
     inkscape:label="Layer 1"><g
       inkscape:label="Layer 3"
       id="layer3"
       transform="matrix(1.3270021,0,0,1.3270021,165.30799,16.007543)"><path
         style="fill:none;fill-opacity:1;fill-rule:nonzero;stroke:#ff1212;stroke-width:0.30000001;stroke-miterlimit:4;stroke-dasharray:none;stroke-opacity:1"
         d="m 41.935218,57.166433 c -2.010834,0 -3.646664,-1.635831 -3.646664,-3.646665 0,-2.010833 1.63583,-3.646665 3.646664,-3.646665 2.010833,0 3.646663,1.635832 3.646663,3.646665 0,2.010834 -1.63583,3.646665 -3.646663,3.646665"
         id="path1822"
         inkscape:connector-curvature="0" /><path
         sodipodi:nodetypes="ccccccccccccccccccccccccccccccccccc"
         inkscape:connector-curvature="0"
         id="path856"
         d="m 57.081512,11.717155 51.755258,-0.0093 v 30.355769 l 6.15259,-6.152594 h 17.97513 l 6.29833,6.298321 6.29832,-6.298321 h 38.90098 l 12.77131,12.771315 v 76.321775 l -12.77398,12.77398 h -38.90301 l -6.34476,-6.34476 h -9.92758 v -8.07029 h -10.53063 v 8.06876 h -9.72654 l 6.1557,6.1557 v 3.99768 h -6.41511 v 9.97872 c 0,0 6.42718,-0.0155 6.41821,0 -0.009,0.0155 0,3.99459 0,3.99459 l -6.42234,6.42235 H 57.172738 l -6.433717,-6.43372 v -17.97099 l 6.14536,-6.14536 H 26.521378 V 42.208307 l 6.423382,-6.298314 h 17.964793 l 6.171837,6.298314 c 0,-0.542681 8.1e-5,-20.327435 1.22e-4,-30.491152 z"
         style="fill:none;stroke:#ff1212;stroke-width:0.30000001;stroke-linecap:butt;stroke-linejoin:round;stroke-miterlimit:4;stroke-dasharray:none;stroke-opacity:1" /></g></g><g
     inkscape:groupmode="layer"
     id="layer2"
     inkscape:label="Layer 2"><g
       inkscape:label="Layer 3"
       id="layer3-8"
       transform="matrix(1.3268954,0,0,1.3268954,165.34596,16.001338)"><g
         id="g847"><path
           style="fill:none;stroke:#000000;stroke-width:0.2;stroke-linecap:butt;stroke-linejoin:miter;stroke-miterlimit:4;stroke-dasharray:1.6, 0.8;stroke-dashoffset:0;stroke-opacity:1"
           d="M 57.081512,131.42807 V 161.9938"
           id="path839"
           inkscape:connector-curvature="0"
           sodipodi:nodetypes="cc" /><rect
           style="opacity:1;fill:none;fill-opacity:1;stroke:#000000;stroke-width:0.2;stroke-miterlimit:4;stroke-dasharray:1.19999999, 0.4;stroke-dashoffset:0;stroke-opacity:1"
           id="rect827"
           width="51.64098"
           height="89.12719"
           x="139.2081"
           y="42.300884" /><rect
           style="opacity:1;fill:none;fill-opacity:1;stroke:#000000;stroke-width:0.2;stroke-miterlimit:4;stroke-dasharray:1.59999999, 0.8;stroke-dashoffset:0;stroke-opacity:1"
           id="rect829"
           width="51.944016"
           height="89.220879"
           x="57.081512"
           y="42.207195" /><path
           style="fill:none;stroke:#000000;stroke-width:0.2;stroke-linecap:butt;stroke-linejoin:miter;stroke-miterlimit:4;stroke-dasharray:1.6, 0.8;stroke-dashoffset:0;stroke-opacity:1"
           d="m 109.02553,131.42808 -0.2597,10.15361"
           id="path831"
           inkscape:connector-curvature="0" /><path
           style="fill:none;stroke:#000000;stroke-width:0.2;stroke-linecap:butt;stroke-linejoin:miter;stroke-miterlimit:4;stroke-dasharray:1.6, 0.8;stroke-dashoffset:0;stroke-opacity:1"
           d="m 108.76583,151.56636 -0.0599,10.42668"
           id="path833"
           inkscape:connector-curvature="0"
           sodipodi:nodetypes="cc" /><path
           style="fill:none;stroke:#000000;stroke-width:0.2;stroke-linecap:butt;stroke-linejoin:miter;stroke-miterlimit:4;stroke-dasharray:1.6, 0.8;stroke-dashoffset:0;stroke-opacity:1"
           d="m 109.02553,42.075473 30.23724,0.131926"
           id="path835"
           inkscape:connector-curvature="0" /><path
           style="fill:none;stroke:#000000;stroke-width:0.2;stroke-linecap:butt;stroke-linejoin:miter;stroke-miterlimit:4;stroke-dasharray:1.6, 0.8;stroke-dashoffset:0;stroke-opacity:1"
           d="M 57.111711,42.198256 H 26.52118"
           id="path837"
           inkscape:connector-curvature="0"
           sodipodi:nodetypes="cc" /></g></g></g><g
     inkscape:groupmode="layer"
     id="layer4"
     inkscape:label="Layer 3"><path
       style="fill:none;
       
       stroke-dasharray:2, 1;
       stroke:#000000;stroke-width:0.75px;stroke-linecap:butt;stroke-linejoin:miter;stroke-opacity:1"
       d="M 200.53679,71.99401 H 417.95696 V 190.1331 H 350.00009 V 71.985865"
       id="path459"
       /><path
       style="fill:none;
       
       stroke-dasharray:2, 1;
       stroke:#000000;stroke-width:0.75px;stroke-linecap:butt;stroke-linejoin:miter;stroke-opacity:1"
       d="M 241.05511,72.018055 V 190.35518 h 68.74827 V 71.763784"
       id="path461"
       /><path
       style="fill:none;
       
       stroke-dasharray:2, 1;
       stroke:#000000;stroke-width:0.75px;stroke-linecap:butt;stroke-linejoin:miter;stroke-opacity:1"
       d="m 240.79368,190.41647 v 40.35751"
       id="path463"
       /><path
       style="fill:none;

       stroke-dasharray:2, 1;
       stroke:#000000;stroke-width:0.75px;stroke-linecap:butt;stroke-linejoin:miter;stroke-opacity:1"
       d="m 309.80338,190.35518 v 13.1028"
       id="path465"
       /><path
       style="fill:none;stroke:#000000;
       stroke-dasharray:2, 1;
       stroke-width:0.75px;stroke-linecap:butt;stroke-linejoin:miter;stroke-opacity:1"
       d="m 309.64272,217.13317 v 13.86288"
       id="path467"/></g><g
     inkscape:groupmode="layer"
     id="layer5"
     inkscape:label="Layer 4"><path
       style="fill:none;stroke:#000000;stroke-width:0.75px;stroke-linecap:butt;stroke-linejoin:miter;stroke-opacity:1"
       d="M 200.50192,72.018055 V 190.41647 h 40.29176 l -8.1549,8.1549 v 23.84754 l 8.1549,8.35507 h 68.67658 l 8.68944,-8.33998 v -5.54011 h -8.5784 v -13.21383 h 8.32805 v -5.10787 l -7.92239,-8.15436 h 12.90713 v -10.70726 h 13.97417 v 10.70929 h 13.17392 l 8.41951,8.41951 v 0 h 51.62438 l 16.9511,-16.9511 V 80.609115 L 410.08961,63.661556 h -51.62168 l -8.46784,8.324309 -8.24794,-8.324309 h -23.85304 l -8.09573,8.102228 V 31.567073 h -68.84519 v 40.307751 l -8.09312,-8.214645 h -23.83931 z"
       id="path470"
       /></g></svg>