<?xml version="1.0" encoding="UTF-8" standalone="no"?>
<!-- Created with Inkscape (http://www.inkscape.org/) -->

<svg
   xmlns:dc="http://purl.org/dc/elements/1.1/"
   xmlns:cc="http://creativecommons.org/ns#"
   xmlns:rdf="http://www.w3.org/1999/02/22-rdf-syntax-ns#"
   xmlns:svg="http://www.w3.org/2000/svg"
   xmlns="http://www.w3.org/2000/svg"
   xmlns:sodipodi="http://sodipodi.sourceforge.net/DTD/sodipodi-0.dtd"
   xmlns:inkscape="http://www.inkscape.org/namespaces/inkscape"
   width="210mm"
   height="297mm"
   viewBox="0 0 210 297"
   version="1.1"
   id="svg2580"
   inkscape:version="0.92.4 (5da689c313, 2019-01-14)"
   sodipodi:docname="2-stretch1.svg">
  <defs
     id="defs2574">
    <clipPath
       id="clipPath2600"
       clipPathUnits="userSpaceOnUse">
      <path
         inkscape:connector-curvature="0"
         id="path2598"
         d="M 0,0 H 612 V 792 H 0 Z" />
    </clipPath>
    <clipPath
       id="clipPath2606"
       clipPathUnits="userSpaceOnUse">
      <path
         inkscape:connector-curvature="0"
         id="path2604"
         d="M 23,38 H 589 V 754 H 23 Z" />
    </clipPath>
    <clipPath
       id="clipPath2610"
       clipPathUnits="userSpaceOnUse">
      <path
         inkscape:connector-curvature="0"
         id="path2608"
         d="M 0,0 H 612 V 792 H 0 Z" />
    </clipPath>
    <clipPath
       id="clipPath2614"
       clipPathUnits="userSpaceOnUse">
      <path
         inkscape:connector-curvature="0"
         id="path2612"
         d="m 310,505 h 38 v 80 h -38 z" />
    </clipPath>
    <clipPath
       id="clipPath2618"
       clipPathUnits="userSpaceOnUse">
      <path
         inkscape:connector-curvature="0"
         id="path2616"
         d="m 310.291,505.021 h 36.991 v 79.121 h -36.991 z" />
    </clipPath>
    <clipPath
       id="clipPath2622"
       clipPathUnits="userSpaceOnUse">
      <path
         inkscape:connector-curvature="0"
         id="path2620"
         d="M 0,0 H 612 V 792 H 0 Z" />
    </clipPath>
    <clipPath
       id="clipPath2626"
       clipPathUnits="userSpaceOnUse">
      <path
         inkscape:connector-curvature="0"
         id="path2624"
         d="m 23,452 h 154 v 20 H 23 Z" />
    </clipPath>
    <clipPath
       id="clipPath2630"
       clipPathUnits="userSpaceOnUse">
      <path
         inkscape:connector-curvature="0"
         id="path2628"
         d="M 23.0351,452.465 H 176.557 v 18.874 H 23.0351 Z" />
    </clipPath>
    <clipPath
       id="clipPath2634"
       clipPathUnits="userSpaceOnUse">
      <path
         inkscape:connector-curvature="0"
         id="path2632"
         d="M 0,0 H 612 V 792 H 0 Z" />
    </clipPath>
    <clipPath
       id="clipPath2638"
       clipPathUnits="userSpaceOnUse">
      <path
         inkscape:connector-curvature="0"
         id="path2636"
         d="m 23,565 h 154 v 19 H 23 Z" />
    </clipPath>
    <clipPath
       id="clipPath2642"
       clipPathUnits="userSpaceOnUse">
      <path
         inkscape:connector-curvature="0"
         id="path2640"
         d="M 23.0351,565.102 H 176.557 v 18.874 H 23.0351 Z" />
    </clipPath>
    <clipPath
       id="clipPath2646"
       clipPathUnits="userSpaceOnUse">
      <path
         inkscape:connector-curvature="0"
         id="path2644"
         d="M 0,0 H 612 V 792 H 0 Z" />
    </clipPath>
    <clipPath
       id="clipPath2650"
       clipPathUnits="userSpaceOnUse">
      <path
         inkscape:connector-curvature="0"
         id="path2648"
         d="m 310,582 h 38 v 97 h -38 z" />
    </clipPath>
    <clipPath
       id="clipPath2654"
       clipPathUnits="userSpaceOnUse">
      <path
         inkscape:connector-curvature="0"
         id="path2652"
         d="m 310.292,582.976 h 36.989 v 95.292 h -36.989 z" />
    </clipPath>
    <clipPath
       id="clipPath2658"
       clipPathUnits="userSpaceOnUse">
      <path
         inkscape:connector-curvature="0"
         id="path2656"
         d="M 0,0 H 612 V 792 H 0 Z" />
    </clipPath>
    <clipPath
       id="clipPath2662"
       clipPathUnits="userSpaceOnUse">
      <path
         inkscape:connector-curvature="0"
         id="path2660"
         d="m 436,484 h 147 v 68 H 436 Z" />
    </clipPath>
    <clipPath
       id="clipPath2666"
       clipPathUnits="userSpaceOnUse">
      <path
         inkscape:connector-curvature="0"
         id="path2664"
         d="m 436.058,484.843 h 146.757 v 66.913 H 436.058 Z" />
    </clipPath>
    <clipPath
       id="clipPath2670"
       clipPathUnits="userSpaceOnUse">
      <path
         inkscape:connector-curvature="0"
         id="path2668"
         d="M 0,0 H 612 V 792 H 0 Z" />
    </clipPath>
    <clipPath
       id="clipPath2674"
       clipPathUnits="userSpaceOnUse">
      <path
         inkscape:connector-curvature="0"
         id="path2672"
         d="m 425,231 h 8 v 12 h -8 z" />
    </clipPath>
    <clipPath
       id="clipPath2678"
       clipPathUnits="userSpaceOnUse">
      <path
         inkscape:connector-curvature="0"
         id="path2676"
         d="m 425.662,231.056 h 6.896 v 10.956 h -6.896 z" />
    </clipPath>
    <clipPath
       id="clipPath2682"
       clipPathUnits="userSpaceOnUse">
      <path
         inkscape:connector-curvature="0"
         id="path2680"
         d="M 0,0 H 612 V 792 H 0 Z" />
    </clipPath>
    <clipPath
       id="clipPath2686"
       clipPathUnits="userSpaceOnUse">
      <path
         inkscape:connector-curvature="0"
         id="path2684"
         d="m 295,175 h 12 v 8 h -12 z" />
    </clipPath>
    <clipPath
       id="clipPath2690"
       clipPathUnits="userSpaceOnUse">
      <path
         inkscape:connector-curvature="0"
         id="path2688"
         d="m 295.517,175.245 h 10.955 v 6.896 h -10.955 z" />
    </clipPath>
    <clipPath
       id="clipPath2694"
       clipPathUnits="userSpaceOnUse">
      <path
         inkscape:connector-curvature="0"
         id="path2692"
         d="M 0,0 H 612 V 792 H 0 Z" />
    </clipPath>
    <clipPath
       id="clipPath2698"
       clipPathUnits="userSpaceOnUse">
      <path
         inkscape:connector-curvature="0"
         id="path2696"
         d="m 94,459 h 12 v 8 H 94 Z" />
    </clipPath>
    <clipPath
       id="clipPath2702"
       clipPathUnits="userSpaceOnUse">
      <path
         inkscape:connector-curvature="0"
         id="path2700"
         d="m 94.3185,459.167 h 10.9555 v 6.895 H 94.3185 Z" />
    </clipPath>
    <clipPath
       id="clipPath2706"
       clipPathUnits="userSpaceOnUse">
      <path
         inkscape:connector-curvature="0"
         id="path2704"
         d="M 0,0 H 612 V 792 H 0 Z" />
    </clipPath>
    <clipPath
       id="clipPath2710"
       clipPathUnits="userSpaceOnUse">
      <path
         inkscape:connector-curvature="0"
         id="path2708"
         d="m 425,371 h 8 v 12 h -8 z" />
    </clipPath>
    <clipPath
       id="clipPath2714"
       clipPathUnits="userSpaceOnUse">
      <path
         inkscape:connector-curvature="0"
         id="path2712"
         d="m 425.662,371.9 h 6.896 v 10.955 h -6.896 z" />
    </clipPath>
    <clipPath
       id="clipPath2718"
       clipPathUnits="userSpaceOnUse">
      <path
         inkscape:connector-curvature="0"
         id="path2716"
         d="M 0,0 H 612 V 792 H 0 Z" />
    </clipPath>
    <clipPath
       id="clipPath2722"
       clipPathUnits="userSpaceOnUse">
      <path
         inkscape:connector-curvature="0"
         id="path2720"
         d="m 425,653 h 8 v 12 h -8 z" />
    </clipPath>
    <clipPath
       id="clipPath2726"
       clipPathUnits="userSpaceOnUse">
      <path
         inkscape:connector-curvature="0"
         id="path2724"
         d="m 425.662,653.552 h 6.896 v 10.955 h -6.896 z" />
    </clipPath>
    <clipPath
       id="clipPath2730"
       clipPathUnits="userSpaceOnUse">
      <path
         inkscape:connector-curvature="0"
         id="path2728"
         d="M 0,0 H 612 V 792 H 0 Z" />
    </clipPath>
    <clipPath
       id="clipPath2734"
       clipPathUnits="userSpaceOnUse">
      <path
         inkscape:connector-curvature="0"
         id="path2732"
         d="m 179,231 h 8 v 12 h -8 z" />
    </clipPath>
    <clipPath
       id="clipPath2738"
       clipPathUnits="userSpaceOnUse">
      <path
         inkscape:connector-curvature="0"
         id="path2736"
         d="m 179.432,231.056 h 6.895 v 10.956 h -6.895 z" />
    </clipPath>
    <clipPath
       id="clipPath2742"
       clipPathUnits="userSpaceOnUse">
      <path
         inkscape:connector-curvature="0"
         id="path2740"
         d="M 0,0 H 612 V 792 H 0 Z" />
    </clipPath>
    <clipPath
       id="clipPath2746"
       clipPathUnits="userSpaceOnUse">
      <path
         inkscape:connector-curvature="0"
         id="path2744"
         d="m 179,371 h 8 v 12 h -8 z" />
    </clipPath>
    <clipPath
       id="clipPath2750"
       clipPathUnits="userSpaceOnUse">
      <path
         inkscape:connector-curvature="0"
         id="path2748"
         d="m 179.432,371.9 h 6.895 v 10.955 h -6.895 z" />
    </clipPath>
    <clipPath
       id="clipPath2754"
       clipPathUnits="userSpaceOnUse">
      <path
         inkscape:connector-curvature="0"
         id="path2752"
         d="M 0,0 H 612 V 792 H 0 Z" />
    </clipPath>
    <clipPath
       id="clipPath2758"
       clipPathUnits="userSpaceOnUse">
      <path
         inkscape:connector-curvature="0"
         id="path2756"
         d="m 179,653 h 8 v 12 h -8 z" />
    </clipPath>
    <clipPath
       id="clipPath2762"
       clipPathUnits="userSpaceOnUse">
      <path
         inkscape:connector-curvature="0"
         id="path2760"
         d="m 179.432,653.552 h 6.895 v 10.955 h -6.895 z" />
    </clipPath>
    <clipPath
       id="clipPath2766"
       clipPathUnits="userSpaceOnUse">
      <path
         inkscape:connector-curvature="0"
         id="path2764"
         d="M 0,0 H 612 V 792 H 0 Z" />
    </clipPath>
    <clipPath
       id="clipPath2770"
       clipPathUnits="userSpaceOnUse">
      <path
         inkscape:connector-curvature="0"
         id="path2768"
         d="m 300,723 h 12 v 8 h -12 z" />
    </clipPath>
    <clipPath
       id="clipPath2774"
       clipPathUnits="userSpaceOnUse">
      <path
         inkscape:connector-curvature="0"
         id="path2772"
         d="m 300.522,723.688 h 10.956 v 6.896 h -10.956 z" />
    </clipPath>
    <clipPath
       id="clipPath2778"
       clipPathUnits="userSpaceOnUse">
      <path
         inkscape:connector-curvature="0"
         id="path2776"
         d="M 0,0 H 612 V 792 H 0 Z" />
    </clipPath>
    <clipPath
       id="clipPath2782"
       clipPathUnits="userSpaceOnUse">
      <path
         inkscape:connector-curvature="0"
         id="path2780"
         d="m 94,570 h 12 v 8 H 94 Z" />
    </clipPath>
    <clipPath
       id="clipPath2786"
       clipPathUnits="userSpaceOnUse">
      <path
         inkscape:connector-curvature="0"
         id="path2784"
         d="m 94.3185,570.379 h 10.9555 v 6.895 H 94.3185 Z" />
    </clipPath>
    <clipPath
       id="clipPath2790"
       clipPathUnits="userSpaceOnUse">
      <path
         inkscape:connector-curvature="0"
         id="path2788"
         d="M 0,0 H 612 V 792 H 0 Z" />
    </clipPath>
    <clipPath
       id="clipPath2794"
       clipPathUnits="userSpaceOnUse">
      <path
         inkscape:connector-curvature="0"
         id="path2792"
         d="m 435,565 h 154 v 19 H 435 Z" />
    </clipPath>
    <clipPath
       id="clipPath2798"
       clipPathUnits="userSpaceOnUse">
      <path
         inkscape:connector-curvature="0"
         id="path2796"
         d="m 435.351,565.102 h 153.522 v 18.874 H 435.351 Z" />
    </clipPath>
    <clipPath
       id="clipPath2802"
       clipPathUnits="userSpaceOnUse">
      <path
         inkscape:connector-curvature="0"
         id="path2800"
         d="M 0,0 H 612 V 792 H 0 Z" />
    </clipPath>
    <clipPath
       id="clipPath2806"
       clipPathUnits="userSpaceOnUse">
      <path
         inkscape:connector-curvature="0"
         id="path2804"
         d="m 435,452 h 154 v 20 H 435 Z" />
    </clipPath>
    <clipPath
       id="clipPath2810"
       clipPathUnits="userSpaceOnUse">
      <path
         inkscape:connector-curvature="0"
         id="path2808"
         d="m 435.351,452.465 h 153.522 v 18.874 H 435.351 Z" />
    </clipPath>
    <clipPath
       id="clipPath2814"
       clipPathUnits="userSpaceOnUse">
      <path
         inkscape:connector-curvature="0"
         id="path2812"
         d="M 0,0 H 612 V 792 H 0 Z" />
    </clipPath>
    <clipPath
       id="clipPath2818"
       clipPathUnits="userSpaceOnUse">
      <path
         inkscape:connector-curvature="0"
         id="path2816"
         d="m 506,459 h 12 v 8 h -12 z" />
    </clipPath>
    <clipPath
       id="clipPath2822"
       clipPathUnits="userSpaceOnUse">
      <path
         inkscape:connector-curvature="0"
         id="path2820"
         d="m 506.634,459.167 h 10.956 v 6.896 h -10.956 z" />
    </clipPath>
    <clipPath
       id="clipPath2826"
       clipPathUnits="userSpaceOnUse">
      <path
         inkscape:connector-curvature="0"
         id="path2824"
         d="M 0,0 H 612 V 792 H 0 Z" />
    </clipPath>
    <clipPath
       id="clipPath2830"
       clipPathUnits="userSpaceOnUse">
      <path
         inkscape:connector-curvature="0"
         id="path2828"
         d="m 506,570 h 12 v 8 h -12 z" />
    </clipPath>
    <clipPath
       id="clipPath2834"
       clipPathUnits="userSpaceOnUse">
      <path
         inkscape:connector-curvature="0"
         id="path2832"
         d="m 506.634,570.379 h 10.956 v 6.895 h -10.956 z" />
    </clipPath>
  </defs>
  <sodipodi:namedview
     id="base"
     pagecolor="#ffffff"
     bordercolor="#666666"
     borderopacity="1.0"
     inkscape:pageopacity="0.0"
     inkscape:pageshadow="2"
     inkscape:zoom="0.98994949"
     inkscape:cx="395.26485"
     inkscape:cy="823.35689"
     inkscape:document-units="mm"
     inkscape:current-layer="layer1"
     showgrid="false"
     inkscape:window-width="2490"
     inkscape:window-height="1376"
     inkscape:window-x="70"
     inkscape:window-y="27"
     inkscape:window-maximized="1" />
  <metadata
     id="metadata2577">
    <rdf:RDF>
      <cc:Work
         rdf:about="">
        <dc:format>image/svg+xml</dc:format>
        <dc:type
           rdf:resource="http://purl.org/dc/dcmitype/StillImage" />
        <dc:title></dc:title>
      </cc:Work>
    </rdf:RDF>
  </metadata>
  <g
     inkscape:label="Layer 1"
     inkscape:groupmode="layer"
     id="layer1">
    <path
       d="m 107.5397,110.19662 h 12.69683 V 82.636914 H 107.5397 Z"
       style="fill:#110f0d;fill-opacity:0.24423963;fill-rule:nonzero;stroke:none;stroke-width:0.35277778;stroke-linecap:butt;stroke-linejoin:miter;stroke-miterlimit:10;stroke-dasharray:none;stroke-opacity:1"
       id="path2842"
       inkscape:connector-curvature="0" />
    <path
       inkscape:connector-curvature="0"
       id="path2852"
       style="fill:none;stroke:#11100e;stroke-width:0.26458332;stroke-linecap:round;stroke-linejoin:round;stroke-miterlimit:4;stroke-dasharray:none;stroke-opacity:1"
       d="m 119.00431,245.67309 v 0.25541 5.08 h -5.08 -0.25541 c -2.37984,2.38019 -3.7144,3.7144 -6.09459,6.09459 2.38019,2.38019 3.71475,3.71475 6.09459,6.09494 h 0.25541 5.08 v 5.08 0.25541 c 2.38019,2.37984 3.7144,3.7144 6.09459,6.09459 h 3.68582 c 2.38019,-2.38019 3.7144,-3.71475 6.09459,-6.09459 v -0.25541 -5.08 h 5.07965 0.25541 c 2.38019,-2.38019 3.71475,-3.71475 6.09459,-6.09494 -2.37984,-2.38019 -3.7144,-3.7144 -6.09459,-6.09459 h -0.25541 -5.07965 v -5.08 -0.25541 c -2.38019,-2.37984 -3.7144,-3.7144 -6.09459,-6.09459 h -3.68582 c -2.38019,2.38019 -3.7144,3.71475 -6.09459,6.09459 z" />
    <path
       inkscape:connector-curvature="0"
       id="path2856"
       style="fill:none;stroke:#110f0d;stroke-width:0.08819444;stroke-linecap:round;stroke-linejoin:round;stroke-miterlimit:4;stroke-dasharray:1.41111108, 0.70555554;stroke-dashoffset:0;stroke-opacity:1"
       d="m 119.00431,268.53337 h 15.875" />
    <path
       inkscape:connector-curvature="0"
       id="path2860"
       style="fill:none;stroke:#110f0d;stroke-width:0.08819444;stroke-linecap:round;stroke-linejoin:round;stroke-miterlimit:4;stroke-dasharray:1.41111108, 0.70555554;stroke-dashoffset:0;stroke-opacity:1"
       d="m 119.00431,263.19796 h 15.875" />
    <path
       inkscape:connector-curvature="0"
       id="path2864"
       style="fill:none;stroke:#110f0d;stroke-width:0.08819444;stroke-linecap:round;stroke-linejoin:round;stroke-miterlimit:4;stroke-dasharray:1.41111108, 0.70555554;stroke-dashoffset:0;stroke-opacity:1"
       d="m 119.00431,245.67309 h 15.875" />
    <path
       inkscape:connector-curvature="0"
       id="path2868"
       style="fill:none;stroke:#110f0d;stroke-width:0.08819444;stroke-linecap:round;stroke-linejoin:round;stroke-miterlimit:4;stroke-dasharray:1.41111108, 0.70555554;stroke-dashoffset:0;stroke-opacity:1"
       d="m 119.00431,251.00854 h 15.875" />
    <path
       inkscape:connector-curvature="0"
       id="path2872"
       style="fill:none;stroke:#110f0d;stroke-width:0.08819444;stroke-linecap:round;stroke-linejoin:round;stroke-miterlimit:4;stroke-dasharray:1.41111108, 0.70555554;stroke-dashoffset:0;stroke-opacity:1"
       d="M 134.87931,263.19796 V 251.00843" />
    <path
       inkscape:connector-curvature="0"
       id="path2876"
       style="fill:none;stroke:#110f0d;stroke-width:0.08819444;stroke-linecap:round;stroke-linejoin:round;stroke-miterlimit:4;stroke-dasharray:1.41111108, 0.70555554;stroke-dashoffset:0;stroke-opacity:1"
       d="M 119.00431,263.19796 V 251.00843" />
    <path
       inkscape:connector-curvature="0"
       id="path2880"
       style="fill:none;stroke:#110f0d;stroke-width:0.08819444;stroke-linecap:round;stroke-linejoin:round;stroke-miterlimit:4;stroke-dasharray:1.41111108, 0.70555554;stroke-dashoffset:0;stroke-opacity:1"
       d="M 113.66886,263.19796 V 251.00843" />
    <path
       inkscape:connector-curvature="0"
       id="path2884"
       style="fill:none;stroke:#110f0d;stroke-width:0.08819444;stroke-linecap:round;stroke-linejoin:round;stroke-miterlimit:4;stroke-dasharray:1.41111108, 0.70555554;stroke-dashoffset:0;stroke-opacity:1"
       d="M 140.21437,263.19796 V 251.00843" />
    <path
       inkscape:connector-curvature="0"
       id="path2888"
       style="fill:none;stroke:#11100e;stroke-width:0.26458332;stroke-linecap:round;stroke-linejoin:round;stroke-miterlimit:4;stroke-dasharray:none;stroke-opacity:1"
       d="m 91.599932,268.53337 v -0.25541 -5.08 h 5.08 0.255411 c 2.380192,-2.38019 3.714397,-3.7144 6.094587,-6.09459 -2.38019,-2.38019 -3.714395,-3.71475 -6.094587,-6.09494 h -0.255411 -5.08 v -5.08 -0.25541 c -2.380192,-2.37984 -3.714397,-3.7144 -6.094589,-6.09459 h -3.685822 c -2.379839,2.38019 -3.714397,3.71475 -6.094589,6.09459 v 0.25541 5.08 h -5.08 -0.255411 c -2.380191,2.38019 -3.714397,3.71475 -6.094588,6.09494 2.380191,2.38019 3.714397,3.7144 6.094588,6.09459 h 0.255411 5.08 v 5.08 0.25541 c 2.380192,2.37984 3.71475,3.7144 6.094589,6.09459 h 3.685822 c 2.380192,-2.38019 3.714397,-3.71475 6.094589,-6.09459 z" />
    <path
       inkscape:connector-curvature="0"
       id="path2892"
       style="fill:none;stroke:#110f0d;stroke-width:0.08819444;stroke-linecap:round;stroke-linejoin:round;stroke-miterlimit:4;stroke-dasharray:1.41111108, 0.70555554;stroke-dashoffset:0;stroke-opacity:1"
       d="m 91.599932,245.67309 h -15.875" />
    <path
       inkscape:connector-curvature="0"
       id="path2896"
       style="fill:none;stroke:#110f0d;stroke-width:0.08819444;stroke-linecap:round;stroke-linejoin:round;stroke-miterlimit:4;stroke-dasharray:1.41111108, 0.70555554;stroke-dashoffset:0;stroke-opacity:1"
       d="m 91.599932,251.00854 h -15.875" />
    <path
       inkscape:connector-curvature="0"
       id="path2900"
       style="fill:none;stroke:#110f0d;stroke-width:0.08819444;stroke-linecap:round;stroke-linejoin:round;stroke-miterlimit:4;stroke-dasharray:1.41111108, 0.70555554;stroke-dashoffset:0;stroke-opacity:1"
       d="m 91.599932,268.53337 h -15.875" />
    <path
       inkscape:connector-curvature="0"
       id="path2904"
       style="fill:none;stroke:#110f0d;stroke-width:0.08819444;stroke-linecap:round;stroke-linejoin:round;stroke-miterlimit:4;stroke-dasharray:1.41111108, 0.70555554;stroke-dashoffset:0;stroke-opacity:1"
       d="m 91.599932,263.19796 h -15.875" />
    <path
       inkscape:connector-curvature="0"
       id="path2908"
       style="fill:none;stroke:#110f0d;stroke-width:0.08819444;stroke-linecap:round;stroke-linejoin:round;stroke-miterlimit:4;stroke-dasharray:1.41111108, 0.70555554;stroke-dashoffset:0;stroke-opacity:1"
       d="m 75.724933,251.00854 v 12.18953" />
    <path
       inkscape:connector-curvature="0"
       id="path2912"
       style="fill:none;stroke:#110f0d;stroke-width:0.08819444;stroke-linecap:round;stroke-linejoin:round;stroke-miterlimit:4;stroke-dasharray:1.41111108, 0.70555554;stroke-dashoffset:0;stroke-opacity:1"
       d="m 91.599932,251.00854 v 12.18953" />
    <path
       inkscape:connector-curvature="0"
       id="path2916"
       style="fill:none;stroke:#110f0d;stroke-width:0.08819444;stroke-linecap:round;stroke-linejoin:round;stroke-miterlimit:4;stroke-dasharray:1.41111108, 0.70555554;stroke-dashoffset:0;stroke-opacity:1"
       d="m 96.935202,251.00854 v 12.18953" />
    <path
       inkscape:connector-curvature="0"
       id="path2920"
       style="fill:none;stroke:#110f0d;stroke-width:0.08819444;stroke-linecap:round;stroke-linejoin:round;stroke-miterlimit:4;stroke-dasharray:1.41111108, 0.70555554;stroke-dashoffset:0;stroke-opacity:1"
       d="m 70.389698,251.00854 v 12.18953" />
    <path
       d="m 6.4516552,128.7371 v 0 H 59.759198 c -2.462741,-2.46239 -3.843161,-3.84316 -6.305549,-6.30555 H 12.757205 c -2.462389,2.46239 -3.843161,3.84316 -6.3055498,6.30555"
       style="fill:#cacaca;fill-opacity:1;fill-rule:nonzero;stroke:none;stroke-width:0.35277778"
       id="path2940"
       inkscape:connector-curvature="0" />
    <path
       d="m 59.759163,82.695969 v 0 H 6.4516199 c 2.4627416,2.462389 3.8431611,3.843161 6.3055501,6.30555 h 40.696443 c 2.462389,-2.462389 3.843161,-3.843161 6.30555,-6.30555"
       style="fill:#cacaca;fill-opacity:1;fill-rule:nonzero;stroke:#feffff;stroke-width:0.35277778;stroke-opacity:1"
       id="path2962"
       inkscape:connector-curvature="0" />
    <path
       inkscape:connector-curvature="0"
       id="path2964"
       style="fill:none;stroke:none;stroke-width:0.35277778;stroke-linecap:butt;stroke-linejoin:miter;stroke-miterlimit:10;stroke-dasharray:none;stroke-opacity:1"
       d="m 59.759163,82.695969 v 0 H 6.4516197 c 2.4627416,2.462389 3.8431613,3.843161 6.3055503,6.30555 h 40.696443 c 2.462389,-2.462389 3.843161,-3.843161 6.30555,-6.30555 z" />
    <path
       d="m 118.54778,29.388637 h -25.4 v -0.635 h 25.4 z m -45.644858,3.527778 v 0.01164 H 85.16195 v 1.5875 H 72.902922 v 7.3025 h -1.5875 v -7.3025 -1.5875 -0.01164 z m 79.045508,78.197425 h -8.06838 v -10.79465 h 8.06838 z m -79.045508,58.54312 v 7.28451 H 85.16195 v 1.5875 H 72.902922 v 0.03 h -1.5875 v -0.03 -1.5875 -7.28451 z M 59.788056,29.388637 v 0.0441 c -2.451453,2.451452 -3.841045,3.841044 -6.30555,6.305902 V 76.34583 c 2.464505,2.464858 3.854097,3.85445 6.30555,6.30555 v 0.03246 0.01199 H 6.4515846 v 46.04138 H 59.788056 v 0.012 0 c -2.480028,2.47968 -3.870325,3.87033 -6.35,6.35 v 40.60755 c 2.479675,2.47967 3.869972,3.86997 6.35,6.35 -2.480028,2.47967 -3.870325,3.86997 -6.35,6.34999 v 33.36502 c 2.479675,2.48003 3.869972,3.87033 6.35,6.35 v 0 H 93.14778 v 0.63147 h -3.527778 v 1.905 c 1.487664,1.48802 2.321983,2.32199 3.81,3.81 H 111.21 c 1.48767,-1.48801 2.32199,-2.32198 3.81,-3.81 v -2.53647 h 36.8875 c 2.47968,-2.47967 3.86998,-3.86997 6.35,-6.35 v -33.36502 l -6.35,-6.34999 6.35,-6.35 V 135.0992 l -6.35,-6.35 v -0.012 h 53.34 V 82.695828 h -53.34 l 6.35,-6.35 V 35.738637 c -2.48002,-2.480027 -3.87032,-3.870325 -6.35,-6.35 -2.48002,-2.480027 -3.87032,-3.870325 -6.35,-6.349999 H 66.138056 c -2.480028,2.479674 -3.870325,3.869972 -6.35,6.349999 z"
       style="fill:none;stroke:#11100e;stroke-width:0.26458332;stroke-linecap:round;stroke-linejoin:round;stroke-miterlimit:4;stroke-dasharray:none;stroke-opacity:1"
       id="path2976"
       inkscape:connector-curvature="0" />
    <path
       inkscape:connector-curvature="0"
       id="path2978"
       style="fill:none;stroke:#110f0d;stroke-width:0.08819444;stroke-linecap:round;stroke-linejoin:round;stroke-miterlimit:4;stroke-dasharray:1.41111108, 0.70555554;stroke-dashoffset:0;stroke-opacity:1"
       d="M 59.788091,228.12173 V 29.433057" />
    <path
       inkscape:connector-curvature="0"
       id="path2982"
       style="fill:none;stroke:#110f0d;stroke-width:0.08819444;stroke-linecap:round;stroke-linejoin:round;stroke-miterlimit:4;stroke-dasharray:1.41111108, 0.70555554;stroke-dashoffset:0;stroke-opacity:1"
       d="M 151.90736,228.12173 V 29.388607" />
    <path
       inkscape:connector-curvature="0"
       id="path2986"
       style="fill:none;stroke:#110f0d;stroke-width:0.08819444;stroke-linecap:round;stroke-linejoin:round;stroke-miterlimit:4;stroke-dasharray:1.41111108, 0.70555554;stroke-dashoffset:0;stroke-opacity:1"
       d="M 93.147815,228.12173 H 115.02004" />
    <path
       inkscape:connector-curvature="0"
       id="path2990"
       style="fill:none;stroke:#110f0d;stroke-width:0.08819444;stroke-linecap:round;stroke-linejoin:round;stroke-miterlimit:4;stroke-dasharray:1.41111108, 0.70555554;stroke-dashoffset:0;stroke-opacity:1"
       d="M 59.787915,182.05667 H 151.90736" />
    <path
       inkscape:connector-curvature="0"
       id="path2994"
       style="fill:none;stroke:#110f0d;stroke-width:0.08819444;stroke-linecap:round;stroke-linejoin:round;stroke-miterlimit:4;stroke-dasharray:1.41111108, 0.70555554;stroke-dashoffset:0;stroke-opacity:1"
       d="M 59.787915,128.74913 H 151.90736" />
    <path
       inkscape:connector-curvature="0"
       id="path2998"
       style="fill:none;stroke:#110f0d;stroke-width:0.08819444;stroke-linecap:round;stroke-linejoin:round;stroke-miterlimit:4;stroke-dasharray:1.41111108, 0.70555554;stroke-dashoffset:0;stroke-opacity:1"
       d="M 59.788091,82.695969 H 151.90719" />
    <path
       inkscape:connector-curvature="0"
       id="path3002"
       style="fill:none;stroke:#110f0d;stroke-width:0.08819444;stroke-linecap:round;stroke-linejoin:round;stroke-miterlimit:4;stroke-dasharray:1.41111108, 0.70555554;stroke-dashoffset:0;stroke-opacity:1"
       d="M 59.788091,29.388461 H 151.90719" />
    <path
       d="m 107.54005,82.695828 h 12.69612 V 49.431354 h -12.69612 z"
       style="fill:#110f0d;fill-opacity:0.24423963;fill-rule:nonzero;stroke:none;stroke-width:0.35277778;stroke-linecap:butt;stroke-linejoin:miter;stroke-miterlimit:10;stroke-dasharray:none;stroke-opacity:1"
       id="path3014"
       inkscape:connector-curvature="0" />
    <path
       d="m 151.9075,117.31497 h 51.41983 V 94.062328 H 151.9075 Z"
       style="fill:#110f0d;fill-opacity:0.24423963;fill-rule:nonzero;stroke:none;stroke-width:0.35277778;stroke-linecap:butt;stroke-linejoin:miter;stroke-miterlimit:10;stroke-dasharray:none;stroke-opacity:1"
       id="path3032"
       inkscape:connector-curvature="0" />
    <path
       d="m 205.21505,82.695969 v 0 H 151.9075 c 2.46239,2.462389 3.84316,3.843161 6.30555,6.30555 h 40.69645 c 2.46239,-2.462389 3.84316,-3.843161 6.30555,-6.30555"
       style="fill:#110f0d;fill-opacity:0.38248849;fill-rule:nonzero;stroke:none;stroke-width:0.35277778;stroke-opacity:1"
       id="path3254"
       inkscape:connector-curvature="0" />
    <path
       d="m 151.90736,128.7371 v 0 h 53.30755 c -2.46239,-2.46239 -3.84281,-3.84316 -6.30555,-6.30555 h -40.69645 c -2.46203,2.46239 -3.84316,3.84316 -6.30555,6.30555"
       style="fill:#110f0d;fill-opacity:0.38248849;fill-rule:nonzero;stroke:none;stroke-width:0.35277778;stroke-opacity:1"
       id="path3276"
       inkscape:connector-curvature="0" />
    <path
       style="fill:none;stroke:#000000;stroke-width:0.26458332px;stroke-linecap:butt;stroke-linejoin:miter;stroke-opacity:1"
       d="M 151.90736,128.7371 H 205.263"
       id="path5804"
       inkscape:connector-curvature="0" />
    <path
       style="fill:none;stroke:#000000;stroke-width:0.26458332px;stroke-linecap:butt;stroke-linejoin:miter;stroke-opacity:1"
       d="m 151.9075,82.695827 h 53.39533"
       id="path5808"
       inkscape:connector-curvature="0"
       sodipodi:nodetypes="cc" />
  </g>
</svg>
