<?xml version="1.0" encoding="UTF-8" standalone="no"?>
<!-- Created with Inkscape (http://www.inkscape.org/) -->

<svg
   xmlns:dc="http://purl.org/dc/elements/1.1/"
   xmlns:cc="http://creativecommons.org/ns#"
   xmlns:rdf="http://www.w3.org/1999/02/22-rdf-syntax-ns#"
   xmlns:svg="http://www.w3.org/2000/svg"
   xmlns="http://www.w3.org/2000/svg"
   xmlns:sodipodi="http://sodipodi.sourceforge.net/DTD/sodipodi-0.dtd"
   xmlns:inkscape="http://www.inkscape.org/namespaces/inkscape"
   version="1.1"
   id="svg4900"
   xml:space="preserve"
   width="816"
   height="1056"
   viewBox="0 0 816 1056"
   sodipodi:docname="5-arrow1.svg"
   inkscape:version="0.92.4 (5da689c313, 2019-01-14)"><metadata
     id="metadata4906"><rdf:RDF><cc:Work
         rdf:about=""><dc:format>image/svg+xml</dc:format><dc:type
           rdf:resource="http://purl.org/dc/dcmitype/StillImage" /><dc:title></dc:title></cc:Work></rdf:RDF></metadata><defs
     id="defs4904"><clipPath
       clipPathUnits="userSpaceOnUse"
       id="clipPath4916"><path
         d="M 0,792 H 612 V 0 H 0 Z"
         id="path4914"
         inkscape:connector-curvature="0" /></clipPath><clipPath
       clipPathUnits="userSpaceOnUse"
       id="clipPath4924"><path
         d="m 328.437,645.133 h 94.79 v -13.671 h -94.79 z"
         id="path4922"
         inkscape:connector-curvature="0" /></clipPath><clipPath
       clipPathUnits="userSpaceOnUse"
       id="clipPath4944"><path
         d="m 328.437,596.462 h 94.791 V 582.79 h -94.791 z"
         id="path4942"
         inkscape:connector-curvature="0" /></clipPath><clipPath
       clipPathUnits="userSpaceOnUse"
       id="clipPath4964"><path
         d="m 316.472,633.168 h 13.672 v -38.413 h -13.672 z"
         id="path4962"
         inkscape:connector-curvature="0" /></clipPath><clipPath
       clipPathUnits="userSpaceOnUse"
       id="clipPath4984"><path
         d="m 420.814,569.461 h 148.375 v -19 H 420.814 Z"
         id="path4982"
         inkscape:connector-curvature="0" /></clipPath><clipPath
       clipPathUnits="userSpaceOnUse"
       id="clipPath5004"><path
         d="m 420.814,677.462 h 148.375 v -19 H 420.814 Z"
         id="path5002"
         inkscape:connector-curvature="0" /></clipPath><clipPath
       clipPathUnits="userSpaceOnUse"
       id="clipPath5024"><path
         d="m 549.482,678.168 h 19 V 549.754 h -19 z"
         id="path5022"
         inkscape:connector-curvature="0" /></clipPath><clipPath
       clipPathUnits="userSpaceOnUse"
       id="clipPath5044"><path
         d="m 168.811,677.462 h 254.417 v -19 H 168.811 Z"
         id="path5042"
         inkscape:connector-curvature="0" /></clipPath><clipPath
       clipPathUnits="userSpaceOnUse"
       id="clipPath5064"><path
         d="m 169.518,406.007 h 18.999 V 356.8 h -18.999 z"
         id="path5062"
         inkscape:connector-curvature="0" /></clipPath><clipPath
       clipPathUnits="userSpaceOnUse"
       id="clipPath5084"><path
         d="m 169.517,327.201 h 19 v -49.608 h -19 z"
         id="path5082"
         inkscape:connector-curvature="0" /></clipPath><clipPath
       clipPathUnits="userSpaceOnUse"
       id="clipPath5104"><path
         d="m 169.518,678.169 h 19 V 549.755 h -19 z"
         id="path5102"
         inkscape:connector-curvature="0" /></clipPath><clipPath
       clipPathUnits="userSpaceOnUse"
       id="clipPath5124"><path
         d="m 329.144,632.462 h 93.377 v -37 h -93.377 z"
         id="path5122"
         inkscape:connector-curvature="0" /></clipPath><clipPath
       clipPathUnits="userSpaceOnUse"
       id="clipPath5140"><path
         d="m 43.5171,552.169 h 19 V 403.793 h -19 z"
         id="path5138"
         inkscape:connector-curvature="0" /></clipPath><clipPath
       clipPathUnits="userSpaceOnUse"
       id="clipPath5164"><path
         d="m 174.751,208.75 h 3.655 v -5.266 h -3.655 z"
         id="path5162"
         inkscape:connector-curvature="0" /></clipPath><clipPath
       clipPathUnits="userSpaceOnUse"
       id="clipPath5184"><path
         d="m 177.051,308.725 h 3.585 v -3.701 h -3.585 z"
         id="path5182"
         inkscape:connector-curvature="0" /></clipPath><clipPath
       clipPathUnits="userSpaceOnUse"
       id="clipPath5204"><path
         d="m 177.071,379.725 h 3.565 v -5.26 h -3.565 z"
         id="path5202"
         inkscape:connector-curvature="0" /></clipPath><clipPath
       clipPathUnits="userSpaceOnUse"
       id="clipPath5224"><path
         d="m 51.0156,480.711 h 3.6553 v -5.265 h -3.6553 z"
         id="path5222"
         inkscape:connector-curvature="0" /></clipPath><clipPath
       clipPathUnits="userSpaceOnUse"
       id="clipPath5244"><path
         d="m 177.036,616.755 h 3.6 v -5.416 h -3.6 z"
         id="path5242"
         inkscape:connector-curvature="0" /></clipPath><clipPath
       clipPathUnits="userSpaceOnUse"
       id="clipPath5264"><path
         d="m 321.342,616.214 h 3.55 v -4.345 h -3.55 z"
         id="path5262"
         inkscape:connector-curvature="0" /></clipPath><clipPath
       clipPathUnits="userSpaceOnUse"
       id="clipPath5284"><path
         d="m 294.028,669.966 h 4.2 v -3.651 h -4.2 z"
         id="path5282"
         inkscape:connector-curvature="0" /></clipPath><clipPath
       clipPathUnits="userSpaceOnUse"
       id="clipPath5304"><path
         d="m 104.349,546.211 h 5.415 v -3.6 h -5.415 z"
         id="path5302"
         inkscape:connector-curvature="0" /></clipPath><clipPath
       clipPathUnits="userSpaceOnUse"
       id="clipPath5324"><path
         d="m 493.173,669.931 h 3.75 v -3.545 h -3.75 z"
         id="path5322"
         inkscape:connector-curvature="0" /></clipPath><clipPath
       clipPathUnits="userSpaceOnUse"
       id="clipPath5344"><path
         d="m 373.828,640.292 h 4.199 v -3.596 h -4.199 z"
         id="path5342"
         inkscape:connector-curvature="0" /></clipPath><clipPath
       clipPathUnits="userSpaceOnUse"
       id="clipPath5364"><path
         d="m 413.706,207.851 h 3.545 v -3.75 h -3.545 z"
         id="path5362"
         inkscape:connector-curvature="0" /></clipPath><clipPath
       clipPathUnits="userSpaceOnUse"
       id="clipPath5384"><path
         d="m 413.616,344.02 h 3.736 v -4.235 h -3.736 z"
         id="path5382"
         inkscape:connector-curvature="0" /></clipPath><clipPath
       clipPathUnits="userSpaceOnUse"
       id="clipPath5404"><path
         d="m 413.636,479.938 h 3.655 v -4.13 h -3.655 z"
         id="path5402"
         inkscape:connector-curvature="0" /></clipPath><clipPath
       clipPathUnits="userSpaceOnUse"
       id="clipPath5424"><path
         d="m 557.313,615.981 h 3.736 v -4.235 h -3.736 z"
         id="path5422"
         inkscape:connector-curvature="0" /></clipPath><clipPath
       clipPathUnits="userSpaceOnUse"
       id="clipPath5444"><path
         d="m 293.812,141.42 h 4.201 v -3.65 h -4.201 z"
         id="path5442"
         inkscape:connector-curvature="0" /></clipPath><clipPath
       clipPathUnits="userSpaceOnUse"
       id="clipPath5464"><path
         d="m 70.042,413.353 h 3.7007 v -3.585 H 70.042 Z"
         id="path5462"
         inkscape:connector-curvature="0" /></clipPath><clipPath
       clipPathUnits="userSpaceOnUse"
       id="clipPath5484"><path
         d="m 139.641,413.353 h 5.26 v -3.565 h -5.26 z"
         id="path5482"
         inkscape:connector-curvature="0" /></clipPath><clipPath
       clipPathUnits="userSpaceOnUse"
       id="clipPath5504"><path
         d="m 492.828,561.607 h 4.13 v -3.654 h -4.13 z"
         id="path5502"
         inkscape:connector-curvature="0" /></clipPath><clipPath
       clipPathUnits="userSpaceOnUse"
       id="clipPath5524"><path
         d="m 373.706,591.277 h 4.01 v -3.655 h -4.01 z"
         id="path5522"
         inkscape:connector-curvature="0" /></clipPath><clipPath
       id="clipPath913"
       clipPathUnits="userSpaceOnUse"><path
         inkscape:connector-curvature="0"
         id="path911"
         d="M 0,792 H 612 V 0 H 0 Z" /></clipPath><clipPath
       id="clipPath921"
       clipPathUnits="userSpaceOnUse"><path
         inkscape:connector-curvature="0"
         id="path919"
         d="m 328.437,645.133 h 94.79 v -13.671 h -94.79 z" /></clipPath><clipPath
       id="clipPath941"
       clipPathUnits="userSpaceOnUse"><path
         inkscape:connector-curvature="0"
         id="path939"
         d="m 328.437,596.462 h 94.791 V 582.79 h -94.791 z" /></clipPath><clipPath
       id="clipPath961"
       clipPathUnits="userSpaceOnUse"><path
         inkscape:connector-curvature="0"
         id="path959"
         d="m 316.472,633.168 h 13.672 v -38.413 h -13.672 z" /></clipPath><clipPath
       id="clipPath981"
       clipPathUnits="userSpaceOnUse"><path
         inkscape:connector-curvature="0"
         id="path979"
         d="m 420.814,569.461 h 148.375 v -19 H 420.814 Z" /></clipPath><clipPath
       id="clipPath1001"
       clipPathUnits="userSpaceOnUse"><path
         inkscape:connector-curvature="0"
         id="path999"
         d="m 420.814,677.462 h 148.375 v -19 H 420.814 Z" /></clipPath><clipPath
       id="clipPath1021"
       clipPathUnits="userSpaceOnUse"><path
         inkscape:connector-curvature="0"
         id="path1019"
         d="m 549.482,678.168 h 19 V 549.754 h -19 z" /></clipPath><clipPath
       id="clipPath1041"
       clipPathUnits="userSpaceOnUse"><path
         inkscape:connector-curvature="0"
         id="path1039"
         d="m 168.811,677.462 h 254.417 v -19 H 168.811 Z" /></clipPath><clipPath
       id="clipPath1061"
       clipPathUnits="userSpaceOnUse"><path
         inkscape:connector-curvature="0"
         id="path1059"
         d="m 169.518,406.007 h 18.999 V 356.8 h -18.999 z" /></clipPath><clipPath
       id="clipPath1081"
       clipPathUnits="userSpaceOnUse"><path
         inkscape:connector-curvature="0"
         id="path1079"
         d="m 169.517,327.201 h 19 v -49.608 h -19 z" /></clipPath><clipPath
       id="clipPath1101"
       clipPathUnits="userSpaceOnUse"><path
         inkscape:connector-curvature="0"
         id="path1099"
         d="m 169.518,678.169 h 19 V 549.755 h -19 z" /></clipPath><clipPath
       id="clipPath1121"
       clipPathUnits="userSpaceOnUse"><path
         inkscape:connector-curvature="0"
         id="path1119"
         d="m 329.144,632.462 h 93.377 v -37 h -93.377 z" /></clipPath><clipPath
       id="clipPath1137"
       clipPathUnits="userSpaceOnUse"><path
         inkscape:connector-curvature="0"
         id="path1135"
         d="m 43.5171,552.169 h 19 V 403.793 h -19 z" /></clipPath><clipPath
       id="clipPath1161"
       clipPathUnits="userSpaceOnUse"><path
         inkscape:connector-curvature="0"
         id="path1159"
         d="m 174.751,208.75 h 3.655 v -5.266 h -3.655 z" /></clipPath><clipPath
       id="clipPath1181"
       clipPathUnits="userSpaceOnUse"><path
         inkscape:connector-curvature="0"
         id="path1179"
         d="m 177.051,308.725 h 3.585 v -3.701 h -3.585 z" /></clipPath><clipPath
       id="clipPath1201"
       clipPathUnits="userSpaceOnUse"><path
         inkscape:connector-curvature="0"
         id="path1199"
         d="m 177.071,379.725 h 3.565 v -5.26 h -3.565 z" /></clipPath><clipPath
       id="clipPath1221"
       clipPathUnits="userSpaceOnUse"><path
         inkscape:connector-curvature="0"
         id="path1219"
         d="m 51.0156,480.711 h 3.6553 v -5.265 h -3.6553 z" /></clipPath><clipPath
       id="clipPath1241"
       clipPathUnits="userSpaceOnUse"><path
         inkscape:connector-curvature="0"
         id="path1239"
         d="m 177.036,616.755 h 3.6 v -5.416 h -3.6 z" /></clipPath><clipPath
       id="clipPath1261"
       clipPathUnits="userSpaceOnUse"><path
         inkscape:connector-curvature="0"
         id="path1259"
         d="m 321.342,616.214 h 3.55 v -4.345 h -3.55 z" /></clipPath><clipPath
       id="clipPath1281"
       clipPathUnits="userSpaceOnUse"><path
         inkscape:connector-curvature="0"
         id="path1279"
         d="m 294.028,669.966 h 4.2 v -3.651 h -4.2 z" /></clipPath><clipPath
       id="clipPath1301"
       clipPathUnits="userSpaceOnUse"><path
         inkscape:connector-curvature="0"
         id="path1299"
         d="m 104.349,546.211 h 5.415 v -3.6 h -5.415 z" /></clipPath><clipPath
       id="clipPath1321"
       clipPathUnits="userSpaceOnUse"><path
         inkscape:connector-curvature="0"
         id="path1319"
         d="m 493.173,669.931 h 3.75 v -3.545 h -3.75 z" /></clipPath><clipPath
       id="clipPath1341"
       clipPathUnits="userSpaceOnUse"><path
         inkscape:connector-curvature="0"
         id="path1339"
         d="m 373.828,640.292 h 4.199 v -3.596 h -4.199 z" /></clipPath><clipPath
       id="clipPath1361"
       clipPathUnits="userSpaceOnUse"><path
         inkscape:connector-curvature="0"
         id="path1359"
         d="m 413.706,207.851 h 3.545 v -3.75 h -3.545 z" /></clipPath><clipPath
       id="clipPath1381"
       clipPathUnits="userSpaceOnUse"><path
         inkscape:connector-curvature="0"
         id="path1379"
         d="m 413.616,344.02 h 3.736 v -4.235 h -3.736 z" /></clipPath><clipPath
       id="clipPath1401"
       clipPathUnits="userSpaceOnUse"><path
         inkscape:connector-curvature="0"
         id="path1399"
         d="m 413.636,479.938 h 3.655 v -4.13 h -3.655 z" /></clipPath><clipPath
       id="clipPath1421"
       clipPathUnits="userSpaceOnUse"><path
         inkscape:connector-curvature="0"
         id="path1419"
         d="m 557.313,615.981 h 3.736 v -4.235 h -3.736 z" /></clipPath><clipPath
       id="clipPath1441"
       clipPathUnits="userSpaceOnUse"><path
         inkscape:connector-curvature="0"
         id="path1439"
         d="m 293.812,141.42 h 4.201 v -3.65 h -4.201 z" /></clipPath><clipPath
       id="clipPath1461"
       clipPathUnits="userSpaceOnUse"><path
         inkscape:connector-curvature="0"
         id="path1459"
         d="m 70.042,413.353 h 3.7007 v -3.585 H 70.042 Z" /></clipPath><clipPath
       id="clipPath1481"
       clipPathUnits="userSpaceOnUse"><path
         inkscape:connector-curvature="0"
         id="path1479"
         d="m 139.641,413.353 h 5.26 v -3.565 h -5.26 z" /></clipPath><clipPath
       id="clipPath1501"
       clipPathUnits="userSpaceOnUse"><path
         inkscape:connector-curvature="0"
         id="path1499"
         d="m 492.828,561.607 h 4.13 v -3.654 h -4.13 z" /></clipPath><clipPath
       id="clipPath1521"
       clipPathUnits="userSpaceOnUse"><path
         inkscape:connector-curvature="0"
         id="path1519"
         d="m 373.706,591.277 h 4.01 v -3.655 h -4.01 z" /></clipPath></defs><sodipodi:namedview
     pagecolor="#ffffff"
     bordercolor="#666666"
     borderopacity="1"
     objecttolerance="10"
     gridtolerance="10"
     guidetolerance="10"
     inkscape:pageopacity="0"
     inkscape:pageshadow="2"
     inkscape:window-width="2490"
     inkscape:window-height="1376"
     id="namedview4902"
     showgrid="false"
     inkscape:zoom="1.8412586"
     inkscape:cx="362.35971"
     inkscape:cy="504.72707"
     inkscape:window-x="70"
     inkscape:window-y="27"
     inkscape:window-maximized="1"
     inkscape:current-layer="g4908" /><g
     id="g4908"
     inkscape:groupmode="layer"
     inkscape:label="5-arrow"
     transform="matrix(1.3333333,0,0,-1.3333333,0,1056)"><path
       style="fill:none;fill-opacity:1;fill-rule:nonzero;stroke:#000000;stroke-opacity:1;stroke-width:0.075;stroke-miterlimit:4;stroke-dasharray:none"
       d="m 402.27218,117.99435 h -216.002 c -0.1,0 -0.195,0.039 -0.265,0.109 l -35.999,36.002 c -0.07,0.07 -0.11,0.165 -0.11,0.265 l -10e-4,109.961 c 0,0.1 0.04,0.195 0.11,0.266 l 17.89,17.888 10e-4,47.546 c 0,0.207 0.168,0.375 0.375,0.375 h 22.495 v 29.85 h -22.495 c -0.207,0 -0.375,0.168 -0.375,0.375 v 46.794 l -17.361,-17.36 c -0.07,-0.07 -0.165,-0.109 -0.265,-0.109 h -29.5 c -0.207,0 -0.375,0.168 -0.375,0.375 v 17.624 h -29.848 v -17.624 c 0,-0.207 -0.168,-0.375 -0.375,-0.375 h -29.902 c -0.099,0 -0.195,0.039 -0.265,0.109 l -18,18.001 c -0.07,0.071 -0.11,0.166 -0.11,0.265 v 145.962 c 0,0.099 0.04,0.195 0.11,0.265 l 18,18 c 0.07,0.071 0.166,0.11 0.265,0.11 h 90 c 0.1,0 0.195,-0.039 0.265,-0.11 l 17.36,-17.359 v 125.094 c 0,0.207 0.168,0.375 0.375,0.375 h 397.965 c 0.207,0 0.375,-0.168 0.375,-0.375 v -126.001 c 0,-0.207 -0.168,-0.375 -0.375,-0.375 h -145.056 l 17.359,-17.36 c 0.07,-0.07 0.109,-0.166 0.109,-0.265 l 0.001,-109.961 c 0,-0.1 -0.039,-0.195 -0.11,-0.265 l -17.735,-17.735 17.735,-17.736 c 0.07,-0.07 0.109,-0.165 0.109,-0.265 l 0.001,-89.999 c 0,-0.1 -0.039,-0.195 -0.11,-0.266 l -17.735,-17.734 17.735,-17.736 c 0.07,-0.07 0.109,-0.165 0.109,-0.265 l 0.001,-109.961 c 0,-0.1 -0.039,-0.195 -0.11,-0.266 l -36,-36 c -0.071,-0.07 -0.166,-0.109 -0.266,-0.109"
       id="path1153" /><path
       style="fill:none;fill-opacity:1;fill-rule:nonzero;stroke:#000000;stroke-opacity:1;stroke-width:0.075;stroke-miterlimit:4;stroke-dasharray:none"
       d="m 359.43248,606.83105 c -5.769,0 -10.462,4.693 -10.462,10.462 0,5.769 4.693,10.462 10.462,10.462 5.769,0 10.462,-4.693 10.462,-10.462 0,-5.769 -4.693,-10.462 -10.462,-10.462"
       id="path1537" /><path
       inkscape:connector-curvature="0"
       id="path1553"
       style="fill:none;fill-opacity:1;fill-rule:nonzero;stroke:#000000;stroke-opacity:1;stroke-width:0.075;stroke-miterlimit:4;stroke-dasharray:none"
       d="m 172.27038,136.24435 h -4 c -0.069,0 -0.125,0.056 -0.125,0.125 0,0.069 0.056,0.125 0.125,0.125 h 4 c 0.069,0 0.125,-0.056 0.125,-0.125 0,-0.069 -0.056,-0.125 -0.125,-0.125 m 6,0 h -4 c -0.069,0 -0.125,0.056 -0.125,0.125 0,0.069 0.056,0.125 0.125,0.125 h 4 c 0.069,0 0.125,-0.056 0.125,-0.125 0,-0.069 -0.056,-0.125 -0.125,-0.125 m 6,0 h -4 c -0.069,0 -0.125,0.056 -0.125,0.125 0,0.069 0.056,0.125 0.125,0.125 h 4 c 0.069,0 0.125,-0.056 0.125,-0.125 0,-0.069 -0.056,-0.125 -0.125,-0.125 m 6,0 h -4 c -0.069,0 -0.125,0.056 -0.125,0.125 0,0.069 0.056,0.125 0.125,0.125 h 4 c 0.069,0 0.125,-0.056 0.125,-0.125 0,-0.069 -0.056,-0.125 -0.125,-0.125 m 6,0 h -4 c -0.069,0 -0.125,0.056 -0.125,0.125 0,0.069 0.056,0.125 0.125,0.125 h 4 c 0.069,0 0.125,-0.056 0.125,-0.125 0,-0.069 -0.056,-0.125 -0.125,-0.125 m 6,0 h -4 c -0.069,0 -0.125,0.056 -0.125,0.125 0,0.069 0.056,0.125 0.125,0.125 h 4 c 0.069,0 0.125,-0.056 0.125,-0.125 0,-0.069 -0.056,-0.125 -0.125,-0.125 m 6,0 h -4 c -0.069,0 -0.125,0.056 -0.125,0.125 0,0.069 0.056,0.125 0.125,0.125 h 4 c 0.069,0 0.125,-0.056 0.125,-0.125 0,-0.069 -0.056,-0.125 -0.125,-0.125 m 6,0 h -4 c -0.069,0 -0.125,0.056 -0.125,0.125 0,0.069 0.056,0.125 0.125,0.125 h 4 c 0.069,0 0.125,-0.056 0.125,-0.125 0,-0.069 -0.056,-0.125 -0.125,-0.125 m 6,0 h -4 c -0.069,0 -0.125,0.056 -0.125,0.125 0,0.069 0.056,0.125 0.125,0.125 h 4 c 0.069,0 0.125,-0.056 0.125,-0.125 0,-0.069 -0.056,-0.125 -0.125,-0.125 m 6,0 h -4 c -0.069,0 -0.125,0.056 -0.125,0.125 0,0.069 0.056,0.125 0.125,0.125 h 4 c 0.069,0 0.125,-0.056 0.125,-0.125 0,-0.069 -0.056,-0.125 -0.125,-0.125 m 6,0 h -4 c -0.069,0 -0.125,0.056 -0.125,0.125 0,0.069 0.056,0.125 0.125,0.125 h 4 c 0.069,0 0.125,-0.056 0.125,-0.125 0,-0.069 -0.056,-0.125 -0.125,-0.125 m 6,0 h -4 c -0.069,0 -0.125,0.056 -0.125,0.125 0,0.069 0.056,0.125 0.125,0.125 h 4 c 0.069,0 0.125,-0.056 0.125,-0.125 0,-0.069 -0.056,-0.125 -0.125,-0.125 m 6,0 h -4 c -0.069,0 -0.125,0.056 -0.125,0.125 0,0.069 0.056,0.125 0.125,0.125 h 4 c 0.069,0 0.125,-0.056 0.125,-0.125 0,-0.069 -0.056,-0.125 -0.125,-0.125 m 6,0 h -4 c -0.069,0 -0.125,0.056 -0.125,0.125 0,0.069 0.056,0.125 0.125,0.125 h 4 c 0.069,0 0.125,-0.056 0.125,-0.125 0,-0.069 -0.056,-0.125 -0.125,-0.125 m 6,0 h -4 c -0.069,0 -0.125,0.056 -0.125,0.125 0,0.069 0.056,0.125 0.125,0.125 h 4 c 0.069,0 0.125,-0.056 0.125,-0.125 0,-0.069 -0.056,-0.125 -0.125,-0.125 m 6,0 h -4 c -0.069,0 -0.125,0.056 -0.125,0.125 0,0.069 0.056,0.125 0.125,0.125 h 4 c 0.069,0 0.125,-0.056 0.125,-0.125 0,-0.069 -0.056,-0.125 -0.125,-0.125 m 6,0 h -4 c -0.069,0 -0.125,0.056 -0.125,0.125 0,0.069 0.056,0.125 0.125,0.125 h 4 c 0.069,0 0.125,-0.056 0.125,-0.125 0,-0.069 -0.056,-0.125 -0.125,-0.125 m 6,0 h -4 c -0.069,0 -0.125,0.056 -0.125,0.125 0,0.069 0.056,0.125 0.125,0.125 h 4 c 0.069,0 0.125,-0.056 0.125,-0.125 0,-0.069 -0.056,-0.125 -0.125,-0.125 m 6,0 h -4 c -0.069,0 -0.125,0.056 -0.125,0.125 0,0.069 0.056,0.125 0.125,0.125 h 4 c 0.069,0 0.125,-0.056 0.125,-0.125 0,-0.069 -0.056,-0.125 -0.125,-0.125 m 6,0 h -4 c -0.069,0 -0.125,0.056 -0.125,0.125 0,0.069 0.056,0.125 0.125,0.125 h 4 c 0.069,0 0.125,-0.056 0.125,-0.125 0,-0.069 -0.056,-0.125 -0.125,-0.125 m 6,0 h -4 c -0.069,0 -0.125,0.056 -0.125,0.125 0,0.069 0.056,0.125 0.125,0.125 h 4 c 0.069,0 0.125,-0.056 0.125,-0.125 0,-0.069 -0.056,-0.125 -0.125,-0.125 m 6,0 h -4 c -0.069,0 -0.125,0.056 -0.125,0.125 0,0.069 0.056,0.125 0.125,0.125 h 4 c 0.069,0 0.125,-0.056 0.125,-0.125 0,-0.069 -0.056,-0.125 -0.125,-0.125 m 6,0 h -4 c -0.069,0 -0.125,0.056 -0.125,0.125 0,0.069 0.056,0.125 0.125,0.125 h 4 c 0.069,0 0.125,-0.056 0.125,-0.125 0,-0.069 -0.056,-0.125 -0.125,-0.125 m 6,0 h -4 c -0.069,0 -0.125,0.056 -0.125,0.125 0,0.069 0.056,0.125 0.125,0.125 h 4 c 0.069,0 0.125,-0.056 0.125,-0.125 0,-0.069 -0.056,-0.125 -0.125,-0.125 m 6,0 h -4 c -0.069,0 -0.125,0.056 -0.125,0.125 0,0.069 0.056,0.125 0.125,0.125 h 4 c 0.069,0 0.125,-0.056 0.125,-0.125 0,-0.069 -0.056,-0.125 -0.125,-0.125 m 6,0 h -4 c -0.069,0 -0.125,0.056 -0.125,0.125 0,0.069 0.056,0.125 0.125,0.125 h 4 c 0.069,0 0.125,-0.056 0.125,-0.125 0,-0.069 -0.056,-0.125 -0.125,-0.125 m 6,0 h -4 c -0.069,0 -0.125,0.056 -0.125,0.125 0,0.069 0.056,0.125 0.125,0.125 h 4 c 0.069,0 0.125,-0.056 0.125,-0.125 0,-0.069 -0.056,-0.125 -0.125,-0.125 m 6,0 h -4 c -0.069,0 -0.125,0.056 -0.125,0.125 0,0.069 0.056,0.125 0.125,0.125 h 4 c 0.069,0 0.125,-0.056 0.125,-0.125 0,-0.069 -0.056,-0.125 -0.125,-0.125 m 6,0 h -4 c -0.069,0 -0.125,0.056 -0.125,0.125 0,0.069 0.056,0.125 0.125,0.125 h 4 c 0.069,0 0.125,-0.056 0.125,-0.125 0,-0.069 -0.056,-0.125 -0.125,-0.125 m 6,0 h -4 c -0.069,0 -0.125,0.056 -0.125,0.125 0,0.069 0.056,0.125 0.125,0.125 h 4 c 0.069,0 0.125,-0.056 0.125,-0.125 0,-0.069 -0.056,-0.125 -0.125,-0.125 m 6,0 h -4 c -0.069,0 -0.125,0.056 -0.125,0.125 0,0.069 0.056,0.125 0.125,0.125 h 4 c 0.069,0 0.125,-0.056 0.125,-0.125 0,-0.069 -0.056,-0.125 -0.125,-0.125 m 6,0 h -4 c -0.069,0 -0.125,0.056 -0.125,0.125 0,0.069 0.056,0.125 0.125,0.125 h 4 c 0.069,0 0.125,-0.056 0.125,-0.125 0,-0.069 -0.056,-0.125 -0.125,-0.125 m 6,0 h -4 c -0.069,0 -0.125,0.056 -0.125,0.125 0,0.069 0.056,0.125 0.125,0.125 h 4 c 0.069,0 0.125,-0.056 0.125,-0.125 0,-0.069 -0.056,-0.125 -0.125,-0.125 m 6,0 h -4 c -0.069,0 -0.125,0.056 -0.125,0.125 0,0.069 0.056,0.125 0.125,0.125 h 4 c 0.069,0 0.125,-0.056 0.125,-0.125 0,-0.069 -0.056,-0.125 -0.125,-0.125 m 6,0 h -4 c -0.069,0 -0.125,0.056 -0.125,0.125 0,0.069 0.056,0.125 0.125,0.125 h 4 c 0.069,0 0.125,-0.056 0.125,-0.125 0,-0.069 -0.056,-0.125 -0.125,-0.125 m 6,0 h -4 c -0.069,0 -0.125,0.056 -0.125,0.125 0,0.069 0.056,0.125 0.125,0.125 h 4 c 0.069,0 0.125,-0.056 0.125,-0.125 0,-0.069 -0.056,-0.125 -0.125,-0.125 m 6,0 h -4 c -0.069,0 -0.125,0.056 -0.125,0.125 0,0.069 0.056,0.125 0.125,0.125 h 4 c 0.069,0 0.125,-0.056 0.125,-0.125 0,-0.069 -0.056,-0.125 -0.125,-0.125 m 6,0 h -4 c -0.069,0 -0.125,0.056 -0.125,0.125 0,0.069 0.056,0.125 0.125,0.125 h 4 c 0.069,0 0.125,-0.056 0.125,-0.125 0,-0.069 -0.056,-0.125 -0.125,-0.125 m 6,0 h -4 c -0.069,0 -0.125,0.056 -0.125,0.125 0,0.069 0.056,0.125 0.125,0.125 h 4 c 0.069,0 0.125,-0.056 0.125,-0.125 0,-0.069 -0.056,-0.125 -0.125,-0.125 m 6,0 h -4 c -0.069,0 -0.125,0.056 -0.125,0.125 0,0.069 0.056,0.125 0.125,0.125 h 4 c 0.069,0 0.125,-0.056 0.125,-0.125 0,-0.069 -0.056,-0.125 -0.125,-0.125 m 6,0 h -4 c -0.069,0 -0.125,0.056 -0.125,0.125 0,0.069 0.056,0.125 0.125,0.125 h 4 c 0.069,0 0.125,-0.056 0.125,-0.125 0,-0.069 -0.056,-0.125 -0.125,-0.125 m 6,0 h -4 c -0.069,0 -0.125,0.056 -0.125,0.125 0,0.069 0.056,0.125 0.125,0.125 h 4 c 0.069,0 0.125,-0.056 0.125,-0.125 0,-0.069 -0.056,-0.125 -0.125,-0.125" /><path
       inkscape:connector-curvature="0"
       id="path1561"
       style="fill:none;fill-opacity:1;fill-rule:nonzero;stroke:#000000;stroke-opacity:1;stroke-width:0.075;stroke-miterlimit:4;stroke-dasharray:none"
       d="m 420.27428,550.16765 c -0.069,0 -0.125,0.056 -0.125,0.125 v 4 c 0,0.069 0.056,0.125 0.125,0.125 0.069,0 0.125,-0.056 0.125,-0.125 v -4 c 0,-0.069 -0.056,-0.125 -0.125,-0.125 m 0,-6 c -0.069,0 -0.125,0.056 -0.125,0.125 v 4 c 0,0.069 0.056,0.125 0.125,0.125 0.069,0 0.125,-0.056 0.125,-0.125 v -4 c 0,-0.069 -0.056,-0.125 -0.125,-0.125 m 0,-6 c -0.069,0 -0.125,0.056 -0.125,0.125 v 4 c 0,0.069 0.056,0.125 0.125,0.125 0.069,0 0.125,-0.056 0.125,-0.125 v -4 c 0,-0.069 -0.056,-0.125 -0.125,-0.125 m 0,-6 c -0.069,0 -0.125,0.056 -0.125,0.125 v 4 c 0,0.069 0.056,0.125 0.125,0.125 0.069,0 0.125,-0.056 0.125,-0.125 v -4 c 0,-0.069 -0.056,-0.125 -0.125,-0.125 m 0,-6 c -0.069,0 -0.125,0.056 -0.125,0.125 v 4 c 0,0.069 0.056,0.125 0.125,0.125 0.069,0 0.125,-0.056 0.125,-0.125 v -4 c 0,-0.069 -0.056,-0.125 -0.125,-0.125 m 0,-6 c -0.069,0 -0.125,0.056 -0.125,0.125 v 4 c 0,0.069 0.056,0.125 0.125,0.125 0.069,0 0.125,-0.056 0.125,-0.125 v -4 c 0,-0.069 -0.056,-0.125 -0.125,-0.125 m 0,-6 c -0.069,0 -0.125,0.056 -0.125,0.125 v 4 c 0,0.069 0.056,0.125 0.125,0.125 0.069,0 0.125,-0.056 0.125,-0.125 v -4 c 0,-0.069 -0.056,-0.125 -0.125,-0.125 m 0,-6 c -0.069,0 -0.125,0.056 -0.125,0.125 v 4 c 0,0.069 0.056,0.125 0.125,0.125 0.069,0 0.125,-0.056 0.125,-0.125 v -4 c 0,-0.069 -0.056,-0.125 -0.125,-0.125 m 0,-6 c -0.069,0 -0.125,0.056 -0.125,0.125 v 4 c 0,0.069 0.056,0.125 0.125,0.125 0.069,0 0.125,-0.056 0.125,-0.125 v -4 c 0,-0.069 -0.056,-0.125 -0.125,-0.125 m 0,-6 c -0.069,0 -0.125,0.056 -0.125,0.125 v 4 c 0,0.069 0.056,0.125 0.125,0.125 0.069,0 0.125,-0.056 0.125,-0.125 v -4 c 0,-0.069 -0.056,-0.125 -0.125,-0.125 m 0,-6 c -0.069,0 -0.125,0.056 -0.125,0.125 v 4 c 0,0.069 0.056,0.125 0.125,0.125 0.069,0 0.125,-0.056 0.125,-0.125 v -4 c 0,-0.069 -0.056,-0.125 -0.125,-0.125 m 0,-6 c -0.069,0 -0.125,0.056 -0.125,0.125 v 4 c 0,0.069 0.056,0.125 0.125,0.125 0.069,0 0.125,-0.056 0.125,-0.125 v -4 c 0,-0.069 -0.056,-0.125 -0.125,-0.125 m 0,-6 c -0.069,0 -0.125,0.056 -0.125,0.125 v 4 c 0,0.069 0.056,0.125 0.125,0.125 0.069,0 0.125,-0.056 0.125,-0.125 v -4 c 0,-0.069 -0.056,-0.125 -0.125,-0.125 m 0,-6 c -0.069,0 -0.125,0.056 -0.125,0.125 v 4 c 0,0.069 0.056,0.125 0.125,0.125 0.069,0 0.125,-0.056 0.125,-0.125 v -4 c 0,-0.069 -0.056,-0.125 -0.125,-0.125 m 0,-6 c -0.069,0 -0.125,0.056 -0.125,0.125 v 4 c 0,0.069 0.056,0.125 0.125,0.125 0.069,0 0.125,-0.056 0.125,-0.125 v -4 c 0,-0.069 -0.056,-0.125 -0.125,-0.125 m 0,-6 c -0.069,0 -0.125,0.056 -0.125,0.125 v 4 c 0,0.069 0.056,0.125 0.125,0.125 0.069,0 0.125,-0.056 0.125,-0.125 v -4 c 0,-0.069 -0.056,-0.125 -0.125,-0.125 m 0,-6 c -0.069,0 -0.125,0.056 -0.125,0.125 v 4 c 0,0.069 0.056,0.125 0.125,0.125 0.069,0 0.125,-0.056 0.125,-0.125 v -4 c 0,-0.069 -0.056,-0.125 -0.125,-0.125 m 0,-6 c -0.069,0 -0.125,0.056 -0.125,0.125 v 4 c 0,0.069 0.056,0.125 0.125,0.125 0.069,0 0.125,-0.056 0.125,-0.125 v -4 c 0,-0.069 -0.056,-0.125 -0.125,-0.125 m 0,-6 c -0.069,0 -0.125,0.056 -0.125,0.125 v 4 c 0,0.069 0.056,0.125 0.125,0.125 0.069,0 0.125,-0.056 0.125,-0.125 v -4 c 0,-0.069 -0.056,-0.125 -0.125,-0.125 m 0,-6 c -0.069,0 -0.125,0.056 -0.125,0.125 v 4 c 0,0.069 0.056,0.125 0.125,0.125 0.069,0 0.125,-0.056 0.125,-0.125 v -4 c 0,-0.069 -0.056,-0.125 -0.125,-0.125 m 0,-6 c -0.069,0 -0.125,0.056 -0.125,0.125 v 4 c 0,0.069 0.056,0.125 0.125,0.125 0.069,0 0.125,-0.056 0.125,-0.125 v -4 c 0,-0.069 -0.056,-0.125 -0.125,-0.125 m 0,-6 c -0.069,0 -0.125,0.056 -0.125,0.125 v 4 c 0,0.069 0.056,0.125 0.125,0.125 0.069,0 0.125,-0.056 0.125,-0.125 v -4 c 0,-0.069 -0.056,-0.125 -0.125,-0.125 m 0,-6 c -0.069,0 -0.125,0.056 -0.125,0.125 v 4 c 0,0.069 0.056,0.125 0.125,0.125 0.069,0 0.125,-0.056 0.125,-0.125 v -4 c 0,-0.069 -0.056,-0.125 -0.125,-0.125 m 0,-6 c -0.069,0 -0.125,0.056 -0.125,0.125 v 4 c 0,0.069 0.056,0.125 0.125,0.125 0.069,0 0.125,-0.056 0.125,-0.125 v -4 c 0,-0.069 -0.056,-0.125 -0.125,-0.125 m 0,-6 c -0.069,0 -0.125,0.056 -0.125,0.125 v 4 c 0,0.069 0.056,0.125 0.125,0.125 0.069,0 0.125,-0.056 0.125,-0.125 v -4 c 0,-0.069 -0.056,-0.125 -0.125,-0.125 m 0,-6 c -0.069,0 -0.125,0.056 -0.125,0.125 v 4 c 0,0.069 0.056,0.125 0.125,0.125 0.069,0 0.125,-0.056 0.125,-0.125 v -4 c 0,-0.069 -0.056,-0.125 -0.125,-0.125 m 0,-6 c -0.069,0 -0.125,0.055 -0.125,0.125 v 4 c 0,0.068 0.056,0.125 0.125,0.125 0.069,0 0.125,-0.057 0.125,-0.125 v -4 c 0,-0.07 -0.056,-0.125 -0.125,-0.125 m 0,-6 c -0.069,0 -0.125,0.055 -0.125,0.125 v 4 c 0,0.069 0.056,0.125 0.125,0.125 0.069,0 0.125,-0.056 0.125,-0.125 v -4 c 0,-0.07 -0.056,-0.125 -0.125,-0.125 m 0,-6 c -0.069,0 -0.125,0.055 -0.125,0.125 v 4 c 0,0.069 0.056,0.125 0.125,0.125 0.069,0 0.125,-0.056 0.125,-0.125 v -4 c 0,-0.07 -0.056,-0.125 -0.125,-0.125 m 0,-6 c -0.069,0 -0.125,0.055 -0.125,0.125 v 4 c 0,0.069 0.056,0.125 0.125,0.125 0.069,0 0.125,-0.056 0.125,-0.125 v -4 c 0,-0.07 -0.056,-0.125 -0.125,-0.125 m 0,-6 c -0.069,0 -0.125,0.055 -0.125,0.125 v 4 c 0,0.069 0.056,0.125 0.125,0.125 0.069,0 0.125,-0.056 0.125,-0.125 v -4 c 0,-0.07 -0.056,-0.125 -0.125,-0.125 m 0,-6 c -0.069,0 -0.125,0.055 -0.125,0.125 v 4 c 0,0.069 0.056,0.125 0.125,0.125 0.069,0 0.125,-0.056 0.125,-0.125 v -4 c 0,-0.07 -0.056,-0.125 -0.125,-0.125 m 0,-6 c -0.069,0 -0.125,0.055 -0.125,0.125 v 4 c 0,0.069 0.056,0.125 0.125,0.125 0.069,0 0.125,-0.056 0.125,-0.125 v -4 c 0,-0.07 -0.056,-0.125 -0.125,-0.125 m 0,-6 c -0.069,0 -0.125,0.055 -0.125,0.125 v 4 c 0,0.069 0.056,0.125 0.125,0.125 0.069,0 0.125,-0.056 0.125,-0.125 v -4 c 0,-0.07 -0.056,-0.125 -0.125,-0.125 m 0,-6 c -0.069,0 -0.125,0.055 -0.125,0.125 v 4 c 0,0.069 0.056,0.125 0.125,0.125 0.069,0 0.125,-0.056 0.125,-0.125 v -4 c 0,-0.07 -0.056,-0.125 -0.125,-0.125 m 0,-6 c -0.069,0 -0.125,0.055 -0.125,0.125 v 4 c 0,0.069 0.056,0.125 0.125,0.125 0.069,0 0.125,-0.056 0.125,-0.125 v -4 c 0,-0.07 -0.056,-0.125 -0.125,-0.125 m 0,-6 c -0.069,0 -0.125,0.055 -0.125,0.125 v 4 c 0,0.069 0.056,0.125 0.125,0.125 0.069,0 0.125,-0.056 0.125,-0.125 v -4 c 0,-0.07 -0.056,-0.125 -0.125,-0.125 m 0,-6 c -0.069,0 -0.125,0.055 -0.125,0.125 v 4 c 0,0.069 0.056,0.125 0.125,0.125 0.069,0 0.125,-0.056 0.125,-0.125 v -4 c 0,-0.07 -0.056,-0.125 -0.125,-0.125 m 0,-6 c -0.069,0 -0.125,0.056 -0.125,0.125 v 4 c 0,0.07 0.056,0.125 0.125,0.125 0.069,0 0.125,-0.055 0.125,-0.125 v -4 c 0,-0.069 -0.056,-0.125 -0.125,-0.125 m 0,-6 c -0.069,0 -0.125,0.056 -0.125,0.125 v 4 c 0,0.07 0.056,0.125 0.125,0.125 0.069,0 0.125,-0.055 0.125,-0.125 v -4 c 0,-0.069 -0.056,-0.125 -0.125,-0.125 m 0,-6 c -0.069,0 -0.125,0.056 -0.125,0.125 v 4 c 0,0.07 0.056,0.125 0.125,0.125 0.069,0 0.125,-0.055 0.125,-0.125 v -4 c 0,-0.069 -0.056,-0.125 -0.125,-0.125 m 0,-6 c -0.069,0 -0.125,0.056 -0.125,0.125 v 4 c 0,0.07 0.056,0.125 0.125,0.125 0.069,0 0.125,-0.055 0.125,-0.125 v -4 c 0,-0.069 -0.056,-0.125 -0.125,-0.125 m 0,-6 c -0.069,0 -0.125,0.056 -0.125,0.125 v 4 c 0,0.07 0.056,0.125 0.125,0.125 0.069,0 0.125,-0.055 0.125,-0.125 v -4 c 0,-0.069 -0.056,-0.125 -0.125,-0.125 m 0,-6 c -0.069,0 -0.125,0.056 -0.125,0.125 v 4 c 0,0.07 0.056,0.125 0.125,0.125 0.069,0 0.125,-0.055 0.125,-0.125 v -4 c 0,-0.069 -0.056,-0.125 -0.125,-0.125 m 0,-6 c -0.069,0 -0.125,0.056 -0.125,0.125 v 4 c 0,0.07 0.056,0.125 0.125,0.125 0.069,0 0.125,-0.055 0.125,-0.125 v -4 c 0,-0.069 -0.056,-0.125 -0.125,-0.125 m 0,-6 c -0.069,0 -0.125,0.056 -0.125,0.125 v 4 c 0,0.07 0.056,0.125 0.125,0.125 0.069,0 0.125,-0.055 0.125,-0.125 v -4 c 0,-0.069 -0.056,-0.125 -0.125,-0.125 m 0,-6 c -0.069,0 -0.125,0.056 -0.125,0.125 v 4 c 0,0.07 0.056,0.125 0.125,0.125 0.069,0 0.125,-0.055 0.125,-0.125 v -4 c 0,-0.069 -0.056,-0.125 -0.125,-0.125 m 0,-6 c -0.069,0 -0.125,0.056 -0.125,0.125 v 4 c 0,0.07 0.056,0.125 0.125,0.125 0.069,0 0.125,-0.055 0.125,-0.125 v -4 c 0,-0.069 -0.056,-0.125 -0.125,-0.125 m 0,-6 c -0.069,0 -0.125,0.056 -0.125,0.125 v 4 c 0,0.07 0.056,0.125 0.125,0.125 0.069,0 0.125,-0.055 0.125,-0.125 v -4 c 0,-0.069 -0.056,-0.125 -0.125,-0.125 m 0,-6 c -0.069,0 -0.125,0.056 -0.125,0.125 v 4 c 0,0.07 0.056,0.125 0.125,0.125 0.069,0 0.125,-0.055 0.125,-0.125 v -4 c 0,-0.069 -0.056,-0.125 -0.125,-0.125 m 0,-6 c -0.069,0 -0.125,0.056 -0.125,0.125 v 4 c 0,0.07 0.056,0.125 0.125,0.125 0.069,0 0.125,-0.055 0.125,-0.125 v -4 c 0,-0.069 -0.056,-0.125 -0.125,-0.125 m 0,-6 c -0.069,0 -0.125,0.056 -0.125,0.125 v 4 c 0,0.07 0.056,0.125 0.125,0.125 0.069,0 0.125,-0.055 0.125,-0.125 v -4 c 0,-0.069 -0.056,-0.125 -0.125,-0.125 m 0,-6 c -0.069,0 -0.125,0.056 -0.125,0.125 v 4 c 0,0.07 0.056,0.125 0.125,0.125 0.069,0 0.125,-0.055 0.125,-0.125 v -4 c 0,-0.069 -0.056,-0.125 -0.125,-0.125 m 0,-6 c -0.069,0 -0.125,0.056 -0.125,0.125 v 4 c 0,0.07 0.056,0.125 0.125,0.125 0.069,0 0.125,-0.055 0.125,-0.125 v -4 c 0,-0.069 -0.056,-0.125 -0.125,-0.125 m 0,-6 c -0.069,0 -0.125,0.056 -0.125,0.125 v 4 c 0,0.07 0.056,0.125 0.125,0.125 0.069,0 0.125,-0.055 0.125,-0.125 v -4 c 0,-0.069 -0.056,-0.125 -0.125,-0.125 m 0,-6 c -0.069,0 -0.125,0.056 -0.125,0.125 v 4 c 0,0.07 0.056,0.125 0.125,0.125 0.069,0 0.125,-0.055 0.125,-0.125 v -4 c 0,-0.069 -0.056,-0.125 -0.125,-0.125 m 0,-6 c -0.069,0 -0.125,0.056 -0.125,0.125 v 4 c 0,0.07 0.056,0.125 0.125,0.125 0.069,0 0.125,-0.055 0.125,-0.125 v -4 c 0,-0.069 -0.056,-0.125 -0.125,-0.125 m 0,-6 c -0.069,0 -0.125,0.056 -0.125,0.125 v 4 c 0,0.07 0.056,0.125 0.125,0.125 0.069,0 0.125,-0.055 0.125,-0.125 v -4 c 0,-0.069 -0.056,-0.125 -0.125,-0.125 m 0,-6 c -0.069,0 -0.125,0.056 -0.125,0.125 v 4 c 0,0.07 0.056,0.125 0.125,0.125 0.069,0 0.125,-0.055 0.125,-0.125 v -4 c 0,-0.069 -0.056,-0.125 -0.125,-0.125 m 0,-6 c -0.069,0 -0.125,0.056 -0.125,0.125 v 4 c 0,0.07 0.056,0.125 0.125,0.125 0.069,0 0.125,-0.055 0.125,-0.125 v -4 c 0,-0.069 -0.056,-0.125 -0.125,-0.125 m 0,-6 c -0.069,0 -0.125,0.056 -0.125,0.125 v 4 c 0,0.07 0.056,0.125 0.125,0.125 0.069,0 0.125,-0.055 0.125,-0.125 v -4 c 0,-0.069 -0.056,-0.125 -0.125,-0.125 m 0,-6 c -0.069,0 -0.125,0.056 -0.125,0.125 v 4 c 0,0.07 0.056,0.125 0.125,0.125 0.069,0 0.125,-0.055 0.125,-0.125 v -4 c 0,-0.069 -0.056,-0.125 -0.125,-0.125 m 0,-6 c -0.069,0 -0.125,0.056 -0.125,0.125 v 4 c 0,0.07 0.056,0.125 0.125,0.125 0.069,0 0.125,-0.055 0.125,-0.125 v -4 c 0,-0.069 -0.056,-0.125 -0.125,-0.125 m 0,-6 c -0.069,0 -0.125,0.056 -0.125,0.125 v 4 c 0,0.07 0.056,0.125 0.125,0.125 0.069,0 0.125,-0.055 0.125,-0.125 v -4 c 0,-0.069 -0.056,-0.125 -0.125,-0.125 m 0,-6 c -0.069,0 -0.125,0.056 -0.125,0.125 v 4 c 0,0.07 0.056,0.125 0.125,0.125 0.069,0 0.125,-0.055 0.125,-0.125 v -4 c 0,-0.069 -0.056,-0.125 -0.125,-0.125 m 0,-6 c -0.069,0 -0.125,0.056 -0.125,0.125 v 4 c 0,0.07 0.056,0.125 0.125,0.125 0.069,0 0.125,-0.055 0.125,-0.125 v -4 c 0,-0.069 -0.056,-0.125 -0.125,-0.125 m 0,-6 c -0.069,0 -0.125,0.056 -0.125,0.125 v 4 c 0,0.07 0.056,0.125 0.125,0.125 0.069,0 0.125,-0.055 0.125,-0.125 v -4 c 0,-0.069 -0.056,-0.125 -0.125,-0.125 m 0,-6 c -0.069,0 -0.125,0.056 -0.125,0.125 v 4 c 0,0.07 0.056,0.125 0.125,0.125 0.069,0 0.125,-0.055 0.125,-0.125 v -4 c 0,-0.069 -0.056,-0.125 -0.125,-0.125 m 0,-6 c -0.069,0 -0.125,0.056 -0.125,0.125 v 4 c 0,0.07 0.056,0.125 0.125,0.125 0.069,0 0.125,-0.055 0.125,-0.125 v -4 c 0,-0.069 -0.056,-0.125 -0.125,-0.125 m 0,-5.923 c -0.069,0 -0.125,0.055 -0.125,0.125 v 3.923 c 0,0.07 0.056,0.125 0.125,0.125 0.069,0 0.125,-0.055 0.125,-0.125 v -3.923 c 0,-0.07 -0.056,-0.125 -0.125,-0.125" /><g
       id="g3310"
       style="fill:none;stroke:#000000;stroke-opacity:1;stroke-width:0.075;stroke-miterlimit:4;stroke-dasharray:none;fill-opacity:1"><path
         d="m 172.27088,282.20625 h -4 c -0.069,0 -0.125,0.056 -0.125,0.125 0,0.069 0.056,0.125 0.125,0.125 h 4 c 0.069,0 0.125,-0.056 0.125,-0.125 0,-0.069 -0.056,-0.125 -0.125,-0.125 m 6,0 h -4 c -0.069,0 -0.125,0.056 -0.125,0.125 0,0.069 0.056,0.125 0.125,0.125 h 4 c 0.069,0 0.125,-0.056 0.125,-0.125 0,-0.069 -0.056,-0.125 -0.125,-0.125 m 6,0 h -4 c -0.069,0 -0.125,0.056 -0.125,0.125 0,0.069 0.056,0.125 0.125,0.125 h 4 c 0.069,0 0.125,-0.056 0.125,-0.125 0,-0.069 -0.056,-0.125 -0.125,-0.125 m 6,0 h -4 c -0.069,0 -0.125,0.056 -0.125,0.125 0,0.069 0.056,0.125 0.125,0.125 h 4 c 0.069,0 0.125,-0.056 0.125,-0.125 0,-0.069 -0.056,-0.125 -0.125,-0.125 m 6,0 h -4 c -0.069,0 -0.125,0.056 -0.125,0.125 0,0.069 0.056,0.125 0.125,0.125 h 4 c 0.069,0 0.125,-0.056 0.125,-0.125 0,-0.069 -0.056,-0.125 -0.125,-0.125 m 6,0 h -4 c -0.069,0 -0.125,0.056 -0.125,0.125 0,0.069 0.056,0.125 0.125,0.125 h 4 c 0.069,0 0.125,-0.056 0.125,-0.125 0,-0.069 -0.056,-0.125 -0.125,-0.125 m 6,0 h -4 c -0.069,0 -0.125,0.056 -0.125,0.125 0,0.069 0.056,0.125 0.125,0.125 h 4 c 0.069,0 0.125,-0.056 0.125,-0.125 0,-0.069 -0.056,-0.125 -0.125,-0.125 m 6,0 h -4 c -0.069,0 -0.125,0.056 -0.125,0.125 0,0.069 0.056,0.125 0.125,0.125 h 4 c 0.069,0 0.125,-0.056 0.125,-0.125 0,-0.069 -0.056,-0.125 -0.125,-0.125 m 6,0 h -4 c -0.069,0 -0.125,0.056 -0.125,0.125 0,0.069 0.056,0.125 0.125,0.125 h 4 c 0.069,0 0.125,-0.056 0.125,-0.125 0,-0.069 -0.056,-0.125 -0.125,-0.125 m 6,0 h -4 c -0.069,0 -0.125,0.056 -0.125,0.125 0,0.069 0.056,0.125 0.125,0.125 h 4 c 0.069,0 0.125,-0.056 0.125,-0.125 0,-0.069 -0.056,-0.125 -0.125,-0.125 m 6,0 h -4 c -0.069,0 -0.125,0.056 -0.125,0.125 0,0.069 0.056,0.125 0.125,0.125 h 4 c 0.069,0 0.125,-0.056 0.125,-0.125 0,-0.069 -0.056,-0.125 -0.125,-0.125 m 6,0 h -4 c -0.069,0 -0.125,0.056 -0.125,0.125 0,0.069 0.056,0.125 0.125,0.125 h 4 c 0.069,0 0.125,-0.056 0.125,-0.125 0,-0.069 -0.056,-0.125 -0.125,-0.125 m 6,0 h -4 c -0.069,0 -0.125,0.056 -0.125,0.125 0,0.069 0.056,0.125 0.125,0.125 h 4 c 0.069,0 0.125,-0.056 0.125,-0.125 0,-0.069 -0.056,-0.125 -0.125,-0.125 m 6,0 h -4 c -0.069,0 -0.125,0.056 -0.125,0.125 0,0.069 0.056,0.125 0.125,0.125 h 4 c 0.069,0 0.125,-0.056 0.125,-0.125 0,-0.069 -0.056,-0.125 -0.125,-0.125 m 6,0 h -4 c -0.069,0 -0.125,0.056 -0.125,0.125 0,0.069 0.056,0.125 0.125,0.125 h 4 c 0.069,0 0.125,-0.056 0.125,-0.125 0,-0.069 -0.056,-0.125 -0.125,-0.125 m 6,0 h -4 c -0.069,0 -0.125,0.056 -0.125,0.125 0,0.069 0.056,0.125 0.125,0.125 h 4 c 0.069,0 0.125,-0.056 0.125,-0.125 0,-0.069 -0.056,-0.125 -0.125,-0.125 m 6,0 h -4 c -0.069,0 -0.125,0.056 -0.125,0.125 0,0.069 0.056,0.125 0.125,0.125 h 4 c 0.069,0 0.125,-0.056 0.125,-0.125 0,-0.069 -0.056,-0.125 -0.125,-0.125 m 6,0 h -4 c -0.069,0 -0.125,0.056 -0.125,0.125 0,0.069 0.056,0.125 0.125,0.125 h 4 c 0.069,0 0.125,-0.056 0.125,-0.125 0,-0.069 -0.056,-0.125 -0.125,-0.125 m 6,0 h -4 c -0.069,0 -0.125,0.056 -0.125,0.125 0,0.069 0.056,0.125 0.125,0.125 h 4 c 0.069,0 0.125,-0.056 0.125,-0.125 0,-0.069 -0.056,-0.125 -0.125,-0.125 m 6,0 h -4 c -0.069,0 -0.125,0.056 -0.125,0.125 0,0.069 0.056,0.125 0.125,0.125 h 4 c 0.069,0 0.125,-0.056 0.125,-0.125 0,-0.069 -0.056,-0.125 -0.125,-0.125 m 6,0 h -4 c -0.069,0 -0.125,0.056 -0.125,0.125 0,0.069 0.056,0.125 0.125,0.125 h 4 c 0.069,0 0.125,-0.056 0.125,-0.125 0,-0.069 -0.056,-0.125 -0.125,-0.125 m 6,0 h -4 c -0.069,0 -0.125,0.056 -0.125,0.125 0,0.069 0.056,0.125 0.125,0.125 h 4 c 0.069,0 0.125,-0.056 0.125,-0.125 0,-0.069 -0.056,-0.125 -0.125,-0.125 m 6,0 h -4 c -0.069,0 -0.125,0.056 -0.125,0.125 0,0.069 0.056,0.125 0.125,0.125 h 4 c 0.069,0 0.125,-0.056 0.125,-0.125 0,-0.069 -0.056,-0.125 -0.125,-0.125 m 6,0 h -4 c -0.07,0 -0.125,0.056 -0.125,0.125 0,0.069 0.055,0.125 0.125,0.125 h 4 c 0.069,0 0.125,-0.056 0.125,-0.125 0,-0.069 -0.056,-0.125 -0.125,-0.125 m 6,0 h -4 c -0.07,0 -0.125,0.056 -0.125,0.125 0,0.069 0.055,0.125 0.125,0.125 h 4 c 0.069,0 0.125,-0.056 0.125,-0.125 0,-0.069 -0.056,-0.125 -0.125,-0.125 m 6,0 h -4 c -0.07,0 -0.125,0.056 -0.125,0.125 0,0.069 0.055,0.125 0.125,0.125 h 4 c 0.069,0 0.125,-0.056 0.125,-0.125 0,-0.069 -0.056,-0.125 -0.125,-0.125 m 6,0 h -4 c -0.07,0 -0.125,0.056 -0.125,0.125 0,0.069 0.055,0.125 0.125,0.125 h 4 c 0.069,0 0.125,-0.056 0.125,-0.125 0,-0.069 -0.056,-0.125 -0.125,-0.125 m 6,0 h -4 c -0.07,0 -0.125,0.056 -0.125,0.125 0,0.069 0.055,0.125 0.125,0.125 h 4 c 0.069,0 0.125,-0.056 0.125,-0.125 0,-0.069 -0.056,-0.125 -0.125,-0.125 m 6,0 h -4 c -0.07,0 -0.125,0.056 -0.125,0.125 0,0.069 0.055,0.125 0.125,0.125 h 4 c 0.069,0 0.125,-0.056 0.125,-0.125 0,-0.069 -0.056,-0.125 -0.125,-0.125 m 6,0 h -4 c -0.07,0 -0.125,0.056 -0.125,0.125 0,0.069 0.055,0.125 0.125,0.125 h 4 c 0.069,0 0.125,-0.056 0.125,-0.125 0,-0.069 -0.056,-0.125 -0.125,-0.125 m 6,0 h -4 c -0.07,0 -0.125,0.056 -0.125,0.125 0,0.069 0.055,0.125 0.125,0.125 h 4 c 0.069,0 0.125,-0.056 0.125,-0.125 0,-0.069 -0.056,-0.125 -0.125,-0.125 m 6,0 h -4 c -0.07,0 -0.125,0.056 -0.125,0.125 0,0.069 0.055,0.125 0.125,0.125 h 4 c 0.069,0 0.125,-0.056 0.125,-0.125 0,-0.069 -0.056,-0.125 -0.125,-0.125 m 6,0 h -4 c -0.07,0 -0.125,0.056 -0.125,0.125 0,0.069 0.055,0.125 0.125,0.125 h 4 c 0.069,0 0.125,-0.056 0.125,-0.125 0,-0.069 -0.056,-0.125 -0.125,-0.125 m 6,0 h -4 c -0.07,0 -0.125,0.056 -0.125,0.125 0,0.069 0.055,0.125 0.125,0.125 h 4 c 0.069,0 0.125,-0.056 0.125,-0.125 0,-0.069 -0.056,-0.125 -0.125,-0.125 m 6,0 h -4 c -0.07,0 -0.125,0.056 -0.125,0.125 0,0.069 0.055,0.125 0.125,0.125 h 4 c 0.069,0 0.125,-0.056 0.125,-0.125 0,-0.069 -0.056,-0.125 -0.125,-0.125 m 6,0 h -4 c -0.07,0 -0.125,0.056 -0.125,0.125 0,0.069 0.055,0.125 0.125,0.125 h 4 c 0.069,0 0.125,-0.056 0.125,-0.125 0,-0.069 -0.056,-0.125 -0.125,-0.125 m 6,0 h -4 c -0.07,0 -0.125,0.056 -0.125,0.125 0,0.069 0.055,0.125 0.125,0.125 h 4 c 0.069,0 0.125,-0.056 0.125,-0.125 0,-0.069 -0.056,-0.125 -0.125,-0.125 m 6,0 h -4 c -0.07,0 -0.125,0.056 -0.125,0.125 0,0.069 0.055,0.125 0.125,0.125 h 4 c 0.069,0 0.125,-0.056 0.125,-0.125 0,-0.069 -0.056,-0.125 -0.125,-0.125 m 6,0 h -4 c -0.07,0 -0.125,0.056 -0.125,0.125 0,0.069 0.055,0.125 0.125,0.125 h 4 c 0.069,0 0.125,-0.056 0.125,-0.125 0,-0.069 -0.056,-0.125 -0.125,-0.125 m 6,0 h -4 c -0.07,0 -0.125,0.056 -0.125,0.125 0,0.069 0.055,0.125 0.125,0.125 h 4 c 0.069,0 0.125,-0.056 0.125,-0.125 0,-0.069 -0.056,-0.125 -0.125,-0.125 m 6,0 h -4 c -0.07,0 -0.125,0.056 -0.125,0.125 0,0.069 0.055,0.125 0.125,0.125 h 4 c 0.069,0 0.125,-0.056 0.125,-0.125 0,-0.069 -0.056,-0.125 -0.125,-0.125 m 6,0 h -4 c -0.07,0 -0.125,0.056 -0.125,0.125 0,0.069 0.055,0.125 0.125,0.125 h 4 c 0.069,0 0.125,-0.056 0.125,-0.125 0,-0.069 -0.056,-0.125 -0.125,-0.125"
         style="fill:none;fill-opacity:1;fill-rule:nonzero;stroke:#000000;stroke-opacity:1;stroke-width:0.075;stroke-miterlimit:4;stroke-dasharray:none"
         id="path1549"
         inkscape:connector-curvature="0" /><path
         d="m 168.27038,278.20625 c -0.069,0 -0.125,0.056 -0.125,0.125 v 4 c 0,0.069 0.056,0.125 0.125,0.125 0.069,0 0.125,-0.056 0.125,-0.125 v -4 c 0,-0.069 -0.056,-0.125 -0.125,-0.125 m 0,-6 c -0.069,0 -0.125,0.056 -0.125,0.125 v 4 c 0,0.069 0.056,0.125 0.125,0.125 0.069,0 0.125,-0.056 0.125,-0.125 v -4 c 0,-0.069 -0.056,-0.125 -0.125,-0.125 m 0,-6 c -0.069,0 -0.125,0.056 -0.125,0.125 v 4 c 0,0.069 0.056,0.125 0.125,0.125 0.069,0 0.125,-0.056 0.125,-0.125 v -4 c 0,-0.069 -0.056,-0.125 -0.125,-0.125 m 0,-6 c -0.069,0 -0.125,0.056 -0.125,0.125 v 4 c 0,0.069 0.056,0.125 0.125,0.125 0.069,0 0.125,-0.056 0.125,-0.125 v -4 c 0,-0.069 -0.056,-0.125 -0.125,-0.125 m 0,-6 c -0.069,0 -0.125,0.056 -0.125,0.125 v 4 c 0,0.069 0.056,0.125 0.125,0.125 0.069,0 0.125,-0.056 0.125,-0.125 v -4 c 0,-0.069 -0.056,-0.125 -0.125,-0.125 m 0,-6 c -0.069,0 -0.125,0.056 -0.125,0.125 v 4 c 0,0.069 0.056,0.125 0.125,0.125 0.069,0 0.125,-0.056 0.125,-0.125 v -4 c 0,-0.069 -0.056,-0.125 -0.125,-0.125 m 0,-6 c -0.069,0 -0.125,0.056 -0.125,0.125 v 4 c 0,0.069 0.056,0.125 0.125,0.125 0.069,0 0.125,-0.056 0.125,-0.125 v -4 c 0,-0.069 -0.056,-0.125 -0.125,-0.125 m 0,-6 c -0.069,0 -0.125,0.056 -0.125,0.125 v 4 c 0,0.069 0.056,0.125 0.125,0.125 0.069,0 0.125,-0.056 0.125,-0.125 v -4 c 0,-0.069 -0.056,-0.125 -0.125,-0.125 m 0,-6 c -0.069,0 -0.125,0.056 -0.125,0.125 v 4 c 0,0.069 0.056,0.125 0.125,0.125 0.069,0 0.125,-0.056 0.125,-0.125 v -4 c 0,-0.069 -0.056,-0.125 -0.125,-0.125 m 0,-6 c -0.069,0 -0.125,0.056 -0.125,0.125 v 4 c 0,0.069 0.056,0.125 0.125,0.125 0.069,0 0.125,-0.056 0.125,-0.125 v -4 c 0,-0.069 -0.056,-0.125 -0.125,-0.125 m 0,-6 c -0.069,0 -0.125,0.056 -0.125,0.125 v 4 c 0,0.069 0.056,0.125 0.125,0.125 0.069,0 0.125,-0.056 0.125,-0.125 v -4 c 0,-0.069 -0.056,-0.125 -0.125,-0.125 m 0,-6 c -0.069,0 -0.125,0.056 -0.125,0.125 v 4 c 0,0.069 0.056,0.125 0.125,0.125 0.069,0 0.125,-0.056 0.125,-0.125 v -4 c 0,-0.069 -0.056,-0.125 -0.125,-0.125 m 0,-6 c -0.069,0 -0.125,0.056 -0.125,0.125 v 4 c 0,0.069 0.056,0.125 0.125,0.125 0.069,0 0.125,-0.056 0.125,-0.125 v -4 c 0,-0.069 -0.056,-0.125 -0.125,-0.125 m 0,-6 c -0.069,0 -0.125,0.056 -0.125,0.125 v 4 c 0,0.069 0.056,0.125 0.125,0.125 0.069,0 0.125,-0.056 0.125,-0.125 v -4 c 0,-0.069 -0.056,-0.125 -0.125,-0.125 m 0,-6 c -0.069,0 -0.125,0.056 -0.125,0.125 v 4 c 0,0.069 0.056,0.125 0.125,0.125 0.069,0 0.125,-0.056 0.125,-0.125 v -4 c 0,-0.069 -0.056,-0.125 -0.125,-0.125 m 0,-6 c -0.069,0 -0.125,0.056 -0.125,0.125 v 4 c 0,0.069 0.056,0.125 0.125,0.125 0.069,0 0.125,-0.056 0.125,-0.125 v -4 c 0,-0.069 -0.056,-0.125 -0.125,-0.125 m 0,-6 c -0.069,0 -0.125,0.056 -0.125,0.125 v 4 c 0,0.069 0.056,0.125 0.125,0.125 0.069,0 0.125,-0.056 0.125,-0.125 v -4 c 0,-0.069 -0.056,-0.125 -0.125,-0.125 m 0,-6 c -0.069,0 -0.125,0.056 -0.125,0.125 v 4 c 0,0.069 0.056,0.125 0.125,0.125 0.069,0 0.125,-0.056 0.125,-0.125 v -4 c 0,-0.069 -0.056,-0.125 -0.125,-0.125 m 0,-6 c -0.069,0 -0.125,0.056 -0.125,0.125 v 4 c 0,0.069 0.056,0.125 0.125,0.125 0.069,0 0.125,-0.056 0.125,-0.125 v -4 c 0,-0.069 -0.056,-0.125 -0.125,-0.125 m 0,-6 c -0.069,0 -0.125,0.056 -0.125,0.125 v 4 c 0,0.069 0.056,0.125 0.125,0.125 0.069,0 0.125,-0.056 0.125,-0.125 v -4 c 0,-0.069 -0.056,-0.125 -0.125,-0.125 m 0,-6 c -0.069,0 -0.125,0.056 -0.125,0.125 v 4 c 0,0.069 0.056,0.125 0.125,0.125 0.069,0 0.125,-0.056 0.125,-0.125 v -4 c 0,-0.069 -0.056,-0.125 -0.125,-0.125 m 0,-6 c -0.069,0 -0.125,0.056 -0.125,0.125 v 4 c 0,0.069 0.056,0.125 0.125,0.125 0.069,0 0.125,-0.056 0.125,-0.125 v -4 c 0,-0.069 -0.056,-0.125 -0.125,-0.125 m 0,-6 c -0.069,0 -0.125,0.056 -0.125,0.125 v 4 c 0,0.069 0.056,0.125 0.125,0.125 0.069,0 0.125,-0.056 0.125,-0.125 v -4 c 0,-0.069 -0.056,-0.125 -0.125,-0.125 m 0,-6 c -0.069,0 -0.125,0.056 -0.125,0.125 v 4 c 0,0.069 0.056,0.125 0.125,0.125 0.069,0 0.125,-0.056 0.125,-0.125 v -4 c 0,-0.069 -0.056,-0.125 -0.125,-0.125 m 0,-3.962 c -0.069,0 -0.125,0.056 -0.125,0.125 v 1.962 c 0,0.069 0.056,0.125 0.125,0.125 0.069,0 0.125,-0.056 0.125,-0.125 v -1.962 c 0,-0.069 -0.056,-0.125 -0.125,-0.125"
         style="fill:none;fill-opacity:1;fill-rule:nonzero;stroke:#000000;stroke-opacity:1;stroke-width:0.075;stroke-miterlimit:4;stroke-dasharray:none"
         id="path1557"
         inkscape:connector-curvature="0" /><path
         d="m 46.270379,408.20675 h -4 c -0.069,0 -0.125,0.056 -0.125,0.125 0,0.069 0.056,0.125 0.125,0.125 h 4 c 0.069,0 0.125,-0.056 0.125,-0.125 0,-0.069 -0.056,-0.125 -0.125,-0.125 m 6,0 h -4 c -0.069,0 -0.125,0.056 -0.125,0.125 0,0.069 0.056,0.125 0.125,0.125 h 4 c 0.069,0 0.125,-0.056 0.125,-0.125 0,-0.069 -0.056,-0.125 -0.125,-0.125 m 6,0 h -4 c -0.069,0 -0.125,0.056 -0.125,0.125 0,0.069 0.056,0.125 0.125,0.125 h 4 c 0.069,0 0.125,-0.056 0.125,-0.125 0,-0.069 -0.056,-0.125 -0.125,-0.125 m 6,0 h -4 c -0.069,0 -0.125,0.056 -0.125,0.125 0,0.069 0.056,0.125 0.125,0.125 h 4 c 0.069,0 0.125,-0.056 0.125,-0.125 0,-0.069 -0.056,-0.125 -0.125,-0.125 m 6,0 h -4 c -0.069,0 -0.125,0.056 -0.125,0.125 0,0.069 0.056,0.125 0.125,0.125 h 4 c 0.069,0 0.125,-0.056 0.125,-0.125 0,-0.069 -0.056,-0.125 -0.125,-0.125 m 6,0 h -4 c -0.069,0 -0.125,0.056 -0.125,0.125 0,0.069 0.056,0.125 0.125,0.125 h 4 c 0.069,0 0.125,-0.056 0.125,-0.125 0,-0.069 -0.056,-0.125 -0.125,-0.125 m 6,0 h -4 c -0.069,0 -0.125,0.056 -0.125,0.125 0,0.069 0.056,0.125 0.125,0.125 h 4 c 0.069,0 0.125,-0.056 0.125,-0.125 0,-0.069 -0.056,-0.125 -0.125,-0.125 m 6,0 h -4 c -0.069,0 -0.125,0.056 -0.125,0.125 0,0.069 0.056,0.125 0.125,0.125 h 4 c 0.069,0 0.125,-0.056 0.125,-0.125 0,-0.069 -0.056,-0.125 -0.125,-0.125 m 6,0 h -4 c -0.069,0 -0.125,0.056 -0.125,0.125 0,0.069 0.056,0.125 0.125,0.125 h 4 c 0.069,0 0.125,-0.056 0.125,-0.125 0,-0.069 -0.056,-0.125 -0.125,-0.125 m 6.000001,0 h -4.000001 c -0.069,0 -0.125,0.056 -0.125,0.125 0,0.069 0.056,0.125 0.125,0.125 h 4.000001 c 0.069,0 0.125,-0.056 0.125,-0.125 0,-0.069 -0.056,-0.125 -0.125,-0.125 m 6,0 h -4 c -0.069,0 -0.125,0.056 -0.125,0.125 0,0.069 0.056,0.125 0.125,0.125 h 4 c 0.069,0 0.125,-0.056 0.125,-0.125 0,-0.069 -0.056,-0.125 -0.125,-0.125 m 6,0 h -4 c -0.069,0 -0.125,0.056 -0.125,0.125 0,0.069 0.056,0.125 0.125,0.125 h 4 c 0.069,0 0.125,-0.056 0.125,-0.125 0,-0.069 -0.056,-0.125 -0.125,-0.125 m 6,0 h -4 c -0.069,0 -0.125,0.056 -0.125,0.125 0,0.069 0.056,0.125 0.125,0.125 h 4 c 0.069,0 0.125,-0.056 0.125,-0.125 0,-0.069 -0.056,-0.125 -0.125,-0.125 m 6,0 h -4 c -0.069,0 -0.125,0.056 -0.125,0.125 0,0.069 0.056,0.125 0.125,0.125 h 4 c 0.069,0 0.125,-0.056 0.125,-0.125 0,-0.069 -0.056,-0.125 -0.125,-0.125 m 6,0 h -4 c -0.069,0 -0.125,0.056 -0.125,0.125 0,0.069 0.056,0.125 0.125,0.125 h 4 c 0.069,0 0.125,-0.056 0.125,-0.125 0,-0.069 -0.056,-0.125 -0.125,-0.125 m 6,0 h -4 c -0.069,0 -0.125,0.056 -0.125,0.125 0,0.069 0.056,0.125 0.125,0.125 h 4 c 0.069,0 0.125,-0.056 0.125,-0.125 0,-0.069 -0.056,-0.125 -0.125,-0.125 m 6,0 h -4 c -0.069,0 -0.125,0.056 -0.125,0.125 0,0.069 0.056,0.125 0.125,0.125 h 4 c 0.069,0 0.125,-0.056 0.125,-0.125 0,-0.069 -0.056,-0.125 -0.125,-0.125 m 6,0 h -4 c -0.069,0 -0.125,0.056 -0.125,0.125 0,0.069 0.056,0.125 0.125,0.125 h 4 c 0.069,0 0.125,-0.056 0.125,-0.125 0,-0.069 -0.056,-0.125 -0.125,-0.125 m 6,0 h -4 c -0.069,0 -0.125,0.056 -0.125,0.125 0,0.069 0.056,0.125 0.125,0.125 h 4 c 0.069,0 0.125,-0.056 0.125,-0.125 0,-0.069 -0.056,-0.125 -0.125,-0.125 m 6,0 h -4 c -0.069,0 -0.125,0.056 -0.125,0.125 0,0.069 0.056,0.125 0.125,0.125 h 4 c 0.069,0 0.125,-0.056 0.125,-0.125 0,-0.069 -0.056,-0.125 -0.125,-0.125 m 6,0 h -4 c -0.069,0 -0.125,0.056 -0.125,0.125 0,0.069 0.056,0.125 0.125,0.125 h 4 c 0.069,0 0.125,-0.056 0.125,-0.125 0,-0.069 -0.056,-0.125 -0.125,-0.125 m 6,0 h -4 c -0.069,0 -0.125,0.056 -0.125,0.125 0,0.069 0.056,0.125 0.125,0.125 h 4 c 0.069,0 0.125,-0.056 0.125,-0.125 0,-0.069 -0.056,-0.125 -0.125,-0.125 m 6,0 h -4 c -0.069,0 -0.125,0.056 -0.125,0.125 0,0.069 0.056,0.125 0.125,0.125 h 4 c 0.069,0 0.125,-0.056 0.125,-0.125 0,-0.069 -0.056,-0.125 -0.125,-0.125 m 6,0 h -4 c -0.069,0 -0.125,0.056 -0.125,0.125 0,0.069 0.056,0.125 0.125,0.125 h 4 c 0.069,0 0.125,-0.056 0.125,-0.125 0,-0.069 -0.056,-0.125 -0.125,-0.125 m 6,0 h -4 c -0.069,0 -0.125,0.056 -0.125,0.125 0,0.069 0.056,0.125 0.125,0.125 h 4 c 0.069,0 0.125,-0.056 0.125,-0.125 0,-0.069 -0.056,-0.125 -0.125,-0.125 m 6,0 h -4 c -0.069,0 -0.125,0.056 -0.125,0.125 0,0.069 0.056,0.125 0.125,0.125 h 4 c 0.069,0 0.125,-0.056 0.125,-0.125 0,-0.069 -0.056,-0.125 -0.125,-0.125 m 6,0 h -4 c -0.069,0 -0.125,0.056 -0.125,0.125 0,0.069 0.056,0.125 0.125,0.125 h 4 c 0.069,0 0.125,-0.056 0.125,-0.125 0,-0.069 -0.056,-0.125 -0.125,-0.125 m 6,0 h -4 c -0.069,0 -0.125,0.056 -0.125,0.125 0,0.069 0.056,0.125 0.125,0.125 h 4 c 0.069,0 0.125,-0.056 0.125,-0.125 0,-0.069 -0.056,-0.125 -0.125,-0.125 m 6,0 h -4 c -0.069,0 -0.125,0.056 -0.125,0.125 0,0.069 0.056,0.125 0.125,0.125 h 4 c 0.069,0 0.125,-0.056 0.125,-0.125 0,-0.069 -0.056,-0.125 -0.125,-0.125 m 6,0 h -4 c -0.069,0 -0.125,0.056 -0.125,0.125 0,0.069 0.056,0.125 0.125,0.125 h 4 c 0.069,0 0.125,-0.056 0.125,-0.125 0,-0.069 -0.056,-0.125 -0.125,-0.125 m 6,0 h -4 c -0.069,0 -0.125,0.056 -0.125,0.125 0,0.069 0.056,0.125 0.125,0.125 h 4 c 0.069,0 0.125,-0.056 0.125,-0.125 0,-0.069 -0.056,-0.125 -0.125,-0.125 m 6,0 h -4 c -0.069,0 -0.125,0.056 -0.125,0.125 0,0.069 0.056,0.125 0.125,0.125 h 4 c 0.069,0 0.125,-0.056 0.125,-0.125 0,-0.069 -0.056,-0.125 -0.125,-0.125 m 6,0 h -4 c -0.069,0 -0.125,0.056 -0.125,0.125 0,0.069 0.056,0.125 0.125,0.125 h 4 c 0.069,0 0.125,-0.056 0.125,-0.125 0,-0.069 -0.056,-0.125 -0.125,-0.125 m 6,0 h -4 c -0.069,0 -0.125,0.056 -0.125,0.125 0,0.069 0.056,0.125 0.125,0.125 h 4 c 0.069,0 0.125,-0.056 0.125,-0.125 0,-0.069 -0.056,-0.125 -0.125,-0.125 m 6,0 h -4 c -0.069,0 -0.125,0.056 -0.125,0.125 0,0.069 0.056,0.125 0.125,0.125 h 4 c 0.069,0 0.125,-0.056 0.125,-0.125 0,-0.069 -0.056,-0.125 -0.125,-0.125 m 6,0 h -4 c -0.069,0 -0.125,0.056 -0.125,0.125 0,0.069 0.056,0.125 0.125,0.125 h 4 c 0.069,0 0.125,-0.056 0.125,-0.125 0,-0.069 -0.056,-0.125 -0.125,-0.125 m 6,0 h -4 c -0.069,0 -0.125,0.056 -0.125,0.125 0,0.069 0.056,0.125 0.125,0.125 h 4 c 0.069,0 0.125,-0.056 0.125,-0.125 0,-0.069 -0.056,-0.125 -0.125,-0.125 m 6,0 h -4 c -0.069,0 -0.125,0.056 -0.125,0.125 0,0.069 0.056,0.125 0.125,0.125 h 4 c 0.069,0 0.125,-0.056 0.125,-0.125 0,-0.069 -0.056,-0.125 -0.125,-0.125 m 6,0 h -4 c -0.069,0 -0.125,0.056 -0.125,0.125 0,0.069 0.056,0.125 0.125,0.125 h 4 c 0.069,0 0.125,-0.056 0.125,-0.125 0,-0.069 -0.056,-0.125 -0.125,-0.125 m 6,0 h -4 c -0.069,0 -0.125,0.056 -0.125,0.125 0,0.069 0.056,0.125 0.125,0.125 h 4 c 0.069,0 0.125,-0.056 0.125,-0.125 0,-0.069 -0.056,-0.125 -0.125,-0.125 m 6,0 h -4 c -0.069,0 -0.125,0.056 -0.125,0.125 0,0.069 0.056,0.125 0.125,0.125 h 4 c 0.069,0 0.125,-0.056 0.125,-0.125 0,-0.069 -0.056,-0.125 -0.125,-0.125 m 6,0 h -4 c -0.069,0 -0.125,0.056 -0.125,0.125 0,0.069 0.056,0.125 0.125,0.125 h 4 c 0.069,0 0.125,-0.056 0.125,-0.125 0,-0.069 -0.056,-0.125 -0.125,-0.125 m 6,0 h -4 c -0.069,0 -0.125,0.056 -0.125,0.125 0,0.069 0.056,0.125 0.125,0.125 h 4 c 0.069,0 0.125,-0.056 0.125,-0.125 0,-0.069 -0.056,-0.125 -0.125,-0.125 m 6,0 h -4 c -0.069,0 -0.125,0.056 -0.125,0.125 0,0.069 0.056,0.125 0.125,0.125 h 4 c 0.069,0 0.125,-0.056 0.125,-0.125 0,-0.069 -0.056,-0.125 -0.125,-0.125 m 6,0 h -4 c -0.069,0 -0.125,0.056 -0.125,0.125 0,0.069 0.056,0.125 0.125,0.125 h 4 c 0.069,0 0.125,-0.056 0.125,-0.125 0,-0.069 -0.056,-0.125 -0.125,-0.125 m 6,0 h -4 c -0.069,0 -0.125,0.056 -0.125,0.125 0,0.069 0.056,0.125 0.125,0.125 h 4 c 0.069,0 0.125,-0.056 0.125,-0.125 0,-0.069 -0.056,-0.125 -0.125,-0.125 m 6,0 h -4 c -0.069,0 -0.125,0.056 -0.125,0.125 0,0.069 0.056,0.125 0.125,0.125 h 4 c 0.069,0 0.125,-0.056 0.125,-0.125 0,-0.069 -0.056,-0.125 -0.125,-0.125 m 6,0 h -4 c -0.069,0 -0.125,0.056 -0.125,0.125 0,0.069 0.056,0.125 0.125,0.125 h 4 c 0.069,0 0.125,-0.056 0.125,-0.125 0,-0.069 -0.056,-0.125 -0.125,-0.125 m 6,0 h -4 c -0.069,0 -0.125,0.056 -0.125,0.125 0,0.069 0.056,0.125 0.125,0.125 h 4 c 0.069,0 0.125,-0.056 0.125,-0.125 0,-0.069 -0.056,-0.125 -0.125,-0.125 m 6,0 h -4 c -0.069,0 -0.125,0.056 -0.125,0.125 0,0.069 0.056,0.125 0.125,0.125 h 4 c 0.069,0 0.125,-0.056 0.125,-0.125 0,-0.069 -0.056,-0.125 -0.125,-0.125 m 6,0 h -4 c -0.069,0 -0.125,0.056 -0.125,0.125 0,0.069 0.056,0.125 0.125,0.125 h 4 c 0.069,0 0.125,-0.056 0.125,-0.125 0,-0.069 -0.056,-0.125 -0.125,-0.125 m 6,0 h -4 c -0.069,0 -0.125,0.056 -0.125,0.125 0,0.069 0.056,0.125 0.125,0.125 h 4 c 0.069,0 0.125,-0.056 0.125,-0.125 0,-0.069 -0.056,-0.125 -0.125,-0.125 m 6,0 h -4 c -0.069,0 -0.125,0.056 -0.125,0.125 0,0.069 0.056,0.125 0.125,0.125 h 4 c 0.069,0 0.125,-0.056 0.125,-0.125 0,-0.069 -0.056,-0.125 -0.125,-0.125 m 6,0 h -4 c -0.069,0 -0.125,0.056 -0.125,0.125 0,0.069 0.056,0.125 0.125,0.125 h 4 c 0.069,0 0.125,-0.056 0.125,-0.125 0,-0.069 -0.056,-0.125 -0.125,-0.125 m 6,0 h -4 c -0.069,0 -0.125,0.056 -0.125,0.125 0,0.069 0.056,0.125 0.125,0.125 h 4 c 0.069,0 0.125,-0.056 0.125,-0.125 0,-0.069 -0.056,-0.125 -0.125,-0.125 m 6,0 h -4 c -0.069,0 -0.125,0.056 -0.125,0.125 0,0.069 0.056,0.125 0.125,0.125 h 4 c 0.069,0 0.125,-0.056 0.125,-0.125 0,-0.069 -0.056,-0.125 -0.125,-0.125 m 6,0 h -4 c -0.069,0 -0.125,0.056 -0.125,0.125 0,0.069 0.056,0.125 0.125,0.125 h 4 c 0.069,0 0.125,-0.056 0.125,-0.125 0,-0.069 -0.056,-0.125 -0.125,-0.125 m 6,0 h -4 c -0.069,0 -0.125,0.056 -0.125,0.125 0,0.069 0.056,0.125 0.125,0.125 h 4 c 0.069,0 0.125,-0.056 0.125,-0.125 0,-0.069 -0.056,-0.125 -0.125,-0.125 m 6,0 h -4 c -0.069,0 -0.125,0.056 -0.125,0.125 0,0.069 0.056,0.125 0.125,0.125 h 4 c 0.069,0 0.125,-0.056 0.125,-0.125 0,-0.069 -0.056,-0.125 -0.125,-0.125 m 6,0 h -4 c -0.069,0 -0.125,0.056 -0.125,0.125 0,0.069 0.056,0.125 0.125,0.125 h 4 c 0.069,0 0.125,-0.056 0.125,-0.125 0,-0.069 -0.056,-0.125 -0.125,-0.125 m 6,0 h -4 c -0.069,0 -0.125,0.056 -0.125,0.125 0,0.069 0.056,0.125 0.125,0.125 h 4 c 0.069,0 0.125,-0.056 0.125,-0.125 0,-0.069 -0.056,-0.125 -0.125,-0.125 m 6,0 h -4 c -0.069,0 -0.125,0.056 -0.125,0.125 0,0.069 0.056,0.125 0.125,0.125 h 4 c 0.069,0 0.125,-0.056 0.125,-0.125 0,-0.069 -0.056,-0.125 -0.125,-0.125 m 6,0 h -4 c -0.069,0 -0.125,0.056 -0.125,0.125 0,0.069 0.056,0.125 0.125,0.125 h 4 c 0.069,0 0.125,-0.056 0.125,-0.125 0,-0.069 -0.056,-0.125 -0.125,-0.125"
         style="fill:none;fill-opacity:1;fill-rule:nonzero;stroke:#000000;stroke-opacity:1;stroke-width:0.075;stroke-miterlimit:4;stroke-dasharray:none"
         id="path1565"
         inkscape:connector-curvature="0" /><path
         d="m 46.270379,554.16815 h -4 c -0.069,0 -0.125,0.056 -0.125,0.125 0,0.069 0.056,0.125 0.125,0.125 h 4 c 0.069,0 0.125,-0.056 0.125,-0.125 0,-0.069 -0.056,-0.125 -0.125,-0.125 m 6,0 h -4 c -0.069,0 -0.125,0.056 -0.125,0.125 0,0.069 0.056,0.125 0.125,0.125 h 4 c 0.069,0 0.125,-0.056 0.125,-0.125 0,-0.069 -0.056,-0.125 -0.125,-0.125 m 6,0 h -4 c -0.069,0 -0.125,0.056 -0.125,0.125 0,0.069 0.056,0.125 0.125,0.125 h 4 c 0.069,0 0.125,-0.056 0.125,-0.125 0,-0.069 -0.056,-0.125 -0.125,-0.125 m 6,0 h -4 c -0.069,0 -0.125,0.056 -0.125,0.125 0,0.069 0.056,0.125 0.125,0.125 h 4 c 0.069,0 0.125,-0.056 0.125,-0.125 0,-0.069 -0.056,-0.125 -0.125,-0.125 m 6,0 h -4 c -0.069,0 -0.125,0.056 -0.125,0.125 0,0.069 0.056,0.125 0.125,0.125 h 4 c 0.069,0 0.125,-0.056 0.125,-0.125 0,-0.069 -0.056,-0.125 -0.125,-0.125 m 6,0 h -4 c -0.069,0 -0.125,0.056 -0.125,0.125 0,0.069 0.056,0.125 0.125,0.125 h 4 c 0.069,0 0.125,-0.056 0.125,-0.125 0,-0.069 -0.056,-0.125 -0.125,-0.125 m 6,0 h -4 c -0.069,0 -0.125,0.056 -0.125,0.125 0,0.069 0.056,0.125 0.125,0.125 h 4 c 0.069,0 0.125,-0.056 0.125,-0.125 0,-0.069 -0.056,-0.125 -0.125,-0.125 m 6,0 h -4 c -0.069,0 -0.125,0.056 -0.125,0.125 0,0.069 0.056,0.125 0.125,0.125 h 4 c 0.069,0 0.125,-0.056 0.125,-0.125 0,-0.069 -0.056,-0.125 -0.125,-0.125 m 6,0 h -4 c -0.069,0 -0.125,0.056 -0.125,0.125 0,0.069 0.056,0.125 0.125,0.125 h 4 c 0.069,0 0.125,-0.056 0.125,-0.125 0,-0.069 -0.056,-0.125 -0.125,-0.125 m 6.000001,0 h -4.000001 c -0.069,0 -0.125,0.056 -0.125,0.125 0,0.069 0.056,0.125 0.125,0.125 h 4.000001 c 0.069,0 0.125,-0.056 0.125,-0.125 0,-0.069 -0.056,-0.125 -0.125,-0.125 m 6,0 h -4 c -0.069,0 -0.125,0.056 -0.125,0.125 0,0.069 0.056,0.125 0.125,0.125 h 4 c 0.069,0 0.125,-0.056 0.125,-0.125 0,-0.069 -0.056,-0.125 -0.125,-0.125 m 6,0 h -4 c -0.069,0 -0.125,0.056 -0.125,0.125 0,0.069 0.056,0.125 0.125,0.125 h 4 c 0.069,0 0.125,-0.056 0.125,-0.125 0,-0.069 -0.056,-0.125 -0.125,-0.125 m 6,0 h -4 c -0.069,0 -0.125,0.056 -0.125,0.125 0,0.069 0.056,0.125 0.125,0.125 h 4 c 0.069,0 0.125,-0.056 0.125,-0.125 0,-0.069 -0.056,-0.125 -0.125,-0.125 m 6,0 h -4 c -0.069,0 -0.125,0.056 -0.125,0.125 0,0.069 0.056,0.125 0.125,0.125 h 4 c 0.069,0 0.125,-0.056 0.125,-0.125 0,-0.069 -0.056,-0.125 -0.125,-0.125 m 6,0 h -4 c -0.069,0 -0.125,0.056 -0.125,0.125 0,0.069 0.056,0.125 0.125,0.125 h 4 c 0.069,0 0.125,-0.056 0.125,-0.125 0,-0.069 -0.056,-0.125 -0.125,-0.125 m 6,0 h -4 c -0.069,0 -0.125,0.056 -0.125,0.125 0,0.069 0.056,0.125 0.125,0.125 h 4 c 0.069,0 0.125,-0.056 0.125,-0.125 0,-0.069 -0.056,-0.125 -0.125,-0.125 m 6,0 h -4 c -0.069,0 -0.125,0.056 -0.125,0.125 0,0.069 0.056,0.125 0.125,0.125 h 4 c 0.069,0 0.125,-0.056 0.125,-0.125 0,-0.069 -0.056,-0.125 -0.125,-0.125 m 6,0 h -4 c -0.069,0 -0.125,0.056 -0.125,0.125 0,0.069 0.056,0.125 0.125,0.125 h 4 c 0.069,0 0.125,-0.056 0.125,-0.125 0,-0.069 -0.056,-0.125 -0.125,-0.125 m 6,0 h -4 c -0.069,0 -0.125,0.056 -0.125,0.125 0,0.069 0.056,0.125 0.125,0.125 h 4 c 0.069,0 0.125,-0.056 0.125,-0.125 0,-0.069 -0.056,-0.125 -0.125,-0.125 m 6,0 h -4 c -0.069,0 -0.125,0.056 -0.125,0.125 0,0.069 0.056,0.125 0.125,0.125 h 4 c 0.069,0 0.125,-0.056 0.125,-0.125 0,-0.069 -0.056,-0.125 -0.125,-0.125 m 6,0 h -4 c -0.069,0 -0.125,0.056 -0.125,0.125 0,0.069 0.056,0.125 0.125,0.125 h 4 c 0.069,0 0.125,-0.056 0.125,-0.125 0,-0.069 -0.056,-0.125 -0.125,-0.125 m 6,0 h -4 c -0.069,0 -0.125,0.056 -0.125,0.125 0,0.069 0.056,0.125 0.125,0.125 h 4 c 0.069,0 0.125,-0.056 0.125,-0.125 0,-0.069 -0.056,-0.125 -0.125,-0.125 m 6,0 h -4 c -0.069,0 -0.125,0.056 -0.125,0.125 0,0.069 0.056,0.125 0.125,0.125 h 4 c 0.069,0 0.125,-0.056 0.125,-0.125 0,-0.069 -0.056,-0.125 -0.125,-0.125 m 6,0 h -4 c -0.069,0 -0.125,0.056 -0.125,0.125 0,0.069 0.056,0.125 0.125,0.125 h 4 c 0.069,0 0.125,-0.056 0.125,-0.125 0,-0.069 -0.056,-0.125 -0.125,-0.125 m 6,0 h -4 c -0.069,0 -0.125,0.056 -0.125,0.125 0,0.069 0.056,0.125 0.125,0.125 h 4 c 0.069,0 0.125,-0.056 0.125,-0.125 0,-0.069 -0.056,-0.125 -0.125,-0.125 m 6,0 h -4 c -0.069,0 -0.125,0.056 -0.125,0.125 0,0.069 0.056,0.125 0.125,0.125 h 4 c 0.069,0 0.125,-0.056 0.125,-0.125 0,-0.069 -0.056,-0.125 -0.125,-0.125 m 6,0 h -4 c -0.069,0 -0.125,0.056 -0.125,0.125 0,0.069 0.056,0.125 0.125,0.125 h 4 c 0.069,0 0.125,-0.056 0.125,-0.125 0,-0.069 -0.056,-0.125 -0.125,-0.125 m 6,0 h -4 c -0.069,0 -0.125,0.056 -0.125,0.125 0,0.069 0.056,0.125 0.125,0.125 h 4 c 0.069,0 0.125,-0.056 0.125,-0.125 0,-0.069 -0.056,-0.125 -0.125,-0.125 m 6,0 h -4 c -0.069,0 -0.125,0.056 -0.125,0.125 0,0.069 0.056,0.125 0.125,0.125 h 4 c 0.069,0 0.125,-0.056 0.125,-0.125 0,-0.069 -0.056,-0.125 -0.125,-0.125 m 6,0 h -4 c -0.069,0 -0.125,0.056 -0.125,0.125 0,0.069 0.056,0.125 0.125,0.125 h 4 c 0.069,0 0.125,-0.056 0.125,-0.125 0,-0.069 -0.056,-0.125 -0.125,-0.125 m 6,0 h -4 c -0.069,0 -0.125,0.056 -0.125,0.125 0,0.069 0.056,0.125 0.125,0.125 h 4 c 0.069,0 0.125,-0.056 0.125,-0.125 0,-0.069 -0.056,-0.125 -0.125,-0.125 m 6,0 h -4 c -0.069,0 -0.125,0.056 -0.125,0.125 0,0.069 0.056,0.125 0.125,0.125 h 4 c 0.069,0 0.125,-0.056 0.125,-0.125 0,-0.069 -0.056,-0.125 -0.125,-0.125 m 6,0 h -4 c -0.069,0 -0.125,0.056 -0.125,0.125 0,0.069 0.056,0.125 0.125,0.125 h 4 c 0.069,0 0.125,-0.056 0.125,-0.125 0,-0.069 -0.056,-0.125 -0.125,-0.125 m 6,0 h -4 c -0.069,0 -0.125,0.056 -0.125,0.125 0,0.069 0.056,0.125 0.125,0.125 h 4 c 0.069,0 0.125,-0.056 0.125,-0.125 0,-0.069 -0.056,-0.125 -0.125,-0.125 m 6,0 h -4 c -0.069,0 -0.125,0.056 -0.125,0.125 0,0.069 0.056,0.125 0.125,0.125 h 4 c 0.069,0 0.125,-0.056 0.125,-0.125 0,-0.069 -0.056,-0.125 -0.125,-0.125 m 6,0 h -4 c -0.069,0 -0.125,0.056 -0.125,0.125 0,0.069 0.056,0.125 0.125,0.125 h 4 c 0.069,0 0.125,-0.056 0.125,-0.125 0,-0.069 -0.056,-0.125 -0.125,-0.125 m 6,0 h -4 c -0.069,0 -0.125,0.056 -0.125,0.125 0,0.069 0.056,0.125 0.125,0.125 h 4 c 0.069,0 0.125,-0.056 0.125,-0.125 0,-0.069 -0.056,-0.125 -0.125,-0.125 m 6,0 h -4 c -0.069,0 -0.125,0.056 -0.125,0.125 0,0.069 0.056,0.125 0.125,0.125 h 4 c 0.069,0 0.125,-0.056 0.125,-0.125 0,-0.069 -0.056,-0.125 -0.125,-0.125 m 6,0 h -4 c -0.069,0 -0.125,0.056 -0.125,0.125 0,0.069 0.056,0.125 0.125,0.125 h 4 c 0.069,0 0.125,-0.056 0.125,-0.125 0,-0.069 -0.056,-0.125 -0.125,-0.125 m 6,0 h -4 c -0.069,0 -0.125,0.056 -0.125,0.125 0,0.069 0.056,0.125 0.125,0.125 h 4 c 0.069,0 0.125,-0.056 0.125,-0.125 0,-0.069 -0.056,-0.125 -0.125,-0.125 m 6,0 h -4 c -0.069,0 -0.125,0.056 -0.125,0.125 0,0.069 0.056,0.125 0.125,0.125 h 4 c 0.069,0 0.125,-0.056 0.125,-0.125 0,-0.069 -0.056,-0.125 -0.125,-0.125 m 6,0 h -4 c -0.069,0 -0.125,0.056 -0.125,0.125 0,0.069 0.056,0.125 0.125,0.125 h 4 c 0.069,0 0.125,-0.056 0.125,-0.125 0,-0.069 -0.056,-0.125 -0.125,-0.125 m 6,0 h -4 c -0.069,0 -0.125,0.056 -0.125,0.125 0,0.069 0.056,0.125 0.125,0.125 h 4 c 0.069,0 0.125,-0.056 0.125,-0.125 0,-0.069 -0.056,-0.125 -0.125,-0.125 m 6,0 h -4 c -0.069,0 -0.125,0.056 -0.125,0.125 0,0.069 0.056,0.125 0.125,0.125 h 4 c 0.069,0 0.125,-0.056 0.125,-0.125 0,-0.069 -0.056,-0.125 -0.125,-0.125 m 6,0 h -4 c -0.069,0 -0.125,0.056 -0.125,0.125 0,0.069 0.056,0.125 0.125,0.125 h 4 c 0.069,0 0.125,-0.056 0.125,-0.125 0,-0.069 -0.056,-0.125 -0.125,-0.125 m 6,0 h -4 c -0.069,0 -0.125,0.056 -0.125,0.125 0,0.069 0.056,0.125 0.125,0.125 h 4 c 0.069,0 0.125,-0.056 0.125,-0.125 0,-0.069 -0.056,-0.125 -0.125,-0.125 m 6,0 h -4 c -0.069,0 -0.125,0.056 -0.125,0.125 0,0.069 0.056,0.125 0.125,0.125 h 4 c 0.069,0 0.125,-0.056 0.125,-0.125 0,-0.069 -0.056,-0.125 -0.125,-0.125 m 6,0 h -4 c -0.069,0 -0.125,0.056 -0.125,0.125 0,0.069 0.056,0.125 0.125,0.125 h 4 c 0.069,0 0.125,-0.056 0.125,-0.125 0,-0.069 -0.056,-0.125 -0.125,-0.125 m 6,0 h -4 c -0.069,0 -0.125,0.056 -0.125,0.125 0,0.069 0.056,0.125 0.125,0.125 h 4 c 0.069,0 0.125,-0.056 0.125,-0.125 0,-0.069 -0.056,-0.125 -0.125,-0.125 m 6,0 h -4 c -0.069,0 -0.125,0.056 -0.125,0.125 0,0.069 0.056,0.125 0.125,0.125 h 4 c 0.069,0 0.125,-0.056 0.125,-0.125 0,-0.069 -0.056,-0.125 -0.125,-0.125 m 6,0 h -4 c -0.069,0 -0.125,0.056 -0.125,0.125 0,0.069 0.056,0.125 0.125,0.125 h 4 c 0.069,0 0.125,-0.056 0.125,-0.125 0,-0.069 -0.056,-0.125 -0.125,-0.125 m 6,0 h -4 c -0.069,0 -0.125,0.056 -0.125,0.125 0,0.069 0.056,0.125 0.125,0.125 h 4 c 0.069,0 0.125,-0.056 0.125,-0.125 0,-0.069 -0.056,-0.125 -0.125,-0.125 m 6,0 h -4 c -0.069,0 -0.125,0.056 -0.125,0.125 0,0.069 0.056,0.125 0.125,0.125 h 4 c 0.069,0 0.125,-0.056 0.125,-0.125 0,-0.069 -0.056,-0.125 -0.125,-0.125 m 6,0 h -4 c -0.069,0 -0.125,0.056 -0.125,0.125 0,0.069 0.056,0.125 0.125,0.125 h 4 c 0.069,0 0.125,-0.056 0.125,-0.125 0,-0.069 -0.056,-0.125 -0.125,-0.125 m 6,0 h -4 c -0.069,0 -0.125,0.056 -0.125,0.125 0,0.069 0.056,0.125 0.125,0.125 h 4 c 0.069,0 0.125,-0.056 0.125,-0.125 0,-0.069 -0.056,-0.125 -0.125,-0.125 m 6,0 h -4 c -0.069,0 -0.125,0.056 -0.125,0.125 0,0.069 0.056,0.125 0.125,0.125 h 4 c 0.069,0 0.125,-0.056 0.125,-0.125 0,-0.069 -0.056,-0.125 -0.125,-0.125 m 6,0 h -4 c -0.069,0 -0.125,0.056 -0.125,0.125 0,0.069 0.056,0.125 0.125,0.125 h 4 c 0.069,0 0.125,-0.056 0.125,-0.125 0,-0.069 -0.056,-0.125 -0.125,-0.125 m 6,0 h -4 c -0.069,0 -0.125,0.056 -0.125,0.125 0,0.069 0.056,0.125 0.125,0.125 h 4 c 0.069,0 0.125,-0.056 0.125,-0.125 0,-0.069 -0.056,-0.125 -0.125,-0.125 m 6,0 h -4 c -0.069,0 -0.125,0.056 -0.125,0.125 0,0.069 0.056,0.125 0.125,0.125 h 4 c 0.069,0 0.125,-0.056 0.125,-0.125 0,-0.069 -0.056,-0.125 -0.125,-0.125 m 6,0 h -4 c -0.069,0 -0.125,0.056 -0.125,0.125 0,0.069 0.056,0.125 0.125,0.125 h 4 c 0.069,0 0.125,-0.056 0.125,-0.125 0,-0.069 -0.056,-0.125 -0.125,-0.125 m 6,0 h -4 c -0.069,0 -0.125,0.056 -0.125,0.125 0,0.069 0.056,0.125 0.125,0.125 h 4 c 0.069,0 0.125,-0.056 0.125,-0.125 0,-0.069 -0.056,-0.125 -0.125,-0.125 m 6,0 h -4 c -0.069,0 -0.125,0.056 -0.125,0.125 0,0.069 0.056,0.125 0.125,0.125 h 4 c 0.069,0 0.125,-0.056 0.125,-0.125 0,-0.069 -0.056,-0.125 -0.125,-0.125 m 6,0 h -4 c -0.069,0 -0.125,0.056 -0.125,0.125 0,0.069 0.056,0.125 0.125,0.125 h 4 c 0.069,0 0.125,-0.056 0.125,-0.125 0,-0.069 -0.056,-0.125 -0.125,-0.125"
         style="fill:none;fill-opacity:1;fill-rule:nonzero;stroke:#000000;stroke-opacity:1;stroke-width:0.075;stroke-miterlimit:4;stroke-dasharray:none"
         id="path1569"
         inkscape:connector-curvature="0" /><path
         d="m 168.27038,550.16915 c -0.069,0 -0.125,0.056 -0.125,0.125 v 4 c 0,0.069 0.056,0.125 0.125,0.125 0.069,0 0.125,-0.056 0.125,-0.125 v -4 c 0,-0.069 -0.056,-0.125 -0.125,-0.125 m 0,-6 c -0.069,0 -0.125,0.056 -0.125,0.125 v 4 c 0,0.069 0.056,0.125 0.125,0.125 0.069,0 0.125,-0.056 0.125,-0.125 v -4 c 0,-0.069 -0.056,-0.125 -0.125,-0.125 m 0,-6 c -0.069,0 -0.125,0.056 -0.125,0.125 v 4 c 0,0.069 0.056,0.125 0.125,0.125 0.069,0 0.125,-0.056 0.125,-0.125 v -4 c 0,-0.069 -0.056,-0.125 -0.125,-0.125 m 0,-6 c -0.069,0 -0.125,0.056 -0.125,0.125 v 4 c 0,0.069 0.056,0.125 0.125,0.125 0.069,0 0.125,-0.056 0.125,-0.125 v -4 c 0,-0.069 -0.056,-0.125 -0.125,-0.125 m 0,-6 c -0.069,0 -0.125,0.056 -0.125,0.125 v 4 c 0,0.069 0.056,0.125 0.125,0.125 0.069,0 0.125,-0.056 0.125,-0.125 v -4 c 0,-0.069 -0.056,-0.125 -0.125,-0.125 m 0,-6 c -0.069,0 -0.125,0.056 -0.125,0.125 v 4 c 0,0.069 0.056,0.125 0.125,0.125 0.069,0 0.125,-0.056 0.125,-0.125 v -4 c 0,-0.069 -0.056,-0.125 -0.125,-0.125 m 0,-6 c -0.069,0 -0.125,0.056 -0.125,0.125 v 4 c 0,0.069 0.056,0.125 0.125,0.125 0.069,0 0.125,-0.056 0.125,-0.125 v -4 c 0,-0.069 -0.056,-0.125 -0.125,-0.125 m 0,-6 c -0.069,0 -0.125,0.056 -0.125,0.125 v 4 c 0,0.069 0.056,0.125 0.125,0.125 0.069,0 0.125,-0.056 0.125,-0.125 v -4 c 0,-0.069 -0.056,-0.125 -0.125,-0.125 m 0,-6 c -0.069,0 -0.125,0.056 -0.125,0.125 v 4 c 0,0.069 0.056,0.125 0.125,0.125 0.069,0 0.125,-0.056 0.125,-0.125 v -4 c 0,-0.069 -0.056,-0.125 -0.125,-0.125 m 0,-6 c -0.069,0 -0.125,0.056 -0.125,0.125 v 4 c 0,0.069 0.056,0.125 0.125,0.125 0.069,0 0.125,-0.056 0.125,-0.125 v -4 c 0,-0.069 -0.056,-0.125 -0.125,-0.125 m 0,-6 c -0.069,0 -0.125,0.056 -0.125,0.125 v 4 c 0,0.069 0.056,0.125 0.125,0.125 0.069,0 0.125,-0.056 0.125,-0.125 v -4 c 0,-0.069 -0.056,-0.125 -0.125,-0.125 m 0,-6 c -0.069,0 -0.125,0.056 -0.125,0.125 v 4 c 0,0.069 0.056,0.125 0.125,0.125 0.069,0 0.125,-0.056 0.125,-0.125 v -4 c 0,-0.069 -0.056,-0.125 -0.125,-0.125 m 0,-6 c -0.069,0 -0.125,0.056 -0.125,0.125 v 4 c 0,0.069 0.056,0.125 0.125,0.125 0.069,0 0.125,-0.056 0.125,-0.125 v -4 c 0,-0.069 -0.056,-0.125 -0.125,-0.125 m 0,-6 c -0.069,0 -0.125,0.056 -0.125,0.125 v 4 c 0,0.069 0.056,0.125 0.125,0.125 0.069,0 0.125,-0.056 0.125,-0.125 v -4 c 0,-0.069 -0.056,-0.125 -0.125,-0.125 m 0,-6 c -0.069,0 -0.125,0.056 -0.125,0.125 v 4 c 0,0.069 0.056,0.125 0.125,0.125 0.069,0 0.125,-0.056 0.125,-0.125 v -4 c 0,-0.069 -0.056,-0.125 -0.125,-0.125 m 0,-6 c -0.069,0 -0.125,0.056 -0.125,0.125 v 4 c 0,0.069 0.056,0.125 0.125,0.125 0.069,0 0.125,-0.056 0.125,-0.125 v -4 c 0,-0.069 -0.056,-0.125 -0.125,-0.125 m 0,-6 c -0.069,0 -0.125,0.056 -0.125,0.125 v 4 c 0,0.069 0.056,0.125 0.125,0.125 0.069,0 0.125,-0.056 0.125,-0.125 v -4 c 0,-0.069 -0.056,-0.125 -0.125,-0.125 m 0,-6 c -0.069,0 -0.125,0.056 -0.125,0.125 v 4 c 0,0.069 0.056,0.125 0.125,0.125 0.069,0 0.125,-0.056 0.125,-0.125 v -4 c 0,-0.069 -0.056,-0.125 -0.125,-0.125 m 0,-6 c -0.069,0 -0.125,0.056 -0.125,0.125 v 4 c 0,0.069 0.056,0.125 0.125,0.125 0.069,0 0.125,-0.056 0.125,-0.125 v -4 c 0,-0.069 -0.056,-0.125 -0.125,-0.125 m 0,-6 c -0.069,0 -0.125,0.056 -0.125,0.125 v 4 c 0,0.069 0.056,0.125 0.125,0.125 0.069,0 0.125,-0.056 0.125,-0.125 v -4 c 0,-0.069 -0.056,-0.125 -0.125,-0.125 m 0,-6 c -0.069,0 -0.125,0.056 -0.125,0.125 v 4 c 0,0.069 0.056,0.125 0.125,0.125 0.069,0 0.125,-0.056 0.125,-0.125 v -4 c 0,-0.069 -0.056,-0.125 -0.125,-0.125 m 0,-6 c -0.069,0 -0.125,0.056 -0.125,0.125 v 4 c 0,0.069 0.056,0.125 0.125,0.125 0.069,0 0.125,-0.056 0.125,-0.125 v -4 c 0,-0.069 -0.056,-0.125 -0.125,-0.125 m 0,-6 c -0.069,0 -0.125,0.056 -0.125,0.125 v 4 c 0,0.069 0.056,0.125 0.125,0.125 0.069,0 0.125,-0.056 0.125,-0.125 v -4 c 0,-0.069 -0.056,-0.125 -0.125,-0.125 m 0,-6 c -0.069,0 -0.125,0.056 -0.125,0.125 v 4 c 0,0.069 0.056,0.125 0.125,0.125 0.069,0 0.125,-0.056 0.125,-0.125 v -4 c 0,-0.069 -0.056,-0.125 -0.125,-0.125 m 0,-3.963 c -0.069,0 -0.125,0.056 -0.125,0.125 v 1.963 c 0,0.069 0.056,0.125 0.125,0.125 0.069,0 0.125,-0.056 0.125,-0.125 v -1.963 c 0,-0.069 -0.056,-0.125 -0.125,-0.125"
         style="fill:none;fill-opacity:1;fill-rule:nonzero;stroke:#000000;stroke-opacity:1;stroke-width:0.075;stroke-miterlimit:4;stroke-dasharray:none"
         id="path1573"
         inkscape:connector-curvature="0" /><path
         d="m 420.27428,674.16765 c -0.069,0 -0.125,0.056 -0.125,0.125 v 4 c 0,0.069 0.056,0.125 0.125,0.125 0.069,0 0.125,-0.056 0.125,-0.125 v -4 c 0,-0.069 -0.056,-0.125 -0.125,-0.125 m 0,-6 c -0.069,0 -0.125,0.056 -0.125,0.125 v 4 c 0,0.069 0.056,0.125 0.125,0.125 0.069,0 0.125,-0.056 0.125,-0.125 v -4 c 0,-0.069 -0.056,-0.125 -0.125,-0.125 m 0,-6 c -0.069,0 -0.125,0.056 -0.125,0.125 v 4 c 0,0.069 0.056,0.125 0.125,0.125 0.069,0 0.125,-0.056 0.125,-0.125 v -4 c 0,-0.069 -0.056,-0.125 -0.125,-0.125 m 0,-6 c -0.069,0 -0.125,0.056 -0.125,0.125 v 4 c 0,0.069 0.056,0.125 0.125,0.125 0.069,0 0.125,-0.056 0.125,-0.125 v -4 c 0,-0.069 -0.056,-0.125 -0.125,-0.125 m 0,-6 c -0.069,0 -0.125,0.056 -0.125,0.125 v 4 c 0,0.069 0.056,0.125 0.125,0.125 0.069,0 0.125,-0.056 0.125,-0.125 v -4 c 0,-0.069 -0.056,-0.125 -0.125,-0.125 m 0,-6 c -0.069,0 -0.125,0.056 -0.125,0.125 v 4 c 0,0.069 0.056,0.125 0.125,0.125 0.069,0 0.125,-0.056 0.125,-0.125 v -4 c 0,-0.069 -0.056,-0.125 -0.125,-0.125 m 0,-6 c -0.069,0 -0.125,0.056 -0.125,0.125 v 4 c 0,0.069 0.056,0.125 0.125,0.125 0.069,0 0.125,-0.056 0.125,-0.125 v -4 c 0,-0.069 -0.056,-0.125 -0.125,-0.125 m 0,-6 c -0.069,0 -0.125,0.056 -0.125,0.125 v 4 c 0,0.069 0.056,0.125 0.125,0.125 0.069,0 0.125,-0.056 0.125,-0.125 v -4 c 0,-0.069 -0.056,-0.125 -0.125,-0.125 m 0,-6 c -0.069,0 -0.125,0.056 -0.125,0.125 v 4 c 0,0.069 0.056,0.125 0.125,0.125 0.069,0 0.125,-0.056 0.125,-0.125 v -4 c 0,-0.069 -0.056,-0.125 -0.125,-0.125 m 0,-6 c -0.069,0 -0.125,0.056 -0.125,0.125 v 4 c 0,0.069 0.056,0.125 0.125,0.125 0.069,0 0.125,-0.056 0.125,-0.125 v -4 c 0,-0.069 -0.056,-0.125 -0.125,-0.125 m 0,-6 c -0.069,0 -0.125,0.056 -0.125,0.125 v 4 c 0,0.069 0.056,0.125 0.125,0.125 0.069,0 0.125,-0.056 0.125,-0.125 v -4 c 0,-0.069 -0.056,-0.125 -0.125,-0.125 m 0,-6 c -0.069,0 -0.125,0.056 -0.125,0.125 v 4 c 0,0.069 0.056,0.125 0.125,0.125 0.069,0 0.125,-0.056 0.125,-0.125 v -4 c 0,-0.069 -0.056,-0.125 -0.125,-0.125 m 0,-6 c -0.069,0 -0.125,0.056 -0.125,0.125 v 4 c 0,0.069 0.056,0.125 0.125,0.125 0.069,0 0.125,-0.056 0.125,-0.125 v -4 c 0,-0.069 -0.056,-0.125 -0.125,-0.125 m 0,-6 c -0.069,0 -0.125,0.056 -0.125,0.125 v 4 c 0,0.069 0.056,0.125 0.125,0.125 0.069,0 0.125,-0.056 0.125,-0.125 v -4 c 0,-0.069 -0.056,-0.125 -0.125,-0.125 m 0,-6 c -0.069,0 -0.125,0.056 -0.125,0.125 v 4 c 0,0.069 0.056,0.125 0.125,0.125 0.069,0 0.125,-0.056 0.125,-0.125 v -4 c 0,-0.069 -0.056,-0.125 -0.125,-0.125 m 0,-6 c -0.069,0 -0.125,0.056 -0.125,0.125 v 4 c 0,0.069 0.056,0.125 0.125,0.125 0.069,0 0.125,-0.056 0.125,-0.125 v -4 c 0,-0.069 -0.056,-0.125 -0.125,-0.125 m 0,-6 c -0.069,0 -0.125,0.056 -0.125,0.125 v 4 c 0,0.069 0.056,0.125 0.125,0.125 0.069,0 0.125,-0.056 0.125,-0.125 v -4 c 0,-0.069 -0.056,-0.125 -0.125,-0.125 m 0,-6 c -0.069,0 -0.125,0.056 -0.125,0.125 v 4 c 0,0.069 0.056,0.125 0.125,0.125 0.069,0 0.125,-0.056 0.125,-0.125 v -4 c 0,-0.069 -0.056,-0.125 -0.125,-0.125 m 0,-6 c -0.069,0 -0.125,0.056 -0.125,0.125 v 4 c 0,0.069 0.056,0.125 0.125,0.125 0.069,0 0.125,-0.056 0.125,-0.125 v -4 c 0,-0.069 -0.056,-0.125 -0.125,-0.125 m 0,-6 c -0.069,0 -0.125,0.056 -0.125,0.125 v 4 c 0,0.069 0.056,0.125 0.125,0.125 0.069,0 0.125,-0.056 0.125,-0.125 v -4 c 0,-0.069 -0.056,-0.125 -0.125,-0.125 m 0,-6 c -0.069,0 -0.125,0.056 -0.125,0.125 v 4 c 0,0.069 0.056,0.125 0.125,0.125 0.069,0 0.125,-0.056 0.125,-0.125 v -4 c 0,-0.069 -0.056,-0.125 -0.125,-0.125"
         style="fill:none;fill-opacity:1;fill-rule:nonzero;stroke:#000000;stroke-opacity:1;stroke-width:0.075;stroke-miterlimit:4;stroke-dasharray:none"
         id="path1577"
         inkscape:connector-curvature="0" /></g></g></svg>