<?xml version="1.0" encoding="UTF-8" standalone="no"?>
<!DOCTYPE svg PUBLIC "-//W3C//DTD SVG 1.1//EN" "http://www.w3.org/Graphics/SVG/1.1/DTD/svg11.dtd">
<svg width="750.00pt" height="750.00pt" version="1.1"
    viewBox="0 0 750.00 750.00"
    xmlns="http://www.w3.org/2000/svg"
    xmlns:xlink="http://www.w3.org/1999/xlink"
    xml:space="preserve"
    xmlns:serif="http://www.serif.com/"
    style="fill-rule:evenodd;clip-rule:evenodd;stroke-linecap:round;stroke-linejoin:round;stroke-miterlimit:1.5;">
    
<path
       style="fill:#ffcfd9 ;stroke:#ff0000;stroke-width:0.5px;stroke-linecap:butt;stroke-linejoin:miter;stroke-opacity:1"
       d="M 35.075403,35.500069 
       h 51.419828 
       h 28.35
       v 15.827727 
       l 5.079998,-5.08 
       h 5.667727 
       l 10.160004,10.16 
       V 126.190437
       L 125.59295600000002,136.350434
       h -5.667727 
       l -5.079998,-5.079997 
       v 39.080373 v 56.69 
       l -5.079998,5.08 
       h -41.25983 
       h -28.35
       l -5.08,-5.08 
       V 131.27043700000002 
       l -5.079999,5.079997 
       h -5.667728 
       l -10.16,-10.159997 
       V 56.407796 
       l 10.16,-10.16 
       h 5.667728 
       l 5.079999,5.08 z"
       id="path3702"
       />
    <path
         id="path126"
         d="M 20.317748,52.384656 h 81.419828 h 28.35 V 126.190437 v 5 h -79.769828 h -30 L 20.317748,52.384656"
         style="fill:none;stroke:#000000;stroke-width:0.5px;stroke-linecap:butt;stroke-linejoin:miter;stroke-dasharray:2, 1;stroke-opacity:1" />
    <path
         id="path126"
         d="M 35.317748,147.018164 h 51.419828 h 28.35"
         style="fill:none;stroke:#000000;stroke-width:0.5px;stroke-linecap:butt;stroke-linejoin:miter;stroke-dasharray:2, 1;stroke-opacity:1" />
    <path
         id="path126"
         d="M 35.317748,226.38 h 51.419828 h 28.35"
         style="fill:none;stroke:#000000;stroke-width:0.5px;stroke-linecap:butt;stroke-linejoin:miter;stroke-dasharray:2, 1;stroke-opacity:1" />
       
       





      <path
       style="fill:#ffcfd9;
       stroke:#ff0000;

       stroke-width:0.5px;stroke-linecap:butt;stroke-linejoin:miter;stroke-opacity:1"
       d="M 200.50192,72.018055 
       V 190.41647 
       h 56.69 
       h 40.29176 
       l -8.1549,8.1549 
       v 23.84754 
       v 56.69 
       l 8.1549,8.35507 
       h 68.67658 
       h 28.35
       l 8.68944,-8.33998 
       v -5.54011 
       v -28.345
       h -8.5784 
       v -13.21383 
       h 8.32805 
       v -5.10787 
       v -28.345
       l -7.92239,-8.15436 
       h 12.90713 
       h 28.345 
       v -10.70726 
       h 13.97417 
       v 10.70929 
       h 13.17392 
       h 28.345 
       l 8.41951,8.41951 
       v 0 h 51.62438 
       h 28.35
       l 16.9511,-16.9511 
       V 80.609115 
       L 580.1696099999999,63.661556 
       h -51.62168 
       h -28.35
       l -8.46784,8.324309 -8.24794,-8.324309 
       h -23.85304 
       h -56.69 
       l -8.09573,8.102228 
       V -25.122926999999997 
       h -68.84519 
       h -28.35
       v 40.307751 
       v 56.69
       l -8.09312,-8.214645 
       h -23.83931 
       h -56.69
       z"
       id="path470bigpath"
       />

       <path
       style="fill:none;stroke:#000000;
       
       stroke-dasharray:2, 1;
       stroke-width:0.5px;stroke-linecap:butt;stroke-linejoin:miter;stroke-opacity:1"
       d="M 200.53679,71.99401 H 588.03696 V 190.1331 H 491.73009 V 71.985865"
       id="path459"
       /><path
       style="fill:none;stroke:#000000;

       stroke-dasharray:2, 1;
       stroke-width:0.5px;stroke-linecap:butt;stroke-linejoin:miter;stroke-opacity:1"
       d="M 297.74511,72.018055 V 190.35518 h 68.74827 h 28.35 V 71.763784"
       id="path461"
       /><path
       style="fill:none;stroke:#000000;
       
       stroke-dasharray:2, 1;
       stroke-width:0.5px;stroke-linecap:butt;stroke-linejoin:miter;stroke-opacity:1"
       d="m 297.48368,190.41647 v 40.35751 v 56.69"
       id="path463"
       /><path
       style="fill:none;stroke:#000000;
       
       stroke-dasharray:2, 1;
       stroke-width:0.5px;stroke-linecap:butt;stroke-linejoin:miter;stroke-opacity:1"
       d="m 394.84338,190.35518 v 13.1028 v 28.345 "
       id="path465"
       />
       
       <path
       style="fill:none;stroke:#000000;
       stroke-dasharray:2, 1;
       stroke-width:0.5px;stroke-linecap:butt;stroke-linejoin:miter;stroke-opacity:1"
       d="m 394.84338,245.47817 v 13.86288 v 28.345"
       id="path467"/>
         
      
      
      
      
      

</svg>
