<?xml version="1.0" encoding="UTF-8" standalone="no"?>
<!-- Created with Inkscape (http://www.inkscape.org/) -->

<svg
   xmlns:dc="http://purl.org/dc/elements/1.1/"
   xmlns:cc="http://creativecommons.org/ns#"
   xmlns:rdf="http://www.w3.org/1999/02/22-rdf-syntax-ns#"
   xmlns:svg="http://www.w3.org/2000/svg"
   xmlns="http://www.w3.org/2000/svg"
   xmlns:sodipodi="http://sodipodi.sourceforge.net/DTD/sodipodi-0.dtd"
   xmlns:inkscape="http://www.inkscape.org/namespaces/inkscape"
   version="1.1"
   id="svg14627"
   xml:space="preserve"
   width="816"
   height="1056"
   viewBox="0 0 816 1056"
   sodipodi:docname="4-rocket1.svg"
   inkscape:version="0.92.4 (5da689c313, 2019-01-14)"><metadata
     id="metadata14633"><rdf:RDF><cc:Work
         rdf:about=""><dc:format>image/svg+xml</dc:format><dc:type
           rdf:resource="http://purl.org/dc/dcmitype/StillImage" /><dc:title></dc:title></cc:Work></rdf:RDF></metadata><defs
     id="defs14631"><clipPath
       clipPathUnits="userSpaceOnUse"
       id="clipPath14643"><path
         d="M 0,792 H 612 V 0 H 0 Z"
         id="path14641"
         inkscape:connector-curvature="0" /></clipPath><clipPath
       clipPathUnits="userSpaceOnUse"
       id="clipPath14679"><path
         d="m 405.366,649.534 h 19 v -33.471 h -19 z"
         id="path14677"
         inkscape:connector-curvature="0" /></clipPath><clipPath
       clipPathUnits="userSpaceOnUse"
       id="clipPath14699"><path
         d="m 405.366,584.575 h 19 v -33.472 h -19 z"
         id="path14697"
         inkscape:connector-curvature="0" /></clipPath><clipPath
       clipPathUnits="userSpaceOnUse"
       id="clipPath14719"><path
         d="m 405.365,553.517 h 19 V 403.793 h -19 z"
         id="path14717"
         inkscape:connector-curvature="0" /></clipPath><clipPath
       clipPathUnits="userSpaceOnUse"
       id="clipPath14739"><path
         d="m 405.365,406.207 h 19 v -98.432 h -19 z"
         id="path14737"
         inkscape:connector-curvature="0" /></clipPath><clipPath
       clipPathUnits="userSpaceOnUse"
       id="clipPath14759"><path
         d="M 71.6221,552.81 H 170.054 V 533.809 H 71.6221 Z"
         id="path14757"
         inkscape:connector-curvature="0" /></clipPath><clipPath
       clipPathUnits="userSpaceOnUse"
       id="clipPath14779"><path
         d="M 71.6221,423.501 H 170.054 V 404.5 H 71.6221 Z"
         id="path14777"
         inkscape:connector-curvature="0" /></clipPath><clipPath
       clipPathUnits="userSpaceOnUse"
       id="clipPath14799"><path
         d="M 72.3291,553.517 H 91.3296 V 403.793 H 72.3291 Z"
         id="path14797"
         inkscape:connector-curvature="0" /></clipPath><clipPath
       clipPathUnits="userSpaceOnUse"
       id="clipPath14819"><path
         d="M 167.641,648.827 H 425.073 V 629.828 H 167.641 Z"
         id="path14817"
         inkscape:connector-curvature="0" /></clipPath><clipPath
       clipPathUnits="userSpaceOnUse"
       id="clipPath14851"><path
         d="m 413.246,575.9 h 3.609 v -5.455 h -3.609 z"
         id="path14849"
         inkscape:connector-curvature="0" /></clipPath><clipPath
       clipPathUnits="userSpaceOnUse"
       id="clipPath14871"><path
         d="m 413.246,481.187 h 3.585 v -5.005 h -3.585 z"
         id="path14869"
         inkscape:connector-curvature="0" /></clipPath><clipPath
       clipPathUnits="userSpaceOnUse"
       id="clipPath14891"><path
         d="m 413.195,359.711 h 3.736 v -5.49 h -3.736 z"
         id="path14889"
         inkscape:connector-curvature="0" /></clipPath><clipPath
       clipPathUnits="userSpaceOnUse"
       id="clipPath14911"><path
         d="m 511.526,238.085 h 3.585 v -5.005 h -3.585 z"
         id="path14909"
         inkscape:connector-curvature="0" /></clipPath><clipPath
       clipPathUnits="userSpaceOnUse"
       id="clipPath14931"><path
         d="m 413.216,630.5 h 3.649 v -5.455 h -3.649 z"
         id="path14929"
         inkscape:connector-curvature="0" /></clipPath><clipPath
       clipPathUnits="userSpaceOnUse"
       id="clipPath14951"><path
         d="m 293.516,641.292 h 5.6 v -3.585 h -5.6 z"
         id="path14949"
         inkscape:connector-curvature="0" /></clipPath><clipPath
       clipPathUnits="userSpaceOnUse"
       id="clipPath14971"><path
         d="m 117.913,545.309 h 3.785 v -3.656 h -3.785 z"
         id="path14969"
         inkscape:connector-curvature="0" /></clipPath><clipPath
       clipPathUnits="userSpaceOnUse"
       id="clipPath14991"><path
         d="m 469.154,304.311 h 5.491 v -3.735 h -5.491 z"
         id="path14989"
         inkscape:connector-curvature="0" /></clipPath><clipPath
       clipPathUnits="userSpaceOnUse"
       id="clipPath15011"><path
         d="m 290.504,170.029 h 5.6 v -3.585 h -5.6 z"
         id="path15009"
         inkscape:connector-curvature="0" /></clipPath><clipPath
       clipPathUnits="userSpaceOnUse"
       id="clipPath15031"><path
         d="m 118.065,415.656 h 5.5 v -3.655 h -5.5 z"
         id="path15029"
         inkscape:connector-curvature="0" /></clipPath><clipPath
       clipPathUnits="userSpaceOnUse"
       id="clipPath15051"><path
         d="m 437,170.029 h 5.455 v -3.61 H 437 Z"
         id="path15049"
         inkscape:connector-curvature="0" /></clipPath><clipPath
       clipPathUnits="userSpaceOnUse"
       id="clipPath15071"><path
         d="m 501.24,170.059 h 5.455 v -3.65 h -5.455 z"
         id="path15069"
         inkscape:connector-curvature="0" /></clipPath><clipPath
       clipPathUnits="userSpaceOnUse"
       id="clipPath15091"><path
         d="m 79.8252,481.382 h 3.6553 v -5.384 h -3.6553 z"
         id="path15089"
         inkscape:connector-curvature="0" /></clipPath><clipPath
       clipPathUnits="userSpaceOnUse"
       id="clipPath15111"><path
         d="m 173.579,238.28 h 3.655 v -5.384 h -3.655 z"
         id="path15109"
         inkscape:connector-curvature="0" /></clipPath><clipPath
       clipPathUnits="userSpaceOnUse"
       id="clipPath15131"><path
         d="m 173.584,359.764 h 3.655 v -5.5 h -3.655 z"
         id="path15129"
         inkscape:connector-curvature="0" /></clipPath><clipPath
       clipPathUnits="userSpaceOnUse"
       id="clipPath15151"><path
         d="m 173.584,602.274 h 3.655 v -3.785 h -3.655 z"
         id="path15149"
         inkscape:connector-curvature="0" /></clipPath><clipPath
       clipPathUnits="userSpaceOnUse"
       id="clipPath15171"><path
         d="m 223.493,254.048 h 95.292 v -36.99 h -95.292 z"
         id="path15169"
         inkscape:connector-curvature="0" /></clipPath><clipPath
       clipPathUnits="userSpaceOnUse"
       id="clipPath15187"><path
         d="M 438.417,308.706 H 505.33 V 161.949 h -66.913 z"
         id="path15185"
         inkscape:connector-curvature="0" /></clipPath></defs><sodipodi:namedview
     pagecolor="#ffffff"
     bordercolor="#666666"
     borderopacity="1"
     objecttolerance="10"
     gridtolerance="10"
     guidetolerance="10"
     inkscape:pageopacity="0"
     inkscape:pageshadow="2"
     inkscape:window-width="2490"
     inkscape:window-height="1376"
     id="namedview14629"
     showgrid="false"
     inkscape:zoom="1.3041781"
     inkscape:cx="564.08032"
     inkscape:cy="464.22215"
     inkscape:window-x="70"
     inkscape:window-y="27"
     inkscape:window-maximized="1"
     inkscape:current-layer="g14635" /><g
     id="g14635"
     inkscape:groupmode="layer"
     inkscape:label="4-rocket"
     transform="matrix(1.3333333,0,0,-1.3333333,0,1056)"><path
       inkscape:connector-curvature="0"
       id="path14647"
       style="fill:#000000;fill-opacity:1;fill-rule:nonzero;stroke:none"
       d="m 168.8472,647.5469 c -0.069,0 -0.125,0.056 -0.125,0.125 v 0.655 c 0,0.069 0.056,0.125 0.125,0.125 0.069,0 0.125,-0.056 0.125,-0.125 v -0.655 c 0,-0.069 -0.056,-0.125 -0.125,-0.125 m 0,-6 c -0.069,0 -0.125,0.056 -0.125,0.125 v 4 c 0,0.069 0.056,0.125 0.125,0.125 0.069,0 0.125,-0.056 0.125,-0.125 v -4 c 0,-0.069 -0.056,-0.125 -0.125,-0.125 m 0,-6 c -0.069,0 -0.125,0.056 -0.125,0.125 v 4 c 0,0.069 0.056,0.125 0.125,0.125 0.069,0 0.125,-0.056 0.125,-0.125 v -4 c 0,-0.069 -0.056,-0.125 -0.125,-0.125 m 0,-6 c -0.069,0 -0.125,0.056 -0.125,0.125 v 4 c 0,0.069 0.056,0.125 0.125,0.125 0.069,0 0.125,-0.056 0.125,-0.125 v -4 c 0,-0.069 -0.056,-0.125 -0.125,-0.125 m 0,-6 c -0.069,0 -0.125,0.056 -0.125,0.125 v 4 c 0,0.069 0.056,0.125 0.125,0.125 0.069,0 0.125,-0.056 0.125,-0.125 v -4 c 0,-0.069 -0.056,-0.125 -0.125,-0.125 m 0,-6 c -0.069,0 -0.125,0.057 -0.125,0.125 v 4 c 0,0.069 0.056,0.125 0.125,0.125 0.069,0 0.125,-0.056 0.125,-0.125 v -4 c 0,-0.068 -0.056,-0.125 -0.125,-0.125 m 0,-6 c -0.069,0 -0.125,0.057 -0.125,0.125 v 4 c 0,0.069 0.056,0.125 0.125,0.125 0.069,0 0.125,-0.056 0.125,-0.125 v -4 c 0,-0.068 -0.056,-0.125 -0.125,-0.125 m 0,-6 c -0.069,0 -0.125,0.057 -0.125,0.125 v 4 c 0,0.069 0.056,0.125 0.125,0.125 0.069,0 0.125,-0.056 0.125,-0.125 v -4 c 0,-0.068 -0.056,-0.125 -0.125,-0.125 m 0,-6 c -0.069,0 -0.125,0.057 -0.125,0.125 v 4 c 0,0.069 0.056,0.125 0.125,0.125 0.069,0 0.125,-0.056 0.125,-0.125 v -4 c 0,-0.068 -0.056,-0.125 -0.125,-0.125 m 0,-6 c -0.069,0 -0.125,0.057 -0.125,0.125 v 4 c 0,0.069 0.056,0.125 0.125,0.125 0.069,0 0.125,-0.056 0.125,-0.125 v -4 c 0,-0.068 -0.056,-0.125 -0.125,-0.125 m 0,-6 c -0.069,0 -0.125,0.057 -0.125,0.125 v 4 c 0,0.069 0.056,0.125 0.125,0.125 0.069,0 0.125,-0.056 0.125,-0.125 v -4 c 0,-0.068 -0.056,-0.125 -0.125,-0.125 m 0,-6 c -0.069,0 -0.125,0.057 -0.125,0.125 v 4 c 0,0.069 0.056,0.125 0.125,0.125 0.069,0 0.125,-0.056 0.125,-0.125 v -4 c 0,-0.068 -0.056,-0.125 -0.125,-0.125 m 0,-6 c -0.069,0 -0.125,0.057 -0.125,0.125 v 4 c 0,0.069 0.056,0.125 0.125,0.125 0.069,0 0.125,-0.056 0.125,-0.125 v -4 c 0,-0.068 -0.056,-0.125 -0.125,-0.125 m 0,-6 c -0.069,0 -0.125,0.057 -0.125,0.125 v 4 c 0,0.069 0.056,0.125 0.125,0.125 0.069,0 0.125,-0.056 0.125,-0.125 v -4 c 0,-0.068 -0.056,-0.125 -0.125,-0.125 m 0,-6 c -0.069,0 -0.125,0.057 -0.125,0.125 v 4 c 0,0.069 0.056,0.125 0.125,0.125 0.069,0 0.125,-0.056 0.125,-0.125 v -4 c 0,-0.068 -0.056,-0.125 -0.125,-0.125 m 0,-6 c -0.069,0 -0.125,0.057 -0.125,0.125 v 4 c 0,0.069 0.056,0.125 0.125,0.125 0.069,0 0.125,-0.056 0.125,-0.125 v -4 c 0,-0.068 -0.056,-0.125 -0.125,-0.125 m 0,-6 c -0.069,0 -0.125,0.057 -0.125,0.125 v 4 c 0,0.069 0.056,0.125 0.125,0.125 0.069,0 0.125,-0.056 0.125,-0.125 v -4 c 0,-0.068 -0.056,-0.125 -0.125,-0.125 m 0,-6 c -0.069,0 -0.125,0.057 -0.125,0.125 v 4 c 0,0.069 0.056,0.125 0.125,0.125 0.069,0 0.125,-0.056 0.125,-0.125 v -4 c 0,-0.068 -0.056,-0.125 -0.125,-0.125 m 0,-6 c -0.069,0 -0.125,0.057 -0.125,0.125 v 4 c 0,0.069 0.056,0.125 0.125,0.125 0.069,0 0.125,-0.056 0.125,-0.125 v -4 c 0,-0.068 -0.056,-0.125 -0.125,-0.125 m 0,-6 c -0.069,0 -0.125,0.057 -0.125,0.125 v 4 c 0,0.069 0.056,0.125 0.125,0.125 0.069,0 0.125,-0.056 0.125,-0.125 v -4 c 0,-0.068 -0.056,-0.125 -0.125,-0.125 m 0,-6 c -0.069,0 -0.125,0.057 -0.125,0.125 v 4 c 0,0.069 0.056,0.125 0.125,0.125 0.069,0 0.125,-0.056 0.125,-0.125 v -4 c 0,-0.068 -0.056,-0.125 -0.125,-0.125 m 0,-6 c -0.069,0 -0.125,0.057 -0.125,0.125 v 4 c 0,0.069 0.056,0.125 0.125,0.125 0.069,0 0.125,-0.056 0.125,-0.125 v -4 c 0,-0.068 -0.056,-0.125 -0.125,-0.125 m 0,-6 c -0.069,0 -0.125,0.057 -0.125,0.125 v 4 c 0,0.069 0.056,0.125 0.125,0.125 0.069,0 0.125,-0.056 0.125,-0.125 v -4 c 0,-0.068 -0.056,-0.125 -0.125,-0.125 m 0,-6 c -0.069,0 -0.125,0.057 -0.125,0.125 v 4 c 0,0.069 0.056,0.125 0.125,0.125 0.069,0 0.125,-0.056 0.125,-0.125 v -4 c 0,-0.068 -0.056,-0.125 -0.125,-0.125 m 0,-6 c -0.069,0 -0.125,0.057 -0.125,0.125 v 4 c 0,0.069 0.056,0.125 0.125,0.125 0.069,0 0.125,-0.056 0.125,-0.125 v -4 c 0,-0.068 -0.056,-0.125 -0.125,-0.125 m 0,-6 c -0.069,0 -0.125,0.057 -0.125,0.125 v 4 c 0,0.069 0.056,0.125 0.125,0.125 0.069,0 0.125,-0.056 0.125,-0.125 v -4 c 0,-0.068 -0.056,-0.125 -0.125,-0.125 m 0,-6 c -0.069,0 -0.125,0.057 -0.125,0.125 v 4 c 0,0.069 0.056,0.125 0.125,0.125 0.069,0 0.125,-0.056 0.125,-0.125 v -4 c 0,-0.068 -0.056,-0.125 -0.125,-0.125 m 0,-6 c -0.069,0 -0.125,0.057 -0.125,0.125 v 4 c 0,0.069 0.056,0.125 0.125,0.125 0.069,0 0.125,-0.056 0.125,-0.125 v -4 c 0,-0.068 -0.056,-0.125 -0.125,-0.125 m 0,-6 c -0.069,0 -0.125,0.057 -0.125,0.125 v 4 c 0,0.069 0.056,0.125 0.125,0.125 0.069,0 0.125,-0.056 0.125,-0.125 v -4 c 0,-0.068 -0.056,-0.125 -0.125,-0.125 m 0,-5.999 c -0.069,0 -0.125,0.056 -0.125,0.125 v 3.999 c 0,0.069 0.056,0.125 0.125,0.125 0.069,0 0.125,-0.056 0.125,-0.125 v -3.999 c 0,-0.069 -0.056,-0.125 -0.125,-0.125 m 0,-6 c -0.069,0 -0.125,0.056 -0.125,0.125 v 4 c 0,0.069 0.056,0.125 0.125,0.125 0.069,0 0.125,-0.056 0.125,-0.125 v -4 c 0,-0.069 -0.056,-0.125 -0.125,-0.125 m 0,-6 c -0.069,0 -0.125,0.056 -0.125,0.125 v 4 c 0,0.069 0.056,0.125 0.125,0.125 0.069,0 0.125,-0.056 0.125,-0.125 v -4 c 0,-0.069 -0.056,-0.125 -0.125,-0.125 m 0,-6 c -0.069,0 -0.125,0.056 -0.125,0.125 v 4 c 0,0.069 0.056,0.125 0.125,0.125 0.069,0 0.125,-0.056 0.125,-0.125 v -4 c 0,-0.069 -0.056,-0.125 -0.125,-0.125 m 0,-6 c -0.069,0 -0.125,0.056 -0.125,0.125 v 4 c 0,0.069 0.056,0.125 0.125,0.125 0.069,0 0.125,-0.056 0.125,-0.125 v -4 c 0,-0.069 -0.056,-0.125 -0.125,-0.125 m 0,-6 c -0.069,0 -0.125,0.056 -0.125,0.125 v 4 c 0,0.069 0.056,0.125 0.125,0.125 0.069,0 0.125,-0.056 0.125,-0.125 v -4 c 0,-0.069 -0.056,-0.125 -0.125,-0.125 m 0,-6 c -0.069,0 -0.125,0.056 -0.125,0.125 v 4 c 0,0.069 0.056,0.125 0.125,0.125 0.069,0 0.125,-0.056 0.125,-0.125 v -4 c 0,-0.069 -0.056,-0.125 -0.125,-0.125 m 0,-6 c -0.069,0 -0.125,0.056 -0.125,0.125 v 4 c 0,0.069 0.056,0.125 0.125,0.125 0.069,0 0.125,-0.056 0.125,-0.125 v -4 c 0,-0.069 -0.056,-0.125 -0.125,-0.125 m 0,-6 c -0.069,0 -0.125,0.056 -0.125,0.125 v 4 c 0,0.069 0.056,0.125 0.125,0.125 0.069,0 0.125,-0.056 0.125,-0.125 v -4 c 0,-0.069 -0.056,-0.125 -0.125,-0.125 m 0,-6 c -0.069,0 -0.125,0.056 -0.125,0.125 v 4 c 0,0.069 0.056,0.125 0.125,0.125 0.069,0 0.125,-0.056 0.125,-0.125 v -4 c 0,-0.069 -0.056,-0.125 -0.125,-0.125 m 0,-6 c -0.069,0 -0.125,0.056 -0.125,0.125 v 4 c 0,0.069 0.056,0.125 0.125,0.125 0.069,0 0.125,-0.056 0.125,-0.125 v -4 c 0,-0.069 -0.056,-0.125 -0.125,-0.125 m 0,-6 c -0.069,0 -0.125,0.056 -0.125,0.125 v 4 c 0,0.069 0.056,0.125 0.125,0.125 0.069,0 0.125,-0.056 0.125,-0.125 v -4 c 0,-0.069 -0.056,-0.125 -0.125,-0.125 m 0,-6 c -0.069,0 -0.125,0.056 -0.125,0.125 v 4 c 0,0.069 0.056,0.125 0.125,0.125 0.069,0 0.125,-0.056 0.125,-0.125 v -4 c 0,-0.069 -0.056,-0.125 -0.125,-0.125 m 0,-6 c -0.069,0 -0.125,0.056 -0.125,0.125 v 4 c 0,0.069 0.056,0.125 0.125,0.125 0.069,0 0.125,-0.056 0.125,-0.125 v -4 c 0,-0.069 -0.056,-0.125 -0.125,-0.125 m 0,-6 c -0.069,0 -0.125,0.056 -0.125,0.125 v 4 c 0,0.069 0.056,0.125 0.125,0.125 0.069,0 0.125,-0.056 0.125,-0.125 v -4 c 0,-0.069 -0.056,-0.125 -0.125,-0.125 m 0,-6 c -0.069,0 -0.125,0.056 -0.125,0.125 v 4 c 0,0.069 0.056,0.125 0.125,0.125 0.069,0 0.125,-0.056 0.125,-0.125 v -4 c 0,-0.069 -0.056,-0.125 -0.125,-0.125 m 0,-6 c -0.069,0 -0.125,0.056 -0.125,0.125 v 4 c 0,0.069 0.056,0.125 0.125,0.125 0.069,0 0.125,-0.056 0.125,-0.125 v -4 c 0,-0.069 -0.056,-0.125 -0.125,-0.125 m 0,-6 c -0.069,0 -0.125,0.056 -0.125,0.125 v 4 c 0,0.069 0.056,0.125 0.125,0.125 0.069,0 0.125,-0.056 0.125,-0.125 v -4 c 0,-0.069 -0.056,-0.125 -0.125,-0.125 m 0,-6 c -0.069,0 -0.125,0.056 -0.125,0.125 v 4 c 0,0.069 0.056,0.125 0.125,0.125 0.069,0 0.125,-0.056 0.125,-0.125 v -4 c 0,-0.069 -0.056,-0.125 -0.125,-0.125 m 0,-6 c -0.069,0 -0.125,0.056 -0.125,0.125 v 4 c 0,0.069 0.056,0.125 0.125,0.125 0.069,0 0.125,-0.056 0.125,-0.125 v -4 c 0,-0.069 -0.056,-0.125 -0.125,-0.125 m 0,-6 c -0.069,0 -0.125,0.056 -0.125,0.125 v 4 c 0,0.069 0.056,0.125 0.125,0.125 0.069,0 0.125,-0.056 0.125,-0.125 v -4 c 0,-0.069 -0.056,-0.125 -0.125,-0.125 m 0,-6 c -0.069,0 -0.125,0.056 -0.125,0.125 v 4 c 0,0.069 0.056,0.125 0.125,0.125 0.069,0 0.125,-0.056 0.125,-0.125 v -4 c 0,-0.069 -0.056,-0.125 -0.125,-0.125 m 0,-6 c -0.069,0 -0.125,0.056 -0.125,0.125 v 4 c 0,0.069 0.056,0.125 0.125,0.125 0.069,0 0.125,-0.056 0.125,-0.125 v -4 c 0,-0.069 -0.056,-0.125 -0.125,-0.125 m 0,-6 c -0.069,0 -0.125,0.056 -0.125,0.125 v 4 c 0,0.069 0.056,0.125 0.125,0.125 0.069,0 0.125,-0.056 0.125,-0.125 v -4 c 0,-0.069 -0.056,-0.125 -0.125,-0.125 m 0,-6 c -0.069,0 -0.125,0.056 -0.125,0.125 v 4 c 0,0.069 0.056,0.125 0.125,0.125 0.069,0 0.125,-0.056 0.125,-0.125 v -4 c 0,-0.069 -0.056,-0.125 -0.125,-0.125 m 0,-6 c -0.069,0 -0.125,0.056 -0.125,0.125 v 4 c 0,0.069 0.056,0.125 0.125,0.125 0.069,0 0.125,-0.056 0.125,-0.125 v -4 c 0,-0.069 -0.056,-0.125 -0.125,-0.125 m 0,-6 c -0.069,0 -0.125,0.056 -0.125,0.125 v 4 c 0,0.069 0.056,0.125 0.125,0.125 0.069,0 0.125,-0.056 0.125,-0.125 v -4 c 0,-0.069 -0.056,-0.125 -0.125,-0.125 m 0,-6 c -0.069,0 -0.125,0.056 -0.125,0.125 v 4 c 0,0.069 0.056,0.125 0.125,0.125 0.069,0 0.125,-0.056 0.125,-0.125 v -4 c 0,-0.069 -0.056,-0.125 -0.125,-0.125 m 0,-6 c -0.069,0 -0.125,0.056 -0.125,0.125 v 4 c 0,0.069 0.056,0.125 0.125,0.125 0.069,0 0.125,-0.056 0.125,-0.125 v -4 c 0,-0.069 -0.056,-0.125 -0.125,-0.125 m 0,-6 c -0.069,0 -0.125,0.056 -0.125,0.125 v 4 c 0,0.069 0.056,0.125 0.125,0.125 0.069,0 0.125,-0.056 0.125,-0.125 v -4 c 0,-0.069 -0.056,-0.125 -0.125,-0.125 m 0,-6 c -0.069,0 -0.125,0.056 -0.125,0.125 v 4 c 0,0.069 0.056,0.125 0.125,0.125 0.069,0 0.125,-0.056 0.125,-0.125 v -4 c 0,-0.069 -0.056,-0.125 -0.125,-0.125 m 0,-6 c -0.069,0 -0.125,0.056 -0.125,0.125 v 4 c 0,0.069 0.056,0.125 0.125,0.125 0.069,0 0.125,-0.056 0.125,-0.125 v -4 c 0,-0.069 -0.056,-0.125 -0.125,-0.125 m 0,-6 c -0.069,0 -0.125,0.056 -0.125,0.125 v 4 c 0,0.069 0.056,0.125 0.125,0.125 0.069,0 0.125,-0.056 0.125,-0.125 v -4 c 0,-0.069 -0.056,-0.125 -0.125,-0.125 m 0,-6 c -0.069,0 -0.125,0.056 -0.125,0.125 v 4 c 0,0.069 0.056,0.125 0.125,0.125 0.069,0 0.125,-0.056 0.125,-0.125 v -4 c 0,-0.069 -0.056,-0.125 -0.125,-0.125 m 0,-6 c -0.069,0 -0.125,0.056 -0.125,0.125 v 4 c 0,0.069 0.056,0.125 0.125,0.125 0.069,0 0.125,-0.056 0.125,-0.125 v -4 c 0,-0.069 -0.056,-0.125 -0.125,-0.125 m 0,-6 c -0.069,0 -0.125,0.056 -0.125,0.125 v 4 c 0,0.069 0.056,0.125 0.125,0.125 0.069,0 0.125,-0.056 0.125,-0.125 v -4 c 0,-0.069 -0.056,-0.125 -0.125,-0.125 m 0,-6 c -0.069,0 -0.125,0.056 -0.125,0.125 v 4 c 0,0.069 0.056,0.125 0.125,0.125 0.069,0 0.125,-0.056 0.125,-0.125 v -4 c 0,-0.069 -0.056,-0.125 -0.125,-0.125 m 0,-6 c -0.069,0 -0.125,0.056 -0.125,0.125 v 4 c 0,0.069 0.056,0.125 0.125,0.125 0.069,0 0.125,-0.056 0.125,-0.125 v -4 c 0,-0.069 -0.056,-0.125 -0.125,-0.125 m 0,-6 c -0.069,0 -0.125,0.056 -0.125,0.125 v 4 c 0,0.069 0.056,0.125 0.125,0.125 0.069,0 0.125,-0.056 0.125,-0.125 v -4 c 0,-0.069 -0.056,-0.125 -0.125,-0.125 m 0,-6 c -0.069,0 -0.125,0.056 -0.125,0.125 v 4 c 0,0.069 0.056,0.125 0.125,0.125 0.069,0 0.125,-0.056 0.125,-0.125 v -4 c 0,-0.069 -0.056,-0.125 -0.125,-0.125 m 0,-6 c -0.069,0 -0.125,0.056 -0.125,0.125 v 4 c 0,0.069 0.056,0.125 0.125,0.125 0.069,0 0.125,-0.056 0.125,-0.125 v -4 c 0,-0.069 -0.056,-0.125 -0.125,-0.125 m 0,-6 c -0.069,0 -0.125,0.056 -0.125,0.125 v 4 c 0,0.069 0.056,0.125 0.125,0.125 0.069,0 0.125,-0.056 0.125,-0.125 v -4 c 0,-0.069 -0.056,-0.125 -0.125,-0.125 m 0,-6 c -0.069,0 -0.125,0.056 -0.125,0.125 v 4 c 0,0.069 0.056,0.125 0.125,0.125 0.069,0 0.125,-0.056 0.125,-0.125 v -4 c 0,-0.069 -0.056,-0.125 -0.125,-0.125 m 0,-6 c -0.069,0 -0.125,0.056 -0.125,0.125 v 4 c 0,0.069 0.056,0.125 0.125,0.125 0.069,0 0.125,-0.056 0.125,-0.125 v -4 c 0,-0.069 -0.056,-0.125 -0.125,-0.125 m 0,-6 c -0.069,0 -0.125,0.056 -0.125,0.125 v 4 c 0,0.069 0.056,0.125 0.125,0.125 0.069,0 0.125,-0.056 0.125,-0.125 v -4 c 0,-0.069 -0.056,-0.125 -0.125,-0.125 m 0,-6 c -0.069,0 -0.125,0.056 -0.125,0.125 v 4 c 0,0.069 0.056,0.125 0.125,0.125 0.069,0 0.125,-0.056 0.125,-0.125 v -4 c 0,-0.069 -0.056,-0.125 -0.125,-0.125 m 0,-6 c -0.069,0 -0.125,0.056 -0.125,0.125 v 4 c 0,0.069 0.056,0.125 0.125,0.125 0.069,0 0.125,-0.056 0.125,-0.125 v -4 c 0,-0.069 -0.056,-0.125 -0.125,-0.125 m 0,-6 c -0.069,0 -0.125,0.056 -0.125,0.125 v 4 c 0,0.069 0.056,0.125 0.125,0.125 0.069,0 0.125,-0.056 0.125,-0.125 v -4 c 0,-0.069 -0.056,-0.125 -0.125,-0.125 m 0,-6 c -0.069,0 -0.125,0.056 -0.125,0.125 v 4 c 0,0.069 0.056,0.125 0.125,0.125 0.069,0 0.125,-0.056 0.125,-0.125 v -4 c 0,-0.069 -0.056,-0.125 -0.125,-0.125 m 0,-6 c -0.069,0 -0.125,0.056 -0.125,0.125 v 4 c 0,0.069 0.056,0.125 0.125,0.125 0.069,0 0.125,-0.056 0.125,-0.125 v -4 c 0,-0.069 -0.056,-0.125 -0.125,-0.125 m 0,-6 c -0.069,0 -0.125,0.056 -0.125,0.125 v 4 c 0,0.069 0.056,0.125 0.125,0.125 0.069,0 0.125,-0.056 0.125,-0.125 v -4 c 0,-0.069 -0.056,-0.125 -0.125,-0.125 m 0,-6 c -0.069,0 -0.125,0.056 -0.125,0.125 v 4 c 0,0.069 0.056,0.125 0.125,0.125 0.069,0 0.125,-0.056 0.125,-0.125 v -4 c 0,-0.069 -0.056,-0.125 -0.125,-0.125 m 0,-6 c -0.069,0 -0.125,0.056 -0.125,0.125 v 4 c 0,0.069 0.056,0.125 0.125,0.125 0.069,0 0.125,-0.056 0.125,-0.125 v -4 c 0,-0.069 -0.056,-0.125 -0.125,-0.125" /><path
       inkscape:connector-curvature="0"
       id="path14651"
       style="fill:#000000;fill-opacity:1;fill-rule:nonzero;stroke:none"
       d="m 171.8828,161.5479 h -3.036 c -0.068,0 -0.125,0.056 -0.125,0.125 0,0.069 0.057,0.125 0.125,0.125 h 3.036 c 0.069,0 0.125,-0.056 0.125,-0.125 0,-0.069 -0.056,-0.125 -0.125,-0.125 m 6,0 h -4 c -0.069,0 -0.125,0.056 -0.125,0.125 0,0.069 0.056,0.125 0.125,0.125 h 4 c 0.069,0 0.125,-0.056 0.125,-0.125 0,-0.069 -0.056,-0.125 -0.125,-0.125 m 6,0 h -4 c -0.069,0 -0.125,0.056 -0.125,0.125 0,0.069 0.056,0.125 0.125,0.125 h 4 c 0.069,0 0.125,-0.056 0.125,-0.125 0,-0.069 -0.056,-0.125 -0.125,-0.125 m 6,0 h -4 c -0.069,0 -0.125,0.056 -0.125,0.125 0,0.069 0.056,0.125 0.125,0.125 h 4 c 0.069,0 0.125,-0.056 0.125,-0.125 0,-0.069 -0.056,-0.125 -0.125,-0.125 m 6,0 h -4 c -0.069,0 -0.125,0.056 -0.125,0.125 0,0.069 0.056,0.125 0.125,0.125 h 4 c 0.069,0 0.125,-0.056 0.125,-0.125 0,-0.069 -0.056,-0.125 -0.125,-0.125 m 6,0 h -4 c -0.069,0 -0.125,0.056 -0.125,0.125 0,0.069 0.056,0.125 0.125,0.125 h 4 c 0.069,0 0.125,-0.056 0.125,-0.125 0,-0.069 -0.056,-0.125 -0.125,-0.125 m 6,0 h -4 c -0.069,0 -0.125,0.056 -0.125,0.125 0,0.069 0.056,0.125 0.125,0.125 h 4 c 0.069,0 0.125,-0.056 0.125,-0.125 0,-0.069 -0.056,-0.125 -0.125,-0.125 m 6,0 h -4 c -0.069,0 -0.125,0.056 -0.125,0.125 0,0.069 0.056,0.125 0.125,0.125 h 4 c 0.069,0 0.125,-0.056 0.125,-0.125 0,-0.069 -0.056,-0.125 -0.125,-0.125 m 6,0 h -4 c -0.069,0 -0.125,0.056 -0.125,0.125 0,0.069 0.056,0.125 0.125,0.125 h 4 c 0.069,0 0.125,-0.056 0.125,-0.125 0,-0.069 -0.056,-0.125 -0.125,-0.125 m 6,0 h -4 c -0.069,0 -0.125,0.056 -0.125,0.125 0,0.069 0.056,0.125 0.125,0.125 h 4 c 0.069,0 0.125,-0.056 0.125,-0.125 0,-0.069 -0.056,-0.125 -0.125,-0.125 m 6,0 h -4 c -0.069,0 -0.125,0.056 -0.125,0.125 0,0.069 0.056,0.125 0.125,0.125 h 4 c 0.069,0 0.125,-0.056 0.125,-0.125 0,-0.069 -0.056,-0.125 -0.125,-0.125 m 6,0 h -4 c -0.069,0 -0.125,0.056 -0.125,0.125 0,0.069 0.056,0.125 0.125,0.125 h 4 c 0.069,0 0.125,-0.056 0.125,-0.125 0,-0.069 -0.056,-0.125 -0.125,-0.125 m 6,0 h -4 c -0.069,0 -0.125,0.056 -0.125,0.125 0,0.069 0.056,0.125 0.125,0.125 h 4 c 0.069,0 0.125,-0.056 0.125,-0.125 0,-0.069 -0.056,-0.125 -0.125,-0.125 m 6,0 h -4 c -0.069,0 -0.125,0.056 -0.125,0.125 0,0.069 0.056,0.125 0.125,0.125 h 4 c 0.069,0 0.125,-0.056 0.125,-0.125 0,-0.069 -0.056,-0.125 -0.125,-0.125 m 6,0 h -4 c -0.069,0 -0.125,0.056 -0.125,0.125 0,0.069 0.056,0.125 0.125,0.125 h 4 c 0.069,0 0.125,-0.056 0.125,-0.125 0,-0.069 -0.056,-0.125 -0.125,-0.125 m 6,0 h -4 c -0.069,0 -0.125,0.056 -0.125,0.125 0,0.069 0.056,0.125 0.125,0.125 h 4 c 0.069,0 0.125,-0.056 0.125,-0.125 0,-0.069 -0.056,-0.125 -0.125,-0.125 m 6,0 h -4 c -0.069,0 -0.125,0.056 -0.125,0.125 0,0.069 0.056,0.125 0.125,0.125 h 4 c 0.069,0 0.125,-0.056 0.125,-0.125 0,-0.069 -0.056,-0.125 -0.125,-0.125 m 6,0 h -4 c -0.069,0 -0.125,0.056 -0.125,0.125 0,0.069 0.056,0.125 0.125,0.125 h 4 c 0.069,0 0.125,-0.056 0.125,-0.125 0,-0.069 -0.056,-0.125 -0.125,-0.125 m 6,0 h -4 c -0.069,0 -0.125,0.056 -0.125,0.125 0,0.069 0.056,0.125 0.125,0.125 h 4 c 0.069,0 0.125,-0.056 0.125,-0.125 0,-0.069 -0.056,-0.125 -0.125,-0.125 m 6,0 h -4 c -0.069,0 -0.125,0.056 -0.125,0.125 0,0.069 0.056,0.125 0.125,0.125 h 4 c 0.069,0 0.125,-0.056 0.125,-0.125 0,-0.069 -0.056,-0.125 -0.125,-0.125 m 6,0 h -4 c -0.069,0 -0.125,0.056 -0.125,0.125 0,0.069 0.056,0.125 0.125,0.125 h 4 c 0.069,0 0.125,-0.056 0.125,-0.125 0,-0.069 -0.056,-0.125 -0.125,-0.125 m 6,0 h -4 c -0.069,0 -0.125,0.056 -0.125,0.125 0,0.069 0.056,0.125 0.125,0.125 h 4 c 0.069,0 0.125,-0.056 0.125,-0.125 0,-0.069 -0.056,-0.125 -0.125,-0.125 m 6,0 h -4 c -0.069,0 -0.125,0.056 -0.125,0.125 0,0.069 0.056,0.125 0.125,0.125 h 4 c 0.069,0 0.125,-0.056 0.125,-0.125 0,-0.069 -0.056,-0.125 -0.125,-0.125 m 6,0 h -4 c -0.069,0 -0.125,0.056 -0.125,0.125 0,0.069 0.056,0.125 0.125,0.125 h 4 c 0.069,0 0.125,-0.056 0.125,-0.125 0,-0.069 -0.056,-0.125 -0.125,-0.125 m 6,0 h -4 c -0.069,0 -0.125,0.056 -0.125,0.125 0,0.069 0.056,0.125 0.125,0.125 h 4 c 0.069,0 0.125,-0.056 0.125,-0.125 0,-0.069 -0.056,-0.125 -0.125,-0.125 m 6,0 h -4 c -0.069,0 -0.125,0.056 -0.125,0.125 0,0.069 0.056,0.125 0.125,0.125 h 4 c 0.069,0 0.125,-0.056 0.125,-0.125 0,-0.069 -0.056,-0.125 -0.125,-0.125 m 6,0 h -4 c -0.069,0 -0.125,0.056 -0.125,0.125 0,0.069 0.056,0.125 0.125,0.125 h 4 c 0.069,0 0.125,-0.056 0.125,-0.125 0,-0.069 -0.056,-0.125 -0.125,-0.125 m 6,0 h -4 c -0.069,0 -0.125,0.056 -0.125,0.125 0,0.069 0.056,0.125 0.125,0.125 h 4 c 0.069,0 0.125,-0.056 0.125,-0.125 0,-0.069 -0.056,-0.125 -0.125,-0.125 m 6,0 h -4 c -0.069,0 -0.125,0.056 -0.125,0.125 0,0.069 0.056,0.125 0.125,0.125 h 4 c 0.069,0 0.125,-0.056 0.125,-0.125 0,-0.069 -0.056,-0.125 -0.125,-0.125 m 6,-0.001 -4,0.001 c -0.069,0 -0.125,0.056 -0.125,0.125 0,0.069 0.056,0.125 0.125,0.125 l 4,-0.001 c 0.069,0 0.125,-0.056 0.125,-0.125 0,-0.069 -0.056,-0.125 -0.125,-0.125 m 6,0 h -4 c -0.069,0 -0.125,0.056 -0.125,0.125 0,0.069 0.056,0.125 0.125,0.125 h 4 c 0.069,0 0.125,-0.056 0.125,-0.125 0,-0.069 -0.056,-0.125 -0.125,-0.125 m 6,0 h -4 c -0.069,0 -0.125,0.056 -0.125,0.125 0,0.069 0.056,0.125 0.125,0.125 h 4 c 0.069,0 0.125,-0.056 0.125,-0.125 0,-0.069 -0.056,-0.125 -0.125,-0.125 m 6,0 h -4 c -0.069,0 -0.125,0.056 -0.125,0.125 0,0.069 0.056,0.125 0.125,0.125 h 4 c 0.069,0 0.125,-0.056 0.125,-0.125 0,-0.069 -0.056,-0.125 -0.125,-0.125 m 6,0 h -4 c -0.069,0 -0.125,0.056 -0.125,0.125 0,0.069 0.056,0.125 0.125,0.125 h 4 c 0.069,0 0.125,-0.056 0.125,-0.125 0,-0.069 -0.056,-0.125 -0.125,-0.125 m 6,0 h -4 c -0.069,0 -0.125,0.056 -0.125,0.125 0,0.069 0.056,0.125 0.125,0.125 h 4 c 0.069,0 0.125,-0.056 0.125,-0.125 0,-0.069 -0.056,-0.125 -0.125,-0.125 m 6,0 h -4 c -0.069,0 -0.125,0.056 -0.125,0.125 0,0.069 0.056,0.125 0.125,0.125 h 4 c 0.069,0 0.125,-0.056 0.125,-0.125 0,-0.069 -0.056,-0.125 -0.125,-0.125 m 6,0 h -4 c -0.069,0 -0.125,0.056 -0.125,0.125 0,0.069 0.056,0.125 0.125,0.125 h 4 c 0.069,0 0.125,-0.056 0.125,-0.125 0,-0.069 -0.056,-0.125 -0.125,-0.125 m 6,0 h -4 c -0.069,0 -0.125,0.056 -0.125,0.125 0,0.069 0.056,0.125 0.125,0.125 h 4 c 0.069,0 0.125,-0.056 0.125,-0.125 0,-0.069 -0.056,-0.125 -0.125,-0.125 m 6,0 h -4 c -0.069,0 -0.125,0.056 -0.125,0.125 0,0.069 0.056,0.125 0.125,0.125 h 4 c 0.069,0 0.125,-0.056 0.125,-0.125 0,-0.069 -0.056,-0.125 -0.125,-0.125 m 6,0 h -4 c -0.069,0 -0.125,0.056 -0.125,0.125 0,0.069 0.056,0.125 0.125,0.125 h 4 c 0.069,0 0.125,-0.056 0.125,-0.125 0,-0.069 -0.056,-0.125 -0.125,-0.125 m 6,0 h -4 c -0.069,0 -0.125,0.056 -0.125,0.125 0,0.069 0.056,0.125 0.125,0.125 h 4 c 0.069,0 0.125,-0.056 0.125,-0.125 0,-0.069 -0.056,-0.125 -0.125,-0.125 m 6,0 h -4 c -0.069,0 -0.125,0.056 -0.125,0.125 0,0.069 0.056,0.125 0.125,0.125 h 4 c 0.069,0 0.125,-0.056 0.125,-0.125 0,-0.069 -0.056,-0.125 -0.125,-0.125 m 6,0 h -4 c -0.069,0 -0.125,0.056 -0.125,0.125 0,0.069 0.056,0.125 0.125,0.125 h 4 c 0.069,0 0.125,-0.056 0.125,-0.125 0,-0.069 -0.056,-0.125 -0.125,-0.125 m 6,0 h -4 c -0.069,0 -0.125,0.056 -0.125,0.125 0,0.069 0.056,0.125 0.125,0.125 h 4 c 0.069,0 0.125,-0.056 0.125,-0.125 0,-0.069 -0.056,-0.125 -0.125,-0.125 m 6,0 h -4 c -0.069,0 -0.125,0.056 -0.125,0.125 0,0.069 0.056,0.125 0.125,0.125 h 4 c 0.069,0 0.125,-0.056 0.125,-0.125 0,-0.069 -0.056,-0.125 -0.125,-0.125 m 6,0 h -4 c -0.069,0 -0.125,0.056 -0.125,0.125 0,0.069 0.056,0.125 0.125,0.125 h 4 c 0.069,0 0.125,-0.056 0.125,-0.125 0,-0.069 -0.056,-0.125 -0.125,-0.125 m 6,0 h -4 c -0.069,0 -0.125,0.056 -0.125,0.125 0,0.069 0.056,0.125 0.125,0.125 h 4 c 0.069,0 0.125,-0.056 0.125,-0.125 0,-0.069 -0.056,-0.125 -0.125,-0.125 m 6,0 h -4 c -0.069,0 -0.125,0.056 -0.125,0.125 0,0.069 0.056,0.125 0.125,0.125 h 4 c 0.069,0 0.125,-0.056 0.125,-0.125 0,-0.069 -0.056,-0.125 -0.125,-0.125 m 6,0 h -4 c -0.069,0 -0.125,0.056 -0.125,0.125 0,0.069 0.056,0.125 0.125,0.125 h 4 c 0.069,0 0.125,-0.056 0.125,-0.125 0,-0.069 -0.056,-0.125 -0.125,-0.125 m 6,0 h -4 c -0.069,0 -0.125,0.056 -0.125,0.125 0,0.069 0.056,0.125 0.125,0.125 h 4 c 0.069,0 0.125,-0.056 0.125,-0.125 0,-0.069 -0.056,-0.125 -0.125,-0.125 m 6,0 h -4 c -0.069,0 -0.125,0.056 -0.125,0.125 0,0.069 0.056,0.125 0.125,0.125 h 4 c 0.069,0 0.125,-0.056 0.125,-0.125 0,-0.069 -0.056,-0.125 -0.125,-0.125 m 6,0 h -4 c -0.069,0 -0.125,0.056 -0.125,0.125 0,0.069 0.056,0.125 0.125,0.125 h 4 c 0.069,0 0.125,-0.056 0.125,-0.125 0,-0.069 -0.056,-0.125 -0.125,-0.125 m 6,0 h -4 c -0.069,0 -0.125,0.056 -0.125,0.125 0,0.069 0.056,0.125 0.125,0.125 h 4 c 0.069,0 0.125,-0.056 0.125,-0.125 0,-0.069 -0.056,-0.125 -0.125,-0.125 m 6,0 h -4 c -0.069,0 -0.125,0.056 -0.125,0.125 0,0.069 0.056,0.125 0.125,0.125 h 4 c 0.069,0 0.125,-0.056 0.125,-0.125 0,-0.069 -0.056,-0.125 -0.125,-0.125 m 6,0 h -4 c -0.069,0 -0.125,0.056 -0.125,0.125 0,0.069 0.056,0.125 0.125,0.125 h 4 c 0.069,0 0.125,-0.056 0.125,-0.125 0,-0.069 -0.056,-0.125 -0.125,-0.125 m 6,0 h -4 c -0.069,0 -0.125,0.056 -0.125,0.125 0,0.069 0.056,0.125 0.125,0.125 h 4 c 0.069,0 0.125,-0.056 0.125,-0.125 0,-0.069 -0.056,-0.125 -0.125,-0.125 m 6,0 h -4 c -0.069,0 -0.125,0.056 -0.125,0.125 0,0.069 0.056,0.125 0.125,0.125 h 4 c 0.069,0 0.125,-0.056 0.125,-0.125 0,-0.069 -0.056,-0.125 -0.125,-0.125 m 6,0 h -4 c -0.069,0 -0.125,0.056 -0.125,0.125 0,0.069 0.056,0.125 0.125,0.125 h 4 c 0.069,0 0.125,-0.056 0.125,-0.125 0,-0.069 -0.056,-0.125 -0.125,-0.125 m 6,0 h -4 c -0.069,0 -0.125,0.056 -0.125,0.125 0,0.069 0.056,0.125 0.125,0.125 h 4 c 0.069,0 0.125,-0.056 0.125,-0.125 0,-0.069 -0.056,-0.125 -0.125,-0.125" /><path
       inkscape:connector-curvature="0"
       id="path14655"
       style="fill:#000000;fill-opacity:1;fill-rule:nonzero;stroke:none"
       d="m 519.8828,304.8574 c -0.069,0 -0.125,0.056 -0.125,0.125 v 4 c 0,0.069 0.056,0.125 0.125,0.125 0.069,0 0.125,-0.056 0.125,-0.125 v -4 c 0,-0.069 -0.056,-0.125 -0.125,-0.125 m 0,-6 c -0.069,0 -0.125,0.056 -0.125,0.125 v 4 c 0,0.069 0.056,0.125 0.125,0.125 0.069,0 0.125,-0.056 0.125,-0.125 v -4 c 0,-0.069 -0.056,-0.125 -0.125,-0.125 m 0,-6 c -0.069,0 -0.125,0.056 -0.125,0.125 v 4 c 0,0.069 0.056,0.125 0.125,0.125 0.069,0 0.125,-0.056 0.125,-0.125 v -4 c 0,-0.069 -0.056,-0.125 -0.125,-0.125 m 0,-6 c -0.069,0 -0.125,0.056 -0.125,0.125 v 4 c 0,0.069 0.056,0.125 0.125,0.125 0.069,0 0.125,-0.056 0.125,-0.125 v -4 c 0,-0.069 -0.056,-0.125 -0.125,-0.125 m 0,-6 c -0.069,0 -0.125,0.056 -0.125,0.125 v 4 c 0,0.069 0.056,0.125 0.125,0.125 0.069,0 0.125,-0.056 0.125,-0.125 v -4 c 0,-0.069 -0.056,-0.125 -0.125,-0.125 m 0,-6 c -0.069,0 -0.125,0.056 -0.125,0.125 v 4 c 0,0.069 0.056,0.125 0.125,0.125 0.069,0 0.125,-0.056 0.125,-0.125 v -4 c 0,-0.069 -0.056,-0.125 -0.125,-0.125 m 0,-6 c -0.069,0 -0.125,0.056 -0.125,0.125 v 4 c 0,0.069 0.056,0.125 0.125,0.125 0.069,0 0.125,-0.056 0.125,-0.125 v -4 c 0,-0.069 -0.056,-0.125 -0.125,-0.125 m 0,-6 c -0.069,0 -0.125,0.056 -0.125,0.125 v 4 c 0,0.069 0.056,0.125 0.125,0.125 0.069,0 0.125,-0.056 0.125,-0.125 v -4 c 0,-0.069 -0.056,-0.125 -0.125,-0.125 m 0,-6 c -0.069,0 -0.125,0.056 -0.125,0.125 v 4 c 0,0.069 0.056,0.125 0.125,0.125 0.069,0 0.125,-0.056 0.125,-0.125 v -4 c 0,-0.069 -0.056,-0.125 -0.125,-0.125 m 0,-6 c -0.069,0 -0.125,0.056 -0.125,0.125 v 4 c 0,0.069 0.056,0.125 0.125,0.125 0.069,0 0.125,-0.056 0.125,-0.125 v -4 c 0,-0.069 -0.056,-0.125 -0.125,-0.125 m 0,-6 c -0.069,0 -0.125,0.056 -0.125,0.125 v 4 c 0,0.069 0.056,0.125 0.125,0.125 0.069,0 0.125,-0.056 0.125,-0.125 v -4 c 0,-0.069 -0.056,-0.125 -0.125,-0.125 m 0,-6 c -0.069,0 -0.125,0.056 -0.125,0.125 v 4 c 0,0.069 0.056,0.125 0.125,0.125 0.069,0 0.125,-0.056 0.125,-0.125 v -4 c 0,-0.069 -0.056,-0.125 -0.125,-0.125 m 0,-6 c -0.069,0 -0.125,0.056 -0.125,0.125 v 4 c 0,0.069 0.056,0.125 0.125,0.125 0.069,0 0.125,-0.056 0.125,-0.125 v -4 c 0,-0.069 -0.056,-0.125 -0.125,-0.125 m 0,-6 c -0.069,0 -0.125,0.056 -0.125,0.125 v 4 c 0,0.069 0.056,0.125 0.125,0.125 0.069,0 0.125,-0.056 0.125,-0.125 v -4 c 0,-0.069 -0.056,-0.125 -0.125,-0.125 m 0,-6 c -0.069,0 -0.125,0.056 -0.125,0.125 v 4 c 0,0.069 0.056,0.125 0.125,0.125 0.069,0 0.125,-0.056 0.125,-0.125 v -4 c 0,-0.069 -0.056,-0.125 -0.125,-0.125 m 0,-6 c -0.069,0 -0.125,0.056 -0.125,0.125 v 4 c 0,0.069 0.056,0.125 0.125,0.125 0.069,0 0.125,-0.056 0.125,-0.125 v -4 c 0,-0.069 -0.056,-0.125 -0.125,-0.125 m 0,-6 c -0.069,0 -0.125,0.056 -0.125,0.125 v 4 c 0,0.069 0.056,0.125 0.125,0.125 0.069,0 0.125,-0.056 0.125,-0.125 v -4 c 0,-0.069 -0.056,-0.125 -0.125,-0.125 m 0,-6 c -0.069,0 -0.125,0.056 -0.125,0.125 v 4 c 0,0.069 0.056,0.125 0.125,0.125 0.069,0 0.125,-0.056 0.125,-0.125 v -4 c 0,-0.069 -0.056,-0.125 -0.125,-0.125 m 0,-6 c -0.069,0 -0.125,0.056 -0.125,0.125 v 4 c 0,0.069 0.056,0.125 0.125,0.125 0.069,0 0.125,-0.056 0.125,-0.125 v -4 c 0,-0.069 -0.056,-0.125 -0.125,-0.125 m 0,-6 c -0.069,0 -0.125,0.056 -0.125,0.125 v 4 c 0,0.069 0.056,0.125 0.125,0.125 0.069,0 0.125,-0.056 0.125,-0.125 v -4 c 0,-0.069 -0.056,-0.125 -0.125,-0.125 m 0,-6 c -0.069,0 -0.125,0.056 -0.125,0.125 v 4 c 0,0.069 0.056,0.125 0.125,0.125 0.069,0 0.125,-0.056 0.125,-0.125 v -4 c 0,-0.069 -0.056,-0.125 -0.125,-0.125 m 0,-6 c -0.069,0 -0.125,0.056 -0.125,0.125 v 4 c 0,0.069 0.056,0.125 0.125,0.125 0.069,0 0.125,-0.056 0.125,-0.125 v -4 c 0,-0.069 -0.056,-0.125 -0.125,-0.125 m 0,-6 c -0.069,0 -0.125,0.056 -0.125,0.125 v 4 c 0,0.069 0.056,0.125 0.125,0.125 0.069,0 0.125,-0.056 0.125,-0.125 v -4 c 0,-0.069 -0.056,-0.125 -0.125,-0.125 m 0,-6 c -0.069,0 -0.125,0.056 -0.125,0.125 v 4 c 0,0.069 0.056,0.125 0.125,0.125 0.069,0 0.125,-0.056 0.125,-0.125 v -4 c 0,-0.069 -0.056,-0.125 -0.125,-0.125 m 0,-5.311 c -0.069,0 -0.125,0.056 -0.125,0.125 v 3.311 c 0,0.069 0.056,0.125 0.125,0.125 0.069,0 0.125,-0.056 0.125,-0.125 v -3.311 c 0,-0.069 -0.056,-0.125 -0.125,-0.125" /><path
       inkscape:connector-curvature="0"
       id="path14659"
       style="fill:#000000;fill-opacity:1;fill-rule:nonzero;stroke:none"
       d="m 172.8467,308.8574 h -4 c -0.069,0 -0.125,0.056 -0.125,0.125 0,0.069 0.056,0.125 0.125,0.125 h 4 c 0.069,0 0.125,-0.056 0.125,-0.125 0,-0.069 -0.056,-0.125 -0.125,-0.125 m 6,0 h -4 c -0.069,0 -0.125,0.056 -0.125,0.125 0,0.069 0.056,0.125 0.125,0.125 h 4 c 0.069,0 0.125,-0.056 0.125,-0.125 0,-0.069 -0.056,-0.125 -0.125,-0.125 m 6,0 h -4 c -0.069,0 -0.125,0.056 -0.125,0.125 0,0.069 0.056,0.125 0.125,0.125 h 4 c 0.069,0 0.125,-0.056 0.125,-0.125 0,-0.069 -0.056,-0.125 -0.125,-0.125 m 6,0 h -4 c -0.069,0 -0.125,0.056 -0.125,0.125 0,0.069 0.056,0.125 0.125,0.125 h 4 c 0.069,0 0.125,-0.056 0.125,-0.125 0,-0.069 -0.056,-0.125 -0.125,-0.125 m 6,0 h -4 c -0.069,0 -0.125,0.056 -0.125,0.125 0,0.069 0.056,0.125 0.125,0.125 h 4 c 0.069,0 0.125,-0.056 0.125,-0.125 0,-0.069 -0.056,-0.125 -0.125,-0.125 m 6,0 h -4 c -0.069,0 -0.125,0.056 -0.125,0.125 0,0.069 0.056,0.125 0.125,0.125 h 4 c 0.069,0 0.125,-0.056 0.125,-0.125 0,-0.069 -0.056,-0.125 -0.125,-0.125 m 6,0 h -4 c -0.069,0 -0.125,0.056 -0.125,0.125 0,0.069 0.056,0.125 0.125,0.125 h 4 c 0.069,0 0.125,-0.056 0.125,-0.125 0,-0.069 -0.056,-0.125 -0.125,-0.125 m 6,0 h -4 c -0.069,0 -0.125,0.056 -0.125,0.125 0,0.069 0.056,0.125 0.125,0.125 h 4 c 0.069,0 0.125,-0.056 0.125,-0.125 0,-0.069 -0.056,-0.125 -0.125,-0.125 m 6,0 h -4 c -0.069,0 -0.125,0.056 -0.125,0.125 0,0.069 0.056,0.125 0.125,0.125 h 4 c 0.069,0 0.125,-0.056 0.125,-0.125 0,-0.069 -0.056,-0.125 -0.125,-0.125 m 6,0 h -4 c -0.069,0 -0.125,0.056 -0.125,0.125 0,0.069 0.056,0.125 0.125,0.125 h 4 c 0.069,0 0.125,-0.056 0.125,-0.125 0,-0.069 -0.056,-0.125 -0.125,-0.125 m 6,0 h -4 c -0.069,0 -0.125,0.056 -0.125,0.125 0,0.069 0.056,0.125 0.125,0.125 h 4 c 0.069,0 0.125,-0.056 0.125,-0.125 0,-0.069 -0.056,-0.125 -0.125,-0.125 m 6,0 h -4 c -0.069,0 -0.125,0.056 -0.125,0.125 0,0.069 0.056,0.125 0.125,0.125 h 4 c 0.069,0 0.125,-0.056 0.125,-0.125 0,-0.069 -0.056,-0.125 -0.125,-0.125 m 6,0 h -4 c -0.069,0 -0.125,0.056 -0.125,0.125 0,0.069 0.056,0.125 0.125,0.125 h 4 c 0.069,0 0.125,-0.056 0.125,-0.125 0,-0.069 -0.056,-0.125 -0.125,-0.125 m 6,0 h -4 c -0.069,0 -0.125,0.056 -0.125,0.125 0,0.069 0.056,0.125 0.125,0.125 h 4 c 0.069,0 0.125,-0.056 0.125,-0.125 0,-0.069 -0.056,-0.125 -0.125,-0.125 m 6,0 h -4 c -0.069,0 -0.125,0.056 -0.125,0.125 0,0.069 0.056,0.125 0.125,0.125 h 4 c 0.069,0 0.125,-0.056 0.125,-0.125 0,-0.069 -0.056,-0.125 -0.125,-0.125 m 6,0 h -4 c -0.069,0 -0.125,0.056 -0.125,0.125 0,0.069 0.056,0.125 0.125,0.125 h 4 c 0.069,0 0.125,-0.056 0.125,-0.125 0,-0.069 -0.056,-0.125 -0.125,-0.125 m 6,0 h -4 c -0.069,0 -0.125,0.056 -0.125,0.125 0,0.069 0.056,0.125 0.125,0.125 h 4 c 0.069,0 0.125,-0.056 0.125,-0.125 0,-0.069 -0.056,-0.125 -0.125,-0.125 m 6,0 h -4 c -0.069,0 -0.125,0.056 -0.125,0.125 0,0.069 0.056,0.125 0.125,0.125 h 4 c 0.069,0 0.125,-0.056 0.125,-0.125 0,-0.069 -0.056,-0.125 -0.125,-0.125 m 6,0 h -4 c -0.069,0 -0.125,0.056 -0.125,0.125 0,0.069 0.056,0.125 0.125,0.125 h 4 c 0.069,0 0.125,-0.056 0.125,-0.125 0,-0.069 -0.056,-0.125 -0.125,-0.125 m 6,0 h -4 c -0.069,0 -0.125,0.056 -0.125,0.125 0,0.069 0.056,0.125 0.125,0.125 h 4 c 0.069,0 0.125,-0.056 0.125,-0.125 0,-0.069 -0.056,-0.125 -0.125,-0.125 m 6,0 h -4 c -0.069,0 -0.125,0.056 -0.125,0.125 0,0.069 0.056,0.125 0.125,0.125 h 4 c 0.069,0 0.125,-0.056 0.125,-0.125 0,-0.069 -0.056,-0.125 -0.125,-0.125 m 6,0 h -4 c -0.069,0 -0.125,0.056 -0.125,0.125 0,0.069 0.056,0.125 0.125,0.125 h 4 c 0.069,0 0.125,-0.056 0.125,-0.125 0,-0.069 -0.056,-0.125 -0.125,-0.125 m 6,0 h -4 c -0.069,0 -0.125,0.056 -0.125,0.125 0,0.069 0.056,0.125 0.125,0.125 h 4 c 0.069,0 0.125,-0.056 0.125,-0.125 0,-0.069 -0.056,-0.125 -0.125,-0.125 m 6,0 h -4 c -0.069,0 -0.125,0.056 -0.125,0.125 0,0.069 0.056,0.125 0.125,0.125 h 4 c 0.069,0 0.125,-0.056 0.125,-0.125 0,-0.069 -0.056,-0.125 -0.125,-0.125 m 6,0 h -4 c -0.069,0 -0.125,0.056 -0.125,0.125 0,0.069 0.056,0.125 0.125,0.125 h 4 c 0.069,0 0.125,-0.056 0.125,-0.125 0,-0.069 -0.056,-0.125 -0.125,-0.125 m 6,0 h -4 c -0.069,0 -0.125,0.056 -0.125,0.125 0,0.069 0.056,0.125 0.125,0.125 h 4 c 0.069,0 0.125,-0.056 0.125,-0.125 0,-0.069 -0.056,-0.125 -0.125,-0.125 m 6,0 h -4 c -0.069,0 -0.125,0.056 -0.125,0.125 0,0.069 0.056,0.125 0.125,0.125 h 4 c 0.069,0 0.125,-0.056 0.125,-0.125 0,-0.069 -0.056,-0.125 -0.125,-0.125 m 6,0 h -4 c -0.069,0 -0.125,0.056 -0.125,0.125 0,0.069 0.056,0.125 0.125,0.125 h 4 c 0.069,0 0.125,-0.056 0.125,-0.125 0,-0.069 -0.056,-0.125 -0.125,-0.125 m 6,0 h -4 c -0.069,0 -0.125,0.056 -0.125,0.125 0,0.069 0.056,0.125 0.125,0.125 h 4 c 0.069,0 0.125,-0.056 0.125,-0.125 0,-0.069 -0.056,-0.125 -0.125,-0.125 m 6,0 h -4 c -0.069,0 -0.125,0.056 -0.125,0.125 0,0.069 0.056,0.125 0.125,0.125 h 4 c 0.069,0 0.125,-0.056 0.125,-0.125 0,-0.069 -0.056,-0.125 -0.125,-0.125 m 6,0 h -4 c -0.069,0 -0.125,0.056 -0.125,0.125 0,0.069 0.056,0.125 0.125,0.125 h 4 c 0.069,0 0.125,-0.056 0.125,-0.125 0,-0.069 -0.056,-0.125 -0.125,-0.125 m 6,0 h -4 c -0.069,0 -0.125,0.056 -0.125,0.125 0,0.069 0.056,0.125 0.125,0.125 h 4 c 0.069,0 0.125,-0.056 0.125,-0.125 0,-0.069 -0.056,-0.125 -0.125,-0.125 m 6,0 h -4 c -0.069,0 -0.125,0.056 -0.125,0.125 0,0.069 0.056,0.125 0.125,0.125 h 4 c 0.069,0 0.125,-0.056 0.125,-0.125 0,-0.069 -0.056,-0.125 -0.125,-0.125 m 6,0 h -4 c -0.069,0 -0.125,0.056 -0.125,0.125 0,0.069 0.056,0.125 0.125,0.125 h 4 c 0.069,0 0.125,-0.056 0.125,-0.125 0,-0.069 -0.056,-0.125 -0.125,-0.125 m 6,0 h -4 c -0.069,0 -0.125,0.056 -0.125,0.125 0,0.069 0.056,0.125 0.125,0.125 h 4 c 0.069,0 0.125,-0.056 0.125,-0.125 0,-0.069 -0.056,-0.125 -0.125,-0.125 m 6,0 h -4 c -0.069,0 -0.125,0.056 -0.125,0.125 0,0.069 0.056,0.125 0.125,0.125 h 4 c 0.069,0 0.125,-0.056 0.125,-0.125 0,-0.069 -0.056,-0.125 -0.125,-0.125 m 6,0 h -4 c -0.069,0 -0.125,0.056 -0.125,0.125 0,0.069 0.056,0.125 0.125,0.125 h 4 c 0.069,0 0.125,-0.056 0.125,-0.125 0,-0.069 -0.056,-0.125 -0.125,-0.125 m 6,0 h -4 c -0.069,0 -0.125,0.056 -0.125,0.125 0,0.069 0.056,0.125 0.125,0.125 h 4 c 0.069,0 0.125,-0.056 0.125,-0.125 0,-0.069 -0.056,-0.125 -0.125,-0.125 m 6,0 h -4 c -0.069,0 -0.125,0.056 -0.125,0.125 0,0.069 0.056,0.125 0.125,0.125 h 4 c 0.069,0 0.125,-0.056 0.125,-0.125 0,-0.069 -0.056,-0.125 -0.125,-0.125 m 6,0 h -4 c -0.069,0 -0.125,0.056 -0.125,0.125 0,0.069 0.056,0.125 0.125,0.125 h 4 c 0.069,0 0.125,-0.056 0.125,-0.125 0,-0.069 -0.056,-0.125 -0.125,-0.125 m 6,0 h -4 c -0.069,0 -0.125,0.056 -0.125,0.125 0,0.069 0.056,0.125 0.125,0.125 h 4 c 0.069,0 0.125,-0.056 0.125,-0.125 0,-0.069 -0.056,-0.125 -0.125,-0.125 m 6,0 h -4 c -0.069,0 -0.125,0.056 -0.125,0.125 0,0.069 0.056,0.125 0.125,0.125 h 4 c 0.069,0 0.125,-0.056 0.125,-0.125 0,-0.069 -0.056,-0.125 -0.125,-0.125 m 6,0 h -4 c -0.069,0 -0.125,0.056 -0.125,0.125 0,0.069 0.056,0.125 0.125,0.125 h 4 c 0.069,0 0.125,-0.056 0.125,-0.125 0,-0.069 -0.056,-0.125 -0.125,-0.125 m 6,0 h -4 c -0.069,0 -0.125,0.056 -0.125,0.125 0,0.069 0.056,0.125 0.125,0.125 h 4 c 0.069,0 0.125,-0.056 0.125,-0.125 0,-0.069 -0.056,-0.125 -0.125,-0.125 m 6,0 h -4 c -0.069,0 -0.125,0.056 -0.125,0.125 0,0.069 0.056,0.125 0.125,0.125 h 4 c 0.069,0 0.125,-0.056 0.125,-0.125 0,-0.069 -0.056,-0.125 -0.125,-0.125 m 6,0 h -4 c -0.069,0 -0.125,0.056 -0.125,0.125 0,0.069 0.056,0.125 0.125,0.125 h 4 c 0.069,0 0.125,-0.056 0.125,-0.125 0,-0.069 -0.056,-0.125 -0.125,-0.125 m 6,0 h -4 c -0.069,0 -0.125,0.056 -0.125,0.125 0,0.069 0.056,0.125 0.125,0.125 h 4 c 0.069,0 0.125,-0.056 0.125,-0.125 0,-0.069 -0.056,-0.125 -0.125,-0.125 m 6,0 h -4 c -0.069,0 -0.125,0.056 -0.125,0.125 0,0.069 0.056,0.125 0.125,0.125 h 4 c 0.069,0 0.125,-0.056 0.125,-0.125 0,-0.069 -0.056,-0.125 -0.125,-0.125 m 6,0 h -4 c -0.069,0 -0.125,0.056 -0.125,0.125 0,0.069 0.056,0.125 0.125,0.125 h 4 c 0.069,0 0.125,-0.056 0.125,-0.125 0,-0.069 -0.056,-0.125 -0.125,-0.125 m 6,0 h -4 c -0.069,0 -0.125,0.056 -0.125,0.125 0,0.069 0.056,0.125 0.125,0.125 h 4 c 0.069,0 0.125,-0.056 0.125,-0.125 0,-0.069 -0.056,-0.125 -0.125,-0.125 m 6,0 h -4 c -0.069,0 -0.125,0.056 -0.125,0.125 0,0.069 0.056,0.125 0.125,0.125 h 4 c 0.069,0 0.125,-0.056 0.125,-0.125 0,-0.069 -0.056,-0.125 -0.125,-0.125 m 6,0 h -4 c -0.069,0 -0.125,0.056 -0.125,0.125 0,0.069 0.056,0.125 0.125,0.125 h 4 c 0.069,0 0.125,-0.056 0.125,-0.125 0,-0.069 -0.056,-0.125 -0.125,-0.125 m 6,0 h -4 c -0.069,0 -0.125,0.056 -0.125,0.125 0,0.069 0.056,0.125 0.125,0.125 h 4 c 0.069,0 0.125,-0.056 0.125,-0.125 0,-0.069 -0.056,-0.125 -0.125,-0.125 m 6,0 h -4 c -0.069,0 -0.125,0.056 -0.125,0.125 0,0.069 0.056,0.125 0.125,0.125 h 4 c 0.069,0 0.125,-0.056 0.125,-0.125 0,-0.069 -0.056,-0.125 -0.125,-0.125 m 6,0 h -4 c -0.069,0 -0.125,0.056 -0.125,0.125 0,0.069 0.056,0.125 0.125,0.125 h 4 c 0.069,0 0.125,-0.056 0.125,-0.125 0,-0.069 -0.056,-0.125 -0.125,-0.125 m 6,0 h -4 c -0.069,0 -0.125,0.056 -0.125,0.125 0,0.069 0.056,0.125 0.125,0.125 h 4 c 0.069,0 0.125,-0.056 0.125,-0.125 0,-0.069 -0.056,-0.125 -0.125,-0.125 m 6,0 h -4 c -0.069,0 -0.125,0.056 -0.125,0.125 0,0.069 0.056,0.125 0.125,0.125 h 4 c 0.069,0 0.125,-0.056 0.125,-0.125 0,-0.069 -0.056,-0.125 -0.125,-0.125 m 6,0 h -4 c -0.069,0 -0.125,0.056 -0.125,0.125 0,0.069 0.056,0.125 0.125,0.125 h 4 c 0.069,0 0.125,-0.056 0.125,-0.125 0,-0.069 -0.056,-0.125 -0.125,-0.125 m 5.036,0 h -3.036 c -0.069,0 -0.125,0.056 -0.125,0.125 0,0.069 0.056,0.125 0.125,0.125 h 3.036 c 0.069,0 0.125,-0.056 0.125,-0.125 0,-0.069 -0.056,-0.125 -0.125,-0.125" /><path
       inkscape:connector-curvature="0"
       id="path14663"
       style="fill:#000000;fill-opacity:1;fill-rule:nonzero;stroke:none"
       d="m 172.8467,404.875 h -4 c -0.069,0 -0.125,0.056 -0.125,0.125 0,0.069 0.056,0.125 0.125,0.125 h 4 c 0.069,0 0.125,-0.056 0.125,-0.125 0,-0.069 -0.056,-0.125 -0.125,-0.125 m 6,0 h -4 c -0.069,0 -0.125,0.056 -0.125,0.125 0,0.069 0.056,0.125 0.125,0.125 h 4 c 0.069,0 0.125,-0.056 0.125,-0.125 0,-0.069 -0.056,-0.125 -0.125,-0.125 m 6,0 h -4 c -0.069,0 -0.125,0.056 -0.125,0.125 0,0.069 0.056,0.125 0.125,0.125 h 4 c 0.069,0 0.125,-0.056 0.125,-0.125 0,-0.069 -0.056,-0.125 -0.125,-0.125 m 6,0 h -4 c -0.069,0 -0.125,0.056 -0.125,0.125 0,0.069 0.056,0.125 0.125,0.125 h 4 c 0.069,0 0.125,-0.056 0.125,-0.125 0,-0.069 -0.056,-0.125 -0.125,-0.125 m 6,0 h -4 c -0.069,0 -0.125,0.056 -0.125,0.125 0,0.069 0.056,0.125 0.125,0.125 h 4 c 0.069,0 0.125,-0.056 0.125,-0.125 0,-0.069 -0.056,-0.125 -0.125,-0.125 m 6,0 h -4 c -0.069,0 -0.125,0.056 -0.125,0.125 0,0.069 0.056,0.125 0.125,0.125 h 4 c 0.069,0 0.125,-0.056 0.125,-0.125 0,-0.069 -0.056,-0.125 -0.125,-0.125 m 6,0 h -4 c -0.069,0 -0.125,0.056 -0.125,0.125 0,0.069 0.056,0.125 0.125,0.125 h 4 c 0.069,0 0.125,-0.056 0.125,-0.125 0,-0.069 -0.056,-0.125 -0.125,-0.125 m 6,0 h -4 c -0.069,0 -0.125,0.056 -0.125,0.125 0,0.069 0.056,0.125 0.125,0.125 h 4 c 0.069,0 0.125,-0.056 0.125,-0.125 0,-0.069 -0.056,-0.125 -0.125,-0.125 m 6,0 h -4 c -0.069,0 -0.125,0.056 -0.125,0.125 0,0.069 0.056,0.125 0.125,0.125 h 4 c 0.069,0 0.125,-0.056 0.125,-0.125 0,-0.069 -0.056,-0.125 -0.125,-0.125 m 6,0 h -4 c -0.069,0 -0.125,0.056 -0.125,0.125 0,0.069 0.056,0.125 0.125,0.125 h 4 c 0.069,0 0.125,-0.056 0.125,-0.125 0,-0.069 -0.056,-0.125 -0.125,-0.125 m 6,0 h -4 c -0.069,0 -0.125,0.056 -0.125,0.125 0,0.069 0.056,0.125 0.125,0.125 h 4 c 0.069,0 0.125,-0.056 0.125,-0.125 0,-0.069 -0.056,-0.125 -0.125,-0.125 m 6,0 h -4 c -0.069,0 -0.125,0.056 -0.125,0.125 0,0.069 0.056,0.125 0.125,0.125 h 4 c 0.069,0 0.125,-0.056 0.125,-0.125 0,-0.069 -0.056,-0.125 -0.125,-0.125 m 6,0 h -4 c -0.069,0 -0.125,0.056 -0.125,0.125 0,0.069 0.056,0.125 0.125,0.125 h 4 c 0.069,0 0.125,-0.056 0.125,-0.125 0,-0.069 -0.056,-0.125 -0.125,-0.125 m 6,0 h -4 c -0.069,0 -0.125,0.056 -0.125,0.125 0,0.069 0.056,0.125 0.125,0.125 h 4 c 0.069,0 0.125,-0.056 0.125,-0.125 0,-0.069 -0.056,-0.125 -0.125,-0.125 m 6,0 h -4 c -0.069,0 -0.125,0.056 -0.125,0.125 0,0.069 0.056,0.125 0.125,0.125 h 4 c 0.069,0 0.125,-0.056 0.125,-0.125 0,-0.069 -0.056,-0.125 -0.125,-0.125 m 6,0 h -4 c -0.069,0 -0.125,0.056 -0.125,0.125 0,0.069 0.056,0.125 0.125,0.125 h 4 c 0.069,0 0.125,-0.056 0.125,-0.125 0,-0.069 -0.056,-0.125 -0.125,-0.125 m 6,0 h -4 c -0.069,0 -0.125,0.056 -0.125,0.125 0,0.069 0.056,0.125 0.125,0.125 h 4 c 0.069,0 0.125,-0.056 0.125,-0.125 0,-0.069 -0.056,-0.125 -0.125,-0.125 m 6,0 h -4 c -0.069,0 -0.125,0.056 -0.125,0.125 0,0.069 0.056,0.125 0.125,0.125 h 4 c 0.069,0 0.125,-0.056 0.125,-0.125 0,-0.069 -0.056,-0.125 -0.125,-0.125 m 6,0 h -4 c -0.069,0 -0.125,0.056 -0.125,0.125 0,0.069 0.056,0.125 0.125,0.125 h 4 c 0.069,0 0.125,-0.056 0.125,-0.125 0,-0.069 -0.056,-0.125 -0.125,-0.125 m 6,0 h -4 c -0.069,0 -0.125,0.056 -0.125,0.125 0,0.069 0.056,0.125 0.125,0.125 h 4 c 0.069,0 0.125,-0.056 0.125,-0.125 0,-0.069 -0.056,-0.125 -0.125,-0.125 m 6,0 h -4 c -0.069,0 -0.125,0.056 -0.125,0.125 0,0.069 0.056,0.125 0.125,0.125 h 4 c 0.069,0 0.125,-0.056 0.125,-0.125 0,-0.069 -0.056,-0.125 -0.125,-0.125 m 6,0 h -4 c -0.069,0 -0.125,0.056 -0.125,0.125 0,0.069 0.056,0.125 0.125,0.125 h 4 c 0.069,0 0.125,-0.056 0.125,-0.125 0,-0.069 -0.056,-0.125 -0.125,-0.125 m 6,0 h -4 c -0.069,0 -0.125,0.056 -0.125,0.125 0,0.069 0.056,0.125 0.125,0.125 h 4 c 0.069,0 0.125,-0.056 0.125,-0.125 0,-0.069 -0.056,-0.125 -0.125,-0.125 m 6,0 h -4 c -0.069,0 -0.125,0.056 -0.125,0.125 0,0.069 0.056,0.125 0.125,0.125 h 4 c 0.069,0 0.125,-0.056 0.125,-0.125 0,-0.069 -0.056,-0.125 -0.125,-0.125 m 6,0 h -4 c -0.069,0 -0.125,0.056 -0.125,0.125 0,0.069 0.056,0.125 0.125,0.125 h 4 c 0.069,0 0.125,-0.056 0.125,-0.125 0,-0.069 -0.056,-0.125 -0.125,-0.125 m 6,0 h -4 c -0.069,0 -0.125,0.056 -0.125,0.125 0,0.069 0.056,0.125 0.125,0.125 h 4 c 0.069,0 0.125,-0.056 0.125,-0.125 0,-0.069 -0.056,-0.125 -0.125,-0.125 m 6,0 h -4 c -0.069,0 -0.125,0.056 -0.125,0.125 0,0.069 0.056,0.125 0.125,0.125 h 4 c 0.069,0 0.125,-0.056 0.125,-0.125 0,-0.069 -0.056,-0.125 -0.125,-0.125 m 6,0 h -4 c -0.069,0 -0.125,0.056 -0.125,0.125 0,0.069 0.056,0.125 0.125,0.125 h 4 c 0.069,0 0.125,-0.056 0.125,-0.125 0,-0.069 -0.056,-0.125 -0.125,-0.125 m 6,0 h -4 c -0.069,0 -0.125,0.056 -0.125,0.125 0,0.069 0.056,0.125 0.125,0.125 h 4 c 0.069,0 0.125,-0.056 0.125,-0.125 0,-0.069 -0.056,-0.125 -0.125,-0.125 m 6,0 h -4 c -0.069,0 -0.125,0.056 -0.125,0.125 0,0.069 0.056,0.125 0.125,0.125 h 4 c 0.069,0 0.125,-0.056 0.125,-0.125 0,-0.069 -0.056,-0.125 -0.125,-0.125 m 6,0 h -4 c -0.069,0 -0.125,0.056 -0.125,0.125 0,0.069 0.056,0.125 0.125,0.125 h 4 c 0.069,0 0.125,-0.056 0.125,-0.125 0,-0.069 -0.056,-0.125 -0.125,-0.125 m 6,0 h -4 c -0.069,0 -0.125,0.056 -0.125,0.125 0,0.069 0.056,0.125 0.125,0.125 h 4 c 0.069,0 0.125,-0.056 0.125,-0.125 0,-0.069 -0.056,-0.125 -0.125,-0.125 m 6,0 h -4 c -0.069,0 -0.125,0.056 -0.125,0.125 0,0.069 0.056,0.125 0.125,0.125 h 4 c 0.069,0 0.125,-0.056 0.125,-0.125 0,-0.069 -0.056,-0.125 -0.125,-0.125 m 6,0 h -4 c -0.069,0 -0.125,0.056 -0.125,0.125 0,0.069 0.056,0.125 0.125,0.125 h 4 c 0.069,0 0.125,-0.056 0.125,-0.125 0,-0.069 -0.056,-0.125 -0.125,-0.125 m 6,0 h -4 c -0.069,0 -0.125,0.056 -0.125,0.125 0,0.069 0.056,0.125 0.125,0.125 h 4 c 0.069,0 0.125,-0.056 0.125,-0.125 0,-0.069 -0.056,-0.125 -0.125,-0.125 m 6,0 h -4 c -0.069,0 -0.125,0.056 -0.125,0.125 0,0.069 0.056,0.125 0.125,0.125 h 4 c 0.069,0 0.125,-0.056 0.125,-0.125 0,-0.069 -0.056,-0.125 -0.125,-0.125 m 6,0 h -4 c -0.069,0 -0.125,0.056 -0.125,0.125 0,0.069 0.056,0.125 0.125,0.125 h 4 c 0.069,0 0.125,-0.056 0.125,-0.125 0,-0.069 -0.056,-0.125 -0.125,-0.125 m 6,0 h -4 c -0.069,0 -0.125,0.056 -0.125,0.125 0,0.069 0.056,0.125 0.125,0.125 h 4 c 0.069,0 0.125,-0.056 0.125,-0.125 0,-0.069 -0.056,-0.125 -0.125,-0.125 m 6,0 h -4 c -0.069,0 -0.125,0.056 -0.125,0.125 0,0.069 0.056,0.125 0.125,0.125 h 4 c 0.069,0 0.125,-0.056 0.125,-0.125 0,-0.069 -0.056,-0.125 -0.125,-0.125 m 6,0 h -4 c -0.069,0 -0.125,0.056 -0.125,0.125 0,0.069 0.056,0.125 0.125,0.125 h 4 c 0.069,0 0.125,-0.056 0.125,-0.125 0,-0.069 -0.056,-0.125 -0.125,-0.125 m 6,0 h -4 c -0.069,0 -0.125,0.056 -0.125,0.125 0,0.069 0.056,0.125 0.125,0.125 h 4 c 0.069,0 0.125,-0.056 0.125,-0.125 0,-0.069 -0.056,-0.125 -0.125,-0.125 m 6,0 h -4 c -0.069,0 -0.125,0.056 -0.125,0.125 0,0.069 0.056,0.125 0.125,0.125 h 4 c 0.069,0 0.125,-0.056 0.125,-0.125 0,-0.069 -0.056,-0.125 -0.125,-0.125 m 5.019,0 h -3.019 c -0.069,0 -0.125,0.056 -0.125,0.125 0,0.069 0.056,0.125 0.125,0.125 h 3.019 c 0.069,0 0.125,-0.056 0.125,-0.125 0,-0.069 -0.056,-0.125 -0.125,-0.125" /><path
       inkscape:connector-curvature="0"
       id="path14667"
       style="fill:#000000;fill-opacity:1;fill-rule:nonzero;stroke:none"
       d="m 364.8467,552.1851 h -4 c -0.069,0 -0.125,0.056 -0.125,0.125 0,0.069 0.056,0.125 0.125,0.125 h 4 c 0.069,0 0.125,-0.056 0.125,-0.125 0,-0.069 -0.056,-0.125 -0.125,-0.125 m 6,0 h -4 c -0.069,0 -0.125,0.056 -0.125,0.125 0,0.069 0.056,0.125 0.125,0.125 h 4 c 0.069,0 0.125,-0.056 0.125,-0.125 0,-0.069 -0.056,-0.125 -0.125,-0.125 m 6,0 h -4 c -0.069,0 -0.125,0.056 -0.125,0.125 0,0.069 0.056,0.125 0.125,0.125 h 4 c 0.069,0 0.125,-0.056 0.125,-0.125 0,-0.069 -0.056,-0.125 -0.125,-0.125 m 6,0 h -4 c -0.069,0 -0.125,0.056 -0.125,0.125 0,0.069 0.056,0.125 0.125,0.125 h 4 c 0.069,0 0.125,-0.056 0.125,-0.125 0,-0.069 -0.056,-0.125 -0.125,-0.125 m 6,0 h -4 c -0.069,0 -0.125,0.056 -0.125,0.125 0,0.069 0.056,0.125 0.125,0.125 h 4 c 0.069,0 0.125,-0.056 0.125,-0.125 0,-0.069 -0.056,-0.125 -0.125,-0.125 m 6,0 h -4 c -0.069,0 -0.125,0.056 -0.125,0.125 0,0.069 0.056,0.125 0.125,0.125 h 4 c 0.069,0 0.125,-0.056 0.125,-0.125 0,-0.069 -0.056,-0.125 -0.125,-0.125 m 6,0 h -4 c -0.069,0 -0.125,0.056 -0.125,0.125 0,0.069 0.056,0.125 0.125,0.125 h 4 c 0.069,0 0.125,-0.056 0.125,-0.125 0,-0.069 -0.056,-0.125 -0.125,-0.125 m 6,0 h -4 c -0.069,0 -0.125,0.056 -0.125,0.125 0,0.069 0.056,0.125 0.125,0.125 h 4 c 0.069,0 0.125,-0.056 0.125,-0.125 0,-0.069 -0.056,-0.125 -0.125,-0.125 m 6,0 h -4 c -0.069,0 -0.125,0.056 -0.125,0.125 0,0.069 0.056,0.125 0.125,0.125 h 4 c 0.069,0 0.125,-0.056 0.125,-0.125 0,-0.069 -0.056,-0.125 -0.125,-0.125 m 6,0 h -4 c -0.069,0 -0.125,0.056 -0.125,0.125 0,0.069 0.056,0.125 0.125,0.125 h 4 c 0.069,0 0.125,-0.056 0.125,-0.125 0,-0.069 -0.056,-0.125 -0.125,-0.125 m 5.02,0 h -3.02 c -0.069,0 -0.125,0.056 -0.125,0.125 0,0.069 0.056,0.125 0.125,0.125 h 3.02 c 0.069,0 0.125,-0.056 0.125,-0.125 0,-0.069 -0.056,-0.125 -0.125,-0.125 m -185.02,0 h -4 c -0.068,0 -0.125,0.056 -0.125,0.125 0,0.068 0.057,0.125 0.125,0.125 h 4 c 0.069,0 0.125,-0.057 0.125,-0.125 0,-0.069 -0.056,-0.125 -0.125,-0.125 m 6,0 h -4 c -0.068,0 -0.125,0.056 -0.125,0.125 0,0.068 0.057,0.125 0.125,0.125 h 4 c 0.069,0 0.125,-0.057 0.125,-0.125 0,-0.069 -0.056,-0.125 -0.125,-0.125 m 6,0 h -4 c -0.068,0 -0.125,0.056 -0.125,0.125 0,0.068 0.057,0.125 0.125,0.125 h 4 c 0.069,0 0.125,-0.057 0.125,-0.125 0,-0.069 -0.056,-0.125 -0.125,-0.125 m 6,0 h -4 c -0.068,0 -0.125,0.056 -0.125,0.125 0,0.068 0.057,0.125 0.125,0.125 h 4 c 0.069,0 0.125,-0.057 0.125,-0.125 0,-0.069 -0.056,-0.125 -0.125,-0.125 m 6,0 h -4 c -0.068,0 -0.125,0.056 -0.125,0.125 0,0.068 0.057,0.125 0.125,0.125 h 4 c 0.069,0 0.125,-0.057 0.125,-0.125 0,-0.069 -0.056,-0.125 -0.125,-0.125 m 6,0 h -4 c -0.068,0 -0.125,0.056 -0.125,0.125 0,0.068 0.057,0.125 0.125,0.125 h 4 c 0.069,0 0.125,-0.057 0.125,-0.125 0,-0.069 -0.056,-0.125 -0.125,-0.125 m 6,0 h -4 c -0.068,0 -0.125,0.056 -0.125,0.125 0,0.068 0.057,0.125 0.125,0.125 h 4 c 0.069,0 0.125,-0.057 0.125,-0.125 0,-0.069 -0.056,-0.125 -0.125,-0.125 m 6,0 h -4 c -0.068,0 -0.125,0.056 -0.125,0.125 0,0.068 0.057,0.125 0.125,0.125 h 4 c 0.069,0 0.125,-0.057 0.125,-0.125 0,-0.069 -0.056,-0.125 -0.125,-0.125 m 6,0 h -4 c -0.068,0 -0.125,0.056 -0.125,0.125 0,0.068 0.057,0.125 0.125,0.125 h 4 c 0.069,0 0.125,-0.057 0.125,-0.125 0,-0.069 -0.056,-0.125 -0.125,-0.125 m 6,0 h -4 c -0.068,0 -0.125,0.056 -0.125,0.125 0,0.068 0.057,0.125 0.125,0.125 h 4 c 0.069,0 0.125,-0.057 0.125,-0.125 0,-0.069 -0.056,-0.125 -0.125,-0.125 m 6,0 h -4 c -0.068,0 -0.125,0.056 -0.125,0.125 0,0.068 0.057,0.125 0.125,0.125 h 4 c 0.069,0 0.125,-0.057 0.125,-0.125 0,-0.069 -0.056,-0.125 -0.125,-0.125 m 6,0 h -4 c -0.068,0 -0.125,0.056 -0.125,0.125 0,0.068 0.057,0.125 0.125,0.125 h 4 c 0.069,0 0.125,-0.057 0.125,-0.125 0,-0.069 -0.056,-0.125 -0.125,-0.125 m 6,0 h -4 c -0.068,0 -0.125,0.056 -0.125,0.125 0,0.068 0.057,0.125 0.125,0.125 h 4 c 0.069,0 0.125,-0.057 0.125,-0.125 0,-0.069 -0.056,-0.125 -0.125,-0.125 m 6,0 h -4 c -0.069,0 -0.125,0.056 -0.125,0.125 0,0.068 0.056,0.125 0.125,0.125 h 4 c 0.069,0 0.125,-0.057 0.125,-0.125 0,-0.069 -0.056,-0.125 -0.125,-0.125 m 6,0 h -4 c -0.069,0 -0.125,0.056 -0.125,0.125 0,0.068 0.056,0.125 0.125,0.125 h 4 c 0.069,0 0.125,-0.057 0.125,-0.125 0,-0.069 -0.056,-0.125 -0.125,-0.125 m 6,0 h -4 c -0.069,0 -0.125,0.056 -0.125,0.125 0,0.068 0.056,0.125 0.125,0.125 h 4 c 0.069,0 0.125,-0.057 0.125,-0.125 0,-0.069 -0.056,-0.125 -0.125,-0.125 m 6,0 h -4 c -0.069,0 -0.125,0.056 -0.125,0.125 0,0.068 0.056,0.125 0.125,0.125 h 4 c 0.069,0 0.125,-0.057 0.125,-0.125 0,-0.069 -0.056,-0.125 -0.125,-0.125 m 6,0 h -4 c -0.069,0 -0.125,0.056 -0.125,0.125 0,0.068 0.056,0.125 0.125,0.125 h 4 c 0.069,0 0.125,-0.057 0.125,-0.125 0,-0.069 -0.056,-0.125 -0.125,-0.125 m 6,0 h -4 c -0.069,0 -0.125,0.056 -0.125,0.125 0,0.068 0.056,0.125 0.125,0.125 h 4 c 0.069,0 0.125,-0.057 0.125,-0.125 0,-0.069 -0.056,-0.125 -0.125,-0.125 m 6,0 h -4 c -0.069,0 -0.125,0.056 -0.125,0.125 0,0.068 0.056,0.125 0.125,0.125 h 4 c 0.069,0 0.125,-0.057 0.125,-0.125 0,-0.069 -0.056,-0.125 -0.125,-0.125 m 6,0 h -4 c -0.069,0 -0.125,0.056 -0.125,0.125 0,0.068 0.056,0.125 0.125,0.125 h 4 c 0.069,0 0.125,-0.057 0.125,-0.125 0,-0.069 -0.056,-0.125 -0.125,-0.125 m -186,-0.001 h -4 c -0.068,0 -0.125,0.056 -0.125,0.125 0,0.069 0.057,0.125 0.125,0.125 h 4 c 0.069,0 0.125,-0.056 0.125,-0.125 0,-0.069 -0.056,-0.125 -0.125,-0.125 m 6,0 h -4 c -0.068,0 -0.125,0.056 -0.125,0.125 0,0.069 0.057,0.125 0.125,0.125 h 4 c 0.069,0 0.125,-0.056 0.125,-0.125 0,-0.069 -0.056,-0.125 -0.125,-0.125 m 6,0 h -4 c -0.068,0 -0.125,0.056 -0.125,0.125 0,0.069 0.057,0.125 0.125,0.125 h 4 c 0.069,0 0.125,-0.056 0.125,-0.125 0,-0.069 -0.056,-0.125 -0.125,-0.125 m 6,0 h -4 c -0.068,0 -0.125,0.056 -0.125,0.125 0,0.069 0.057,0.125 0.125,0.125 h 4 c 0.069,0 0.125,-0.056 0.125,-0.125 0,-0.069 -0.056,-0.125 -0.125,-0.125 m 6,0 h -4 c -0.068,0 -0.125,0.056 -0.125,0.125 0,0.069 0.057,0.125 0.125,0.125 h 4 c 0.069,0 0.125,-0.056 0.125,-0.125 0,-0.069 -0.056,-0.125 -0.125,-0.125 m 6,0 h -4 c -0.068,0 -0.125,0.056 -0.125,0.125 0,0.069 0.057,0.125 0.125,0.125 h 4 c 0.069,0 0.125,-0.056 0.125,-0.125 0,-0.069 -0.056,-0.125 -0.125,-0.125 m 6,0 h -4 c -0.068,0 -0.125,0.056 -0.125,0.125 0,0.069 0.057,0.125 0.125,0.125 h 4 c 0.069,0 0.125,-0.056 0.125,-0.125 0,-0.069 -0.056,-0.125 -0.125,-0.125 m 6,0 h -4 c -0.068,0 -0.125,0.056 -0.125,0.125 0,0.069 0.057,0.125 0.125,0.125 h 4 c 0.069,0 0.125,-0.056 0.125,-0.125 0,-0.069 -0.056,-0.125 -0.125,-0.125 m 6,0 h -4 c -0.068,0 -0.125,0.056 -0.125,0.125 0,0.069 0.057,0.125 0.125,0.125 h 4 c 0.069,0 0.125,-0.056 0.125,-0.125 0,-0.069 -0.056,-0.125 -0.125,-0.125 m 6,0 h -4 c -0.068,0 -0.125,0.056 -0.125,0.125 0,0.069 0.057,0.125 0.125,0.125 h 4 c 0.069,0 0.125,-0.056 0.125,-0.125 0,-0.069 -0.056,-0.125 -0.125,-0.125 m 2,0 c -0.068,0 -0.125,0.056 -0.125,0.125 0,0.069 0.057,0.125 0.125,0.125 l 4,0.001 c 0.069,0 0.125,-0.057 0.125,-0.125 0,-0.069 -0.056,-0.125 -0.125,-0.125 z" /><path
       inkscape:connector-curvature="0"
       id="path14671"
       style="fill:#000000;fill-opacity:1;fill-rule:nonzero;stroke:none"
       d="m 423.8672,305.5479 c -0.069,0 -0.125,0.056 -0.125,0.125 v 3.31 c 0,0.069 0.056,0.125 0.125,0.125 0.069,0 0.125,-0.056 0.125,-0.125 v -3.31 c 0,-0.069 -0.056,-0.125 -0.125,-0.125 m 0,-6 c -0.069,0 -0.125,0.056 -0.125,0.125 v 4 c 0,0.069 0.056,0.125 0.125,0.125 0.069,0 0.125,-0.056 0.125,-0.125 v -4 c 0,-0.069 -0.056,-0.125 -0.125,-0.125 m 0,-6 c -0.069,0 -0.125,0.056 -0.125,0.125 v 4 c 0,0.069 0.056,0.125 0.125,0.125 0.069,0 0.125,-0.056 0.125,-0.125 v -4 c 0,-0.069 -0.056,-0.125 -0.125,-0.125 m 0,-6 c -0.069,0 -0.125,0.056 -0.125,0.125 v 4 c 0,0.069 0.056,0.125 0.125,0.125 0.069,0 0.125,-0.056 0.125,-0.125 v -4 c 0,-0.069 -0.056,-0.125 -0.125,-0.125 m -0.001,-6 v 0 c -0.069,0 -0.125,0.056 -0.125,0.125 l 0.001,4 c 0,0.069 0.056,0.125 0.125,0.125 0.069,0 0.125,-0.056 0.125,-0.125 l -0.001,-4 c 0,-0.069 -0.056,-0.125 -0.125,-0.125 m 0,-6 c -0.069,0 -0.125,0.056 -0.125,0.125 v 4 c 0,0.069 0.056,0.125 0.125,0.125 0.069,0 0.125,-0.056 0.125,-0.125 v -4 c 0,-0.069 -0.056,-0.125 -0.125,-0.125 m 0,-6 c -0.069,0 -0.125,0.056 -0.125,0.125 v 4 c 0,0.069 0.056,0.125 0.125,0.125 0.069,0 0.125,-0.056 0.125,-0.125 v -4 c 0,-0.069 -0.056,-0.125 -0.125,-0.125 m 0,-6 c -0.069,0 -0.125,0.056 -0.125,0.125 v 4 c 0,0.069 0.056,0.125 0.125,0.125 0.069,0 0.125,-0.056 0.125,-0.125 v -4 c 0,-0.069 -0.056,-0.125 -0.125,-0.125 m 0,-6 c -0.069,0 -0.125,0.056 -0.125,0.125 v 4 c 0,0.069 0.056,0.125 0.125,0.125 0.069,0 0.125,-0.056 0.125,-0.125 v -4 c 0,-0.069 -0.056,-0.125 -0.125,-0.125 m 0,-6 c -0.069,0 -0.125,0.056 -0.125,0.125 v 4 c 0,0.069 0.056,0.125 0.125,0.125 0.069,0 0.125,-0.056 0.125,-0.125 v -4 c 0,-0.069 -0.056,-0.125 -0.125,-0.125 m 0,-6 c -0.069,0 -0.125,0.056 -0.125,0.125 v 4 c 0,0.069 0.056,0.125 0.125,0.125 0.069,0 0.125,-0.056 0.125,-0.125 v -4 c 0,-0.069 -0.056,-0.125 -0.125,-0.125 m 0,-6 c -0.069,0 -0.125,0.056 -0.125,0.125 v 4 c 0,0.069 0.056,0.125 0.125,0.125 0.069,0 0.125,-0.056 0.125,-0.125 v -4 c 0,-0.069 -0.056,-0.125 -0.125,-0.125 m -10e-4,-6 v 0 c -0.069,0 -0.125,0.056 -0.125,0.125 l 10e-4,4 c 0,0.069 0.056,0.125 0.125,0.125 0.069,0 0.125,-0.056 0.125,-0.125 l -10e-4,-4 c 0,-0.069 -0.056,-0.125 -0.125,-0.125 m 0,-6 c -0.069,0 -0.125,0.056 -0.125,0.125 v 4 c 0,0.069 0.056,0.125 0.125,0.125 0.069,0 0.125,-0.056 0.125,-0.125 v -4 c 0,-0.069 -0.056,-0.125 -0.125,-0.125 m 0,-6 c -0.069,0 -0.125,0.056 -0.125,0.125 v 4 c 0,0.069 0.056,0.125 0.125,0.125 0.069,0 0.125,-0.056 0.125,-0.125 v -4 c 0,-0.069 -0.056,-0.125 -0.125,-0.125 m 0,-6 c -0.069,0 -0.125,0.056 -0.125,0.125 v 4 c 0,0.069 0.056,0.125 0.125,0.125 0.069,0 0.125,-0.056 0.125,-0.125 v -4 c 0,-0.069 -0.056,-0.125 -0.125,-0.125 m 0,-6 c -0.069,0 -0.125,0.056 -0.125,0.125 v 4 c 0,0.069 0.056,0.125 0.125,0.125 0.069,0 0.125,-0.056 0.125,-0.125 v -4 c 0,-0.069 -0.056,-0.125 -0.125,-0.125 m 0,-6 c -0.069,0 -0.125,0.056 -0.125,0.125 v 4 c 0,0.069 0.056,0.125 0.125,0.125 0.069,0 0.125,-0.056 0.125,-0.125 v -4 c 0,-0.069 -0.056,-0.125 -0.125,-0.125 m 0,-6 c -0.069,0 -0.125,0.056 -0.125,0.125 v 4 c 0,0.069 0.056,0.125 0.125,0.125 0.069,0 0.125,-0.056 0.125,-0.125 v -4 c 0,-0.069 -0.056,-0.125 -0.125,-0.125 m 0,-6 c -0.069,0 -0.125,0.056 -0.125,0.125 v 4 c 0,0.069 0.056,0.125 0.125,0.125 0.069,0 0.125,-0.056 0.125,-0.125 v -4 c 0,-0.069 -0.056,-0.125 -0.125,-0.125 m -0.001,-6 v 0 c -0.069,0 -0.125,0.056 -0.125,0.125 l 0.001,4 c 0,0.069 0.056,0.125 0.125,0.125 0.069,0 0.125,-0.056 0.125,-0.125 l -0.001,-4 c 0,-0.069 -0.056,-0.125 -0.125,-0.125 m 0,-6 c -0.069,0 -0.125,0.056 -0.125,0.125 v 4 c 0,0.069 0.056,0.125 0.125,0.125 0.069,0 0.125,-0.056 0.125,-0.125 v -4 c 0,-0.069 -0.056,-0.125 -0.125,-0.125 m 0,-6 c -0.069,0 -0.125,0.056 -0.125,0.125 v 4 c 0,0.069 0.056,0.125 0.125,0.125 0.069,0 0.125,-0.056 0.125,-0.125 v -4 c 0,-0.069 -0.056,-0.125 -0.125,-0.125 m 0,-6 c -0.069,0 -0.125,0.056 -0.125,0.125 v 4 c 0,0.069 0.056,0.125 0.125,0.125 0.069,0 0.125,-0.056 0.125,-0.125 v -4 c 0,-0.069 -0.056,-0.125 -0.125,-0.125 m 0,-6 c -0.069,0 -0.125,0.056 -0.125,0.125 v 4 c 0,0.069 0.056,0.125 0.125,0.125 0.069,0 0.125,-0.056 0.125,-0.125 v -4 c 0,-0.069 -0.056,-0.125 -0.125,-0.125" /><path
       style="fill:none;fill-opacity:1;fill-rule:nonzero;stroke:#000000;stroke-opacity:1;stroke-width:0.075;stroke-miterlimit:4;stroke-dasharray:none"
       d="m 501.8842,143.2979 h -13.766 c -0.207,0 -0.375,0.168 -0.375,0.375 v 17.624 h -31.738 v -17.624 c 0,-0.207 -0.168,-0.375 -0.375,-0.375 h -13.764 c -0.1,0 -0.195,0.039 -0.266,0.109 l -17.734,17.735 -17.734,-17.735 c -0.071,-0.07 -0.166,-0.109 -0.266,-0.109 h -219.019 c -0.099,0 -0.194,0.039 -0.265,0.109 l -36.001,36 c -0.07,0.071 -0.109,0.166 -0.109,0.266 v 111.31 c 0,0.099 0.039,0.195 0.109,0.265 l 17.736,17.735 -17.735,17.734 c -0.07,0.07 -0.11,0.166 -0.11,0.266 v 60.017 c 0,0.1 0.039,0.194 0.109,0.266 l 17.36,17.359 h -95.112 c -0.207,0 -0.375,0.168 -0.375,0.375 v 147.309 c 0,0.207 0.168,0.375 0.375,0.375 l 95.113,10e-4 -17.36,17.36 c -0.07,0.07 -0.11,0.166 -0.11,0.265 v 60.018 c 0,0.099 0.039,0.195 0.109,0.265 l 18,18 c 0.071,0.07 0.166,0.11 0.266,0.11 h 255.017 c 0.207,0 0.375,-0.168 0.375,-0.375 l 0.001,-31.795 c 0,-0.099 -0.039,-0.194 -0.109,-0.265 -0.071,-0.07 -0.166,-0.11 -0.266,-0.11 h -20.335 v -31.74 h 20.335 c 0.207,0 0.375,-0.168 0.375,-0.375 v -274.155 l 17.359,17.359 c 0.071,0.071 0.166,0.11 0.266,0.11 h 60.019 c 0.099,0 0.195,-0.039 0.265,-0.11 l 36,-35.999 c 0.071,-0.07 0.11,-0.166 0.11,-0.265 v -111.311 c 0,-0.1 -0.039,-0.194 -0.11,-0.266 l -36,-35.999 c -0.07,-0.07 -0.166,-0.109 -0.265,-0.109"
       id="path14835" /><path
       style="fill:none;fill-opacity:1;fill-rule:nonzero;stroke:#000000;stroke-width:0.075;stroke-miterlimit:4;stroke-dasharray:none;stroke-opacity:1"
       d="m 303.0232,314.1582 c -5.07967,0 -10.15933,0 -15.239,0 -0.78279,0.75478 -0.19037,2.26584 -0.375,3.34088 0,27.31638 0,54.63275 0,81.94912 0.75478,0.78279 2.26584,0.19037 3.34088,0.375 4.09104,0 8.18208,0 12.27312,0 0.78279,-0.75478 0.19037,-2.26584 0.375,-3.34088 0,-27.31638 0,-54.63275 0,-81.94912 l -0.10988,-0.26512 z"
       id="path14839" /><path
       inkscape:connector-curvature="0"
       id="path15175"
       style="fill:#fdfdff;fill-opacity:1;fill-rule:nonzero;stroke:none"
       d="m 224.493,218.058 h 93.292 v 34.99 h -93.292 z m 94.292,-1 h -95.292 v 36.99 h 95.292 z" /></g></svg>