<?xml version="1.0" encoding="UTF-8" standalone="no"?>
<!DOCTYPE svg PUBLIC "-//W3C//DTD SVG 1.1//EN" "http://www.w3.org/Graphics/SVG/1.1/DTD/svg11.dtd">
<svg width="510.23pt" height="574.01pt" version="1.1"
    viewBox="0 0 510.23 574.01"
    xmlns="http://www.w3.org/2000/svg"
    xmlns:xlink="http://www.w3.org/1999/xlink"
    xml:space="preserve"
    xmlns:serif="http://www.serif.com/"
    style="fill-rule:evenodd;clip-rule:evenodd;stroke-linecap:round;stroke-linejoin:round;stroke-miterlimit:1.5;">
        <path d="M476.57,198.43L476.57,185.34L481.89,185.34L481.89,172.26L476.57,172.26L476.57,159.18L481.89,159.18L481.89,146.09L476.57,146.09L476.57,133.01L481.89,133.01L481.89,119.93L476.57,119.93L476.57,106.84L481.89,106.84L481.89,93.76L476.57,93.76L476.57,80.68L481.89,80.68L481.89,67.60L476.57,67.60L476.57,54.51L481.89,54.51L481.89,41.43L476.57,41.43L476.57,28.35L468.39,28.35L468.39,33.66L454.89,33.66L454.89,28.35L441.39,28.35L441.39,33.66L427.90,33.66L427.90,28.35L414.40,28.35L414.40,33.66L400.90,33.66L400.90,28.35L387.40,28.35L387.40,33.66L373.90,33.66L373.90,28.35L360.40,28.35L360.40,33.66L346.91,33.66L346.91,28.35L333.41,28.35L333.41,33.66L319.91,33.66L319.91,28.35L306.41,28.35L306.41,33.66L292.91,33.66L292.91,28.35L279.42,28.35L279.42,33.66L265.92,33.66L265.92,28.35L252.42,28.35L252.42,33.66L238.92,33.66L238.92,28.35L225.42,28.35L225.42,33.66L211.92,33.66L211.92,28.35L198.43,28.35L198.43,41.43L203.74,41.43L203.74,54.51L198.43,54.51L198.43,67.60L203.74,67.60L203.74,80.68L198.43,80.68L198.43,93.76L203.74,93.76L203.74,106.84L198.43,106.84L198.43,119.93L203.74,119.93L203.74,133.01L198.43,133.01L198.43,146.09L203.74,146.09L203.74,159.18L198.43,159.18L198.43,172.26L203.74,172.26L203.74,185.34L198.43,185.34L198.43,198.43L211.92,198.43L211.92,193.11L225.42,193.11L225.42,198.43L238.92,198.43L238.92,193.11L252.42,193.11L252.42,198.43L265.92,198.43L265.92,193.11L279.42,193.11L279.42,198.43L292.91,198.43L292.91,193.11L306.41,193.11L306.41,198.43L319.91,198.43L319.91,193.11L333.41,193.11L333.41,198.43L346.91,198.43L346.91,193.11L360.40,193.11L360.40,198.43L373.90,198.43L373.90,193.11L387.40,193.11L387.40,198.43L400.90,198.43L400.90,193.11L414.40,193.11L414.40,198.43L427.90,198.43L427.90,193.11L441.39,193.11L441.39,198.43L454.89,198.43L454.89,193.11L468.39,193.11L468.39,198.43Z" style="fill:none;stroke:#000000;stroke-width:0.10px;"/>
        <path d="M164.76,396.85L164.76,383.77L170.08,383.77L170.08,370.68L164.76,370.68L164.76,357.60L170.08,357.60L170.08,344.52L164.76,344.52L164.76,331.44L170.08,331.44L170.08,318.35L164.76,318.35L164.76,305.27L170.08,305.27L170.08,292.19L164.76,292.19L164.76,279.10L170.08,279.10L170.08,266.02L164.76,266.02L164.76,252.94L170.08,252.94L170.08,239.85L164.76,239.85L164.76,226.77L157.19,226.77L157.19,232.09L144.31,232.09L144.31,226.77L131.42,226.77L131.42,232.09L118.54,232.09L118.54,226.77L105.65,226.77L105.65,232.09L92.77,232.09L92.77,226.77L79.89,226.77L79.89,232.09L67.00,232.09L67.00,226.77L54.12,226.77L54.12,232.09L41.23,232.09L41.23,226.77L28.35,226.77L28.35,239.85L33.66,239.85L33.66,252.94L28.35,252.94L28.35,266.02L33.66,266.02L33.66,279.10L28.35,279.10L28.35,292.19L33.66,292.19L33.66,305.27L28.35,305.27L28.35,318.35L33.66,318.35L33.66,331.44L28.35,331.44L28.35,344.52L33.66,344.52L33.66,357.60L28.35,357.60L28.35,370.68L33.66,370.68L33.66,383.77L28.35,383.77L28.35,396.85L41.23,396.85L41.23,391.54L54.12,391.54L54.12,396.85L67.00,396.85L67.00,391.54L79.89,391.54L79.89,396.85L92.77,396.85L92.77,391.54L105.65,391.54L105.65,396.85L118.54,396.85L118.54,391.54L131.42,391.54L131.42,396.85L144.31,396.85L144.31,391.54L157.19,391.54L157.19,396.85Z" style="fill:none;stroke:#000000;stroke-width:0.10px;"/>
        <path d="M476.57,363.19L468.39,363.19L468.39,368.50L454.89,368.50L454.89,363.19L441.39,363.19L441.39,368.50L427.90,368.50L427.90,363.19L414.40,363.19L414.40,368.50L400.90,368.50L400.90,363.19L387.40,363.19L387.40,368.50L373.90,368.50L373.90,363.19L360.40,363.19L360.40,368.50L346.91,368.50L346.91,363.19L333.41,363.19L333.41,368.50L319.91,368.50L319.91,363.19L306.41,363.19L306.41,368.50L292.91,368.50L292.91,363.19L279.42,363.19L279.42,368.50L265.92,368.50L265.92,363.19L252.42,363.19L252.42,368.50L238.92,368.50L238.92,363.19L225.42,363.19L225.42,368.50L211.92,368.50L211.92,363.19L203.74,363.19L203.74,355.62L198.43,355.62L198.43,342.73L203.74,342.73L203.74,329.85L198.43,329.85L198.43,316.96L203.74,316.96L203.74,304.08L198.43,304.08L198.43,291.20L203.74,291.20L203.74,278.31L198.43,278.31L198.43,265.43L203.74,265.43L203.74,252.54L198.43,252.54L198.43,239.66L203.74,239.66L203.74,232.09L211.92,232.09L211.92,226.77L225.42,226.77L225.42,232.09L238.92,232.09L238.92,226.77L252.42,226.77L252.42,232.09L265.92,232.09L265.92,226.77L279.42,226.77L279.42,232.09L292.91,232.09L292.91,226.77L306.41,226.77L306.41,232.09L319.91,232.09L319.91,226.77L333.41,226.77L333.41,232.09L346.91,232.09L346.91,226.77L360.40,226.77L360.40,232.09L373.90,232.09L373.90,226.77L387.40,226.77L387.40,232.09L400.90,232.09L400.90,226.77L414.40,226.77L414.40,232.09L427.90,232.09L427.90,226.77L441.39,226.77L441.39,232.09L454.89,232.09L454.89,226.77L468.39,226.77L468.39,232.09L476.57,232.09L476.57,239.66L481.89,239.66L481.89,252.54L476.57,252.54L476.57,265.43L481.89,265.43L481.89,278.31L476.57,278.31L476.57,291.20L481.89,291.20L481.89,304.08L476.57,304.08L476.57,316.96L481.89,316.96L481.89,329.85L476.57,329.85L476.57,342.73L481.89,342.73L481.89,355.62L476.57,355.62Z" style="fill:none;stroke:#000000;stroke-width:0.10px;"/>
        <path d="M646.65,396.85L646.65,383.77L651.97,383.77L651.97,370.68L646.65,370.68L646.65,357.60L651.97,357.60L651.97,344.52L646.65,344.52L646.65,331.44L651.97,331.44L651.97,318.35L646.65,318.35L646.65,305.27L651.97,305.27L651.97,292.19L646.65,292.19L646.65,279.10L651.97,279.10L651.97,266.02L646.65,266.02L646.65,252.94L651.97,252.94L651.97,239.85L646.65,239.85L646.65,226.77L639.08,226.77L639.08,232.09L626.20,232.09L626.20,226.77L613.31,226.77L613.31,232.09L600.43,232.09L600.43,226.77L587.54,226.77L587.54,232.09L574.66,232.09L574.66,226.77L561.78,226.77L561.78,232.09L548.89,232.09L548.89,226.77L536.01,226.77L536.01,232.09L523.12,232.09L523.12,226.77L510.24,226.77L510.24,239.85L515.55,239.85L515.55,252.94L510.24,252.94L510.24,266.02L515.55,266.02L515.55,279.10L510.24,279.10L510.24,292.19L515.55,292.19L515.55,305.27L510.24,305.27L510.24,318.35L515.55,318.35L515.55,331.44L510.24,331.44L510.24,344.52L515.55,344.52L515.55,357.60L510.24,357.60L510.24,370.68L515.55,370.68L515.55,383.77L510.24,383.77L510.24,396.85L523.12,396.85L523.12,391.54L536.01,391.54L536.01,396.85L548.89,396.85L548.89,391.54L561.78,391.54L561.78,396.85L574.66,396.85L574.66,391.54L587.54,391.54L587.54,396.85L600.43,396.85L600.43,391.54L613.31,391.54L613.31,396.85L626.20,396.85L626.20,391.54L639.08,391.54L639.08,396.85Z" style="fill:none;stroke:#000000;stroke-width:0.10px;"/>
        <path d="M476.57,566.93L476.57,553.85L481.89,553.85L481.89,540.76L476.57,540.76L476.57,527.68L481.89,527.68L481.89,514.60L476.57,514.60L476.57,501.51L481.89,501.51L481.89,488.43L476.57,488.43L476.57,475.35L481.89,475.35L481.89,462.27L476.57,462.27L476.57,449.18L481.89,449.18L481.89,436.10L476.57,436.10L476.57,423.02L481.89,423.02L481.89,409.93L476.57,409.93L476.57,396.85L468.39,396.85L468.39,402.17L454.89,402.17L454.89,396.85L441.39,396.85L441.39,402.17L427.90,402.17L427.90,396.85L414.40,396.85L414.40,402.17L400.90,402.17L400.90,396.85L387.40,396.85L387.40,402.17L373.90,402.17L373.90,396.85L360.40,396.85L360.40,402.17L346.91,402.17L346.91,396.85L333.41,396.85L333.41,402.17L319.91,402.17L319.91,396.85L306.41,396.85L306.41,402.17L292.91,402.17L292.91,396.85L279.42,396.85L279.42,402.17L265.92,402.17L265.92,396.85L252.42,396.85L252.42,402.17L238.92,402.17L238.92,396.85L225.42,396.85L225.42,402.17L211.92,402.17L211.92,396.85L198.43,396.85L198.43,409.93L203.74,409.93L203.74,423.02L198.43,423.02L198.43,436.10L203.74,436.10L203.74,449.18L198.43,449.18L198.43,462.27L203.74,462.27L203.74,475.35L198.43,475.35L198.43,488.43L203.74,488.43L203.74,501.51L198.43,501.51L198.43,514.60L203.74,514.60L203.74,527.68L198.43,527.68L198.43,540.76L203.74,540.76L203.74,553.85L198.43,553.85L198.43,566.93L211.92,566.93L211.92,561.61L225.42,561.61L225.42,566.93L238.92,566.93L238.92,561.61L252.42,561.61L252.42,566.93L265.92,566.93L265.92,561.61L279.42,561.61L279.42,566.93L292.91,566.93L292.91,561.61L306.41,561.61L306.41,566.93L319.91,566.93L319.91,561.61L333.41,561.61L333.41,566.93L346.91,566.93L346.91,561.61L360.40,561.61L360.40,566.93L373.90,566.93L373.90,561.61L387.40,561.61L387.40,566.93L400.90,566.93L400.90,561.61L414.40,561.61L414.40,566.93L427.90,566.93L427.90,561.61L441.39,561.61L441.39,566.93L454.89,566.93L454.89,561.61L468.39,561.61L468.39,566.93Z" style="fill:none;stroke:#000000;stroke-width:0.10px;"/>
        <path d="M476.57,731.69L468.39,731.69L468.39,737.01L454.89,737.01L454.89,731.69L441.39,731.69L441.39,737.01L427.90,737.01L427.90,731.69L414.40,731.69L414.40,737.01L400.90,737.01L400.90,731.69L387.40,731.69L387.40,737.01L373.90,737.01L373.90,731.69L360.40,731.69L360.40,737.01L346.91,737.01L346.91,731.69L333.41,731.69L333.41,737.01L319.91,737.01L319.91,731.69L306.41,731.69L306.41,737.01L292.91,737.01L292.91,731.69L279.42,731.69L279.42,737.01L265.92,737.01L265.92,731.69L252.42,731.69L252.42,737.01L238.92,737.01L238.92,731.69L225.42,731.69L225.42,737.01L211.92,737.01L211.92,731.69L203.74,731.69L203.74,724.12L198.43,724.12L198.43,711.24L203.74,711.24L203.74,698.35L198.43,698.35L198.43,685.47L203.74,685.47L203.74,672.58L198.43,672.58L198.43,659.70L203.74,659.70L203.74,646.81L198.43,646.81L198.43,633.93L203.74,633.93L203.74,621.05L198.43,621.05L198.43,608.16L203.74,608.16L203.74,600.59L211.92,600.59L211.92,595.28L225.42,595.28L225.42,600.59L238.92,600.59L238.92,595.28L252.42,595.28L252.42,600.59L265.92,600.59L265.92,595.28L279.42,595.28L279.42,600.59L292.91,600.59L292.91,595.28L306.41,595.28L306.41,600.59L319.91,600.59L319.91,595.28L333.41,595.28L333.41,600.59L346.91,600.59L346.91,595.28L360.40,595.28L360.40,600.59L373.90,600.59L373.90,595.28L387.40,595.28L387.40,600.59L400.90,600.59L400.90,595.28L414.40,595.28L414.40,600.59L427.90,600.59L427.90,595.28L441.39,595.28L441.39,600.59L454.89,600.59L454.89,595.28L468.39,595.28L468.39,600.59L476.57,600.59L476.57,608.16L481.89,608.16L481.89,621.05L476.57,621.05L476.57,633.93L481.89,633.93L481.89,646.81L476.57,646.81L476.57,659.70L481.89,659.70L481.89,672.58L476.57,672.58L476.57,685.47L481.89,685.47L481.89,698.35L476.57,698.35L476.57,711.24L481.89,711.24L481.89,724.12L476.57,724.12Z" style="fill:none;stroke:#000000;stroke-width:0.10px;"/>

</svg>
